<?xml version="1.0" encoding="utf-8"?>
<!-- Generator: Adobe Illustrator 27.3.1, SVG Export Plug-In . SVG Version: 6.00 Build 0)  -->
<svg version="1.1" xmlns="http://www.w3.org/2000/svg" xmlns:xlink="http://www.w3.org/1999/xlink" x="0px" y="0px"
	 viewBox="0 0 2267.72 2267.72" style="enable-background:new 0 0 2267.72 2267.72;" xml:space="preserve">
<style type="text/css">
	.st0{fill:#E52421;}
</style>
<g id="Слой_8">
	<g>
		<path class="st0" d="M1004.77,900.63c36.77,4.96,69.68,12.04,98.27,30.89C1089.81,909.35,1036.64,894.27,1004.77,900.63z"/>
		<path class="st0" d="M1429.77,2012.12c-0.17-0.29-0.33-0.59-0.49-0.88c10.52,8.66,22.33,15.67,35.29,20.45
			c-19.87-13.56-35.88-29.07-49.5-46.45c-16.93-32.35-31.09-65.85-36.31-102.52c-4.03-28.27-12.47-55.84-12.18-84.88
			c0.18-18.69-8.83-34.37-22.13-47.67c-20.62-20.62-40.13-42.41-61.42-62.3c-28.08-26.22-48.84-58.53-74.68-86.55
			c-11.6-12.58-22.5-25.83-34.4-38.11c-1.62-1.68-3.34-3.1-5.13-4.27c8.38-2.16,16.26-5.99,22.95-11.65
			c-13.03,3.23-25.49,5.5-38.72,5.73c-13.22,0.39-26.03-1.22-39.4-2.3c7.23,4.36,15.45,7.43,23.98,9.04
			c-2.55,1.67-4.97,3.71-7.19,6.11c-20.07,21.74-41.17,42.55-62.39,63.19c-30.69,29.85-55.21,63.81-74.29,102.26
			c-10.2,20.55-22.58,40.14-35.37,59.28c-15.71,12.4-33.03,23.18-51.84,33.4c14.28-3.67,28.29-9.41,41.3-16.94
			c-13.24,22.72-21.55,47.28-26.84,72.93c-7.51,36.47-26.43,66.23-50.44,93.65c-27.58,31.5-55.1,63.06-81.87,95.25
			c-10.22,12.29-16.82,26.28-21.93,40.92c115.31,44.09,240.48,68.24,371.29,68.24c113.27,0,222.3-18.12,324.37-51.6
			c-1.97-11.56-3.19-23.27-5.08-34.84C1452.72,2063.46,1443.79,2036.94,1429.77,2012.12z"/>
		<path class="st0" d="M1162.28,949.51c34.1-32.18,73.12-40.08,114.18-48.38C1241.86,890.88,1176.36,916.15,1162.28,949.51z"/>
		<path class="st0" d="M1138.04,98.02c-574.38,0-1040,465.62-1040,1040c0,408.76,235.82,762.44,578.84,932.41
			c10.68-41.22,18.32-83.15,27.09-124.74c14.32-67.85,50.39-123.93,88.23-179.7c19.31-28.46,42.74-54.42,58.1-85.32
			c-1.3,22.05,2.34,44.2,12.15,64.18c-6.91-32.38-5.98-62.4-0.11-92.54c22.86-56.58,45.7-113.18,59.74-172.95
			c9.38-39.92,20.64-79.43,32.02-118.85c5.1-17.68,15.56-33.17,24.16-49.37c1.82,24.93,9.74,49.2,24.85,69.29
			c-12.07-28.63-16.97-56.51-17.44-85.2c8.52-21.6,10.9-43.9,5.38-67.31c-7.4-31.39-5.25-63.92-10.73-95.24
			c-8.59-49.09-31.84-91.95-66.83-128c-3.81-3.93-8.58-5.73-12.7-2.94c-33.54,22.74-72.34,21.31-110.11,24.33
			c-14.16,1.13-24.11,8.58-28,20.95c-1.01,3.21-2.36,5.97-3.98,8.35c5.39,0.2,10.81,0.42,16.07,0.7c42,2.42,84.13,7.45,124.84,18.33
			c23.78,6.46,47.54,14.45,69.21,26.26c-13.45-5.98-27.52-10.85-41.7-14.69c-42.54-11.77-86.68-17.03-130.69-18.99
			c-17.05-0.59-34.18-1.19-51.24-0.86c-3.67,1.53-7.55,2.46-11.37,3c-12.5,1.77-25.03,3.12-37.59,3.84
			c-5.24,1.05-10.51,2.14-15.82,3.18c-12.25,2.33-24.9,4.95-37.55,5.89c-11.87,0.48-23.76-1.36-35.11-4.84
			c-1.44-0.47-2.86-0.97-4.28-1.49c2.33,4.39,11.39,4.86,16.43,7.19c14.72,6.81,17.44,13.51,9.3,27.69
			c-4.25,7.41-9.02,14.55-13.94,21.54c-17.05,24.29-32.16,28.13-57.94,14.37c-14.77-7.88-28.86-17.01-41.36-28.17
			c-14.1-12.59-14.74-22.5-2.46-36.39c5.25-5.94,10.57-11.79,15.97-17.56c5.42-5.81,10.92-11.52,16.54-17.21
			c2.13-2.59,4.28-5.19,6.44-7.81c-13.28-15.18-23.76-33.04-31.34-51.31c-5.97-14.14-10.57-29.03-12.67-44.26
			c-14.55-95.39,24.95-186.69,48.57-277.18c12.59-42.05,19.96-86.17,15.83-130.07c0.17-4.95-0.28-9.95-1.57-14.8
			c-3.81-14.62-13.77-26.84-24.74-36.93c12,9.42,22.93,21.25,27.72,36.06c1.61,4.96,2.5,10.19,2.58,15.46
			c2.89,18.32,3.51,39.76,2.28,59.3c-0.92,14.92-3.03,29.76-5.86,44.43c-1.68,9.19-7.75,33.82-9.99,43.41
			c-20.77,86.66-55.4,174.85-38.88,265.07c1.19,6.95,3.33,13.74,5.52,20.43c6.81,20.6,17.65,41.55,32.14,58.88
			c41.46-49.3,90.15-98.82,159.67-94.91c4.95-1.25,9.99-1.94,15.19-1.29c16.94,2.13,30.87-3.25,43.35-12.58
			c-4.57,13.53-6.06,27.96-3.26,41.63c3.1-14.88,6.76-28.96,12.29-42.94c1.36-3.54,2.81-7.02,4.33-10.47
			c19.85-19.54,36.72-42.01,58.83-59.36c28.75-22.56,60.3-36.91,96.47-37.29c5.42,1.05,10.82,2.29,16.23,3.79
			c14.52,3.87,28.22,9.34,42.55,14.4c-8.12-7.51-17.99-13.72-28.67-18.13c30.43-3,57.28-17.79,84.9-30.1
			c6.74-3,9.91-9.14,9.59-16.85c-0.23-5.57-0.04-11.16-0.07-16.73c1.48-24.51-6.77-48.32-5.15-72.85
			c1.49-22.52,6.57-43.91,19.27-63.01c9.18-13.82,22.02-20.7,38.56-21.27c11.96-0.41,23.8-2,35.36-5.27
			c4.15-1.17,7.82,1.18,10.95,2.79c14.84,7.63,30.26,14.29,43.58,24.64c8.37,6.5,9.75,16.74,13.34,25.57
			c15.25,37.48,11.35,75.39,1.19,113.26c-1.99,7.43-4.17,14.81-6.04,22.26c-5.71,22.69-4.03,27.44,16.34,38.16
			c18.37,9.67,36.93,18.57,56.39,25.81c-9.5,1-18.72,3.57-27.08,7.91c15.16-1.11,29.71-1.45,44.67,0.03
			c3.56,0.31,7.08,0.73,10.59,1.21c34.86,11.08,62.19,34.1,79.79,67.22c7.81,14.7,7.05,31.55,7.04,47.69c0,0.21,0,0.43,0,0.64
			c-0.09,0.33-0.18,0.65-0.27,0.98c-4.08,14.46-9.75,28.08-15.01,42.34c6.36-6.69,11.84-14.6,16.13-23.2
			c1.2,10.2,4.09,19.99,11.02,29.26c6.07,8.12,7.95,18.05,8.69,28.31c0,0,0-0.01,0-0.01c38.23-2.6,75.42,19.21,94.33,53.19
			c18.64,32.52,17.51,71.6,10.7,107.33c2.65,6.1,4.88,12.51,6.62,19.26c4.17,16.09,14.11,28.42,25.05,39.79
			c16.6,17.25,28.33,38.62,47.85,53.6c4.27,0.81,8.56,1.59,12.85,2.35c3.62,0.64,8.33,2.54,10.22-0.95
			c8.03-14.83,21-18.59,37.53-15.74c1.04,0.18,2.25-0.78,3.41-1.13c4.96-1.51,10.34-4.39,14.44,1.1c3.97,5.32,1.19,10.09-2.31,14.68
			c-7.25,9.55-5.65,14.7,6.19,18.73c3.35,1.14,6.86,1.9,10.2,2.89c0,0,0,0,0,0c1.15-0.88,2.3-1.75,3.44-2.63
			c6.57-5.33,13.19-10.6,19.84-15.84c-6.21,6.41-13.07,13.12-19.91,19.61c0,0,0,0,0,0c5.17,2,9.57,5.21,11.74,12.35
			c2.25,7.38,10.16,9.83,19.18,7.75c7.53-1.73,15.33,3,17.31,8.3c2.55,6.83-6.45,8.25-11.81,10.33
			c-20.54,7.98-41.17,8.36-61.81-0.91c-3.87-1.74-7.76-3.31-11.69-4.75c-31.6,23.11-72.15,35.87-110.6,27.13
			c-14.69-3.69-29.18-10.71-39.41-22.16c-10.31-11.63-15.61-27.26-18.4-41.88c-0.84-8.07-0.73-17.88-0.13-27.23
			c-23.76-13.53-50.44-21.23-73.98-35.01c-29-16.98-46.46-43.8-57.79-74.8c-3.91-10.69-8.22-21.06-13.98-30.43
			c12.28,5.65,26.01,7.8,39.21,4.74c-13.07-3.08-25.19-6.76-37.06-12.6c-4.97-2.37-9.72-5.03-14.39-7.82
			c-3.64-3.64-7.73-6.98-12.37-9.95c-10.73-6.86-15.44-5.57-20.54,5.96c-13.74,31.1-23.07,63.26-25.33,97.42
			c-0.96,14.45,3.49,27.93,5.29,41.86c2.35,18.2,2.83,36.61,7.25,54.6c1.57,6.39,3.68,12.45,6.29,18.24
			c-1.71,19.72-5.63,39.52-10.96,60.02c8.11-14.84,14-31.28,17.2-48.23c2.52,4.12,5.34,8.12,8.44,12
			c41.13,51.51,76.75,106.93,109.93,163.65c17.97,30.72,25.81,66.6,39.3,99.71c8.95,21.97,14.35,45.05,23.66,66.96
			c11.64,27.39,15.44,57.08,14.71,86.68c-1.12,45.3,7.28,89.38,14.27,133.69c7.99,50.6,16.49,101.12,24.54,151.72
			c0.47,2.98,1.05,5.92,1.71,8.82c367.84-160.26,625-527.04,625-953.89C2178.04,563.64,1712.41,98.02,1138.04,98.02z
			 M1750.69,1320.84l-57.84-103.16l57.84-103.16l57.84,103.16L1750.69,1320.84z"/>
		<path class="st0" d="M1522.41,1330.62c0.73,3.93,4.27,17.88,7.69,23.74c4.16,8.53,10.38,15.32,18.32,20.08
			c13.69,8.82,29.96,12.38,46.23,12.36c25.44-0.23,50.57-8.05,72.74-20.95c2.94,0.9,5.86,1.89,8.77,2.95
			c-19.44-7.12-39.59-10.62-60.39-10.64c0.01,0.24,0.02,0.48,0.03,0.72c-1.52-0.22-3.05-0.45-4.57-0.66
			c-0.95,0.02-1.9,0.03-2.85,0.07c0.02-0.15,0.04-0.3,0.06-0.45c-3.37-0.43-6.74-0.78-10.13-0.91c-3.66-0.14-7.31-0.16-10.96-0.19
			c-6.58-3.77-13.44-6.74-20.59-8.91c-1.39-2.66-4.64-4.73-7.68-6.16c-8.96-4.22-17.78-7.87-20.68-19.25
			c-1.61-6.3-10.1-3.64-14.32-6.91c-2.91-2.25-5.9-4.34-8.95-6.31c2.35,1.52,4.66,3.11,6.93,4.79
			C1521.89,1319.55,1521.98,1325.06,1522.41,1330.62z"/>
		<path class="st0" d="M1521.85,1106.2c-14.4-37.51-49.66-63.14-88.92-64.6c0,0,0,0,0,0c0.12,2.17,0.21,4.34,0.28,6.51
			c1.11,35.69,14.08,64.77,45.37,85.36c19.42,12.78,36.21,28.07,48.53,46.77c0,0,0,0,0,0
			C1530.88,1155.38,1531.16,1129.76,1521.85,1106.2z"/>
	</g>
</g>
<g id="Слой_6">
	<path class="st0" d="M967.04,1033.52c2.45,1.36,4.65,2.57,6.84,3.8c7.74,4.34,15.47,8.7,23.49,12.55
		c15.29,7.34,31.25,12.96,47.68,17.38c9.27,2.5,18.66,4.46,28.24,5.41c6.44,0.64,12.9,0.82,19.3-0.54c2.23-0.48,4.26-1.48,6.37-2.26
		c2.78-1.03,5.53-2.19,8.49-2.7c1.21-0.21,2.79-0.7,3.45,0.66c0.65,1.35-0.87,2.05-1.77,2.72c-4.18,3.13-8.99,5.21-13.75,7.35
		c-3.51,1.58-7.15,2.82-10.77,4.14c-4.8,1.75-9.58,1.06-14.4,0.38c-14.61-2.04-28.43-6.62-41.93-12.2
		c-14.7-6.08-28.85-13.2-42.44-21.34c-6.45-3.86-12.53-8.21-17.72-13.61C967.7,1034.84,967.14,1034.52,967.04,1033.52z"/>
	<path class="st0" d="M1311.15,1037.28c-0.82,0.72-1.51,1.35-2.23,1.94c-11.79,9.6-24.31,18.38-38.22,25.57
		c-9.22,4.76-18.78,8.98-29.18,11.6c-8.76,2.21-17.78,2.85-27,2.48c-10.4-0.42-20.37-2.84-30.37-5.26c-5.38-1.3-10.7-2.8-15.92-4.59
		c-0.88-0.3-1.74-0.67-2.59-1.06c-0.4-0.18-0.96-0.39-0.86-0.89c0.1-0.5,0.69-0.51,1.14-0.5c1.93,0.08,3.86,0.13,5.78,0.33
		c8.22,0.83,16.43,1.82,24.66,2.54c12.97,1.12,25.95,1.87,38.9,0.7c8.86-0.8,16.81-3.7,24.59-7.05
		c17.26-7.42,33.52-16.29,49.67-25.33C1309.94,1037.54,1310.27,1037.14,1311.15,1037.28z"/>
</g>
</svg>
