<svg width="121" height="99" viewBox="0 0 121 99" fill="none" xmlns="http://www.w3.org/2000/svg">
<path d="M53.173 59.4641L40.1982 30.8951L70.0425 33.0075L53.173 59.4641Z" fill="#FF0000"/>
<path d="M5.28626 21.5103L1.29652 21.224L0.723997 29.2035L4.71374 29.4897L5.28626 21.5103ZM116.214 37.4897L120.203 37.776L120.776 29.7965L116.786 29.5103L116.214 37.4897ZM43.2955 13.5109C41.0924 13.3477 39.1741 15.0014 39.0109 17.2045C38.8477 19.4076 40.5014 21.3259 42.7045 21.4891L43.2955 13.5109ZM69.7045 23.4891C71.9076 23.6523 73.8259 21.9986 73.9891 19.7955C74.1523 17.5924 72.4986 15.6741 70.2955 15.5109L69.7045 23.4891ZM85.2235 43.3683C86.5315 41.588 86.1486 39.0845 84.3683 37.7765C82.588 36.4685 80.0845 36.8514 78.7765 38.6317L85.2235 43.3683ZM60.7765 63.1317C59.4685 64.912 59.8514 67.4155 61.6317 68.7235C63.412 70.0315 65.9155 69.6486 67.2235 67.8683L60.7765 63.1317ZM32.6363 36.8334C31.7158 34.8251 29.3416 33.9433 27.3334 34.8637C25.3251 35.7842 24.4433 38.1584 25.3637 40.1666L32.6363 36.8334ZM36.3637 64.1666C37.2842 66.1749 39.6584 67.0567 41.6666 66.1363C43.6749 65.2158 44.5567 62.8416 43.6363 60.8334L36.3637 64.1666ZM30.6587 5.88334L29.0421 2.2246L21.7246 5.45791L23.3413 9.11666L30.6587 5.88334ZM61.3413 95.1167L62.9579 98.7754L70.2754 95.5421L68.6587 91.8833L61.3413 95.1167ZM29.7813 85.6252L27.4065 88.8439L33.8439 93.5935L36.2187 90.3748L29.7813 85.6252ZM96.7187 8.3748L99.0935 5.15606L92.6561 0.406453L90.2813 3.6252L96.7187 8.3748ZM4.71374 29.4897L116.214 37.4897L116.786 29.5103L5.28626 21.5103L4.71374 29.4897ZM23.3413 9.11666L61.3413 95.1167L68.6587 91.8833L30.6587 5.88334L23.3413 9.11666ZM36.2187 90.3748L96.7187 8.3748L90.2813 3.6252L29.7813 85.6252L36.2187 90.3748ZM78.7765 38.6317L69.7765 50.8817L76.2235 55.6183L85.2235 43.3683L78.7765 38.6317ZM69.7765 50.8817L60.7765 63.1317L67.2235 67.8683L76.2235 55.6183L69.7765 50.8817ZM42.7045 21.4891L56.2045 22.4891L56.7955 14.5109L43.2955 13.5109L42.7045 21.4891ZM56.2045 22.4891L69.7045 23.4891L70.2955 15.5109L56.7955 14.5109L56.2045 22.4891ZM25.3637 40.1666L30.8637 52.1666L38.1363 48.8334L32.6363 36.8334L25.3637 40.1666ZM30.8637 52.1666L36.3637 64.1666L43.6363 60.8334L38.1363 48.8334L30.8637 52.1666Z" fill="#FF0000"/>
</svg>
