<?xml version="1.0" encoding="UTF-8"?>
<!DOCTYPE svg PUBLIC "-//W3C//DTD SVG 1.1//EN" "http://www.w3.org/Graphics/SVG/1.1/DTD/svg11.dtd">
<!-- Creator: CorelDRAW -->
<svg xmlns="http://www.w3.org/2000/svg" xml:space="preserve" width="171.386mm" height="193.474mm" version="1.1" style="shape-rendering:geometricPrecision; text-rendering:geometricPrecision; image-rendering:optimizeQuality; fill-rule:evenodd; clip-rule:evenodd"
viewBox="0 0 17138.6 19347.4"
 xmlns:xlink="http://www.w3.org/1999/xlink"
 xmlns:xodm="http://www.corel.com/coreldraw/odm/2003">
 <defs>
  <style type="text/css">
   <![CDATA[
    .str0 {stroke:#2AF1F8;stroke-width:20;stroke-miterlimit:22.9256}
    .str1 {stroke:#2AF1F8;stroke-width:7.62;stroke-miterlimit:22.9256}
    .fil2 {fill:black}
    .fil3 {fill:#000330}
    .fil0 {fill:#001773}
    .fil1 {fill:#2AF1F8}
   ]]>
  </style>
 </defs>
 <g id="Слой_x0020_1">
  <metadata id="CorelCorpID_0Corel-Layer"/>
  <path class="fil0" d="M11010.65 14326.72c46.24,77.31 164.75,149.16 259.5,202.91 110.99,62.97 188.32,117.52 283.54,190.44 259.71,198.9 407.01,125.79 747.69,65.97 533.56,-93.7 1067.77,-183.13 1594.27,-281.61 18.21,-25.86 38.3,-29.52 69.03,-36.77 30.75,-7.25 58.95,-13.5 88.15,-21.36 557.69,-150.16 1191.31,-398.47 1424.76,-963.78 151.27,-366.29 42.82,-596.27 57.37,-756.07 -1.4,-49.81 -486.93,-1518.67 -545.58,-1694.83l-184.26 -567.03c-80.99,6.65 -202.81,-31.84 -374.8,-38.38 -429.71,-16.34 -550.88,-287.92 -1021.26,-61.76 -246.92,118.72 -266.72,209.86 -392.66,453.88 -142.78,276.68 -490.25,809.22 -704.18,980.7 -399.34,320.09 -626.96,373.58 -1126.68,558.03 -210.48,77.69 -411.07,186.12 -584.6,252.79 12.27,40.43 82.64,124.51 110.92,166.66 114.66,170.94 172.41,370.9 215.63,579.6 89.77,433.51 32.24,450.18 61.82,746.68 9.03,90.55 32.45,130.83 21.34,223.93z"/>
  <path class="fil0" d="M3233.89 12554.33c159.44,42.47 345.1,84.73 517.09,106.49 -32.23,-1.06 -98.42,14.03 -140.57,16.54 -51.94,3.1 -104.24,2.88 -156.07,3.97 -21.72,23.03 -37.85,20.92 -72.13,21.5 -98.93,1.65 -210.39,-10.99 -233.46,49.77 -122.97,323.94 -120.71,589.54 -19.37,918.13 56.8,184.17 154.81,346.22 246.73,489.69 48.46,75.63 95.17,145.42 150.12,213.66 38.2,47.45 148.61,155.72 160.96,209.91l2474.09 435.76 43.24 2.53c-21.1,-476.57 116.4,-713.77 328.49,-1001.44 280.27,-380.13 308.96,-477.54 429,-892.88 -19.63,-52.29 -94.29,-165.12 -125.3,-218.6l-380.59 -644.2c-56.41,-94.78 -485.89,-839.57 -508.21,-855.29 -300.26,-47.83 -173.41,-37.21 -483.43,-29.76 -164.7,3.96 -326.68,10.76 -491.41,6.94 -351.77,-8.15 -494.6,-96.5 -922.4,-10.15 -302,60.95 -471.02,191.14 -590.84,408.68 -63,114.37 -82.83,246.94 -115.84,382.5 -16.7,68.6 -35.6,135.15 -55.48,199.77 -15.12,49.16 -61.48,139.29 -54.63,186.48l0.01 0z"/>
  <path class="fil1" d="M5980.96 6900.6c-446.36,-11.11 -991.65,1.85 -1456.27,2.87 -123.41,0.28 -363.14,-12.27 -470.28,7.04 169.8,296.32 352.53,294.1 673.6,318.78 164.31,12.64 264.59,49.45 374.93,123.85 228.38,154.01 337.77,454.37 154.02,658.75 -76.51,85.1 -160.9,168.05 -245.87,245.15 -83.91,76.12 -186.62,140.59 -231.55,268.06 -36.65,103.95 -42.71,82.53 8.86,167.31l1191.49 2034.4c119.12,205.99 247.03,411.95 365.13,624.79 148.09,21.14 163.2,18.05 283.07,89.71 201.61,120.54 211.57,272.62 295.08,433.67 167.8,323.56 280.64,287.02 277.22,823.59 -0.65,101.8 -33.01,55.06 15.11,136.9l134.32 229.86c16.71,28.05 45.73,89.25 70.47,109.31 1.31,-2.09 2.48,-4.95 3.13,-6.68 49.77,-132.09 -42.08,-327.11 77.47,-406.34 115.59,-76.61 271.11,7.52 351.64,71.62 215.24,171.32 -1.4,553.46 52.24,812.36 38.56,186.15 246.99,461.58 357.51,615.29 298.8,415.55 221.48,615.16 258.68,705.11 86.04,35.51 150.18,-30.3 178.48,-74.31 50.38,-78.33 32.02,-105.39 -2.1,-193.53 -50.45,-130.3 -118.42,-232.45 -187.5,-337.77 -127.24,-193.97 -286.41,-441.45 -320.05,-729.67 -39.99,-342.54 241.41,-747.38 -372.07,-1126.85 -73.6,-45.52 -322.02,-159.27 -344.91,-176.58 148.07,3.08 563.37,128.48 695.8,223.74 250.55,180.23 230.52,424.99 195.68,685.14 -57.83,431.78 190.04,576.69 401.18,953.4l161.88 292.48c30.44,-11.47 128.78,-162.59 140.73,-204.88 37.55,-132.92 -330.83,-369.18 -209.46,-782.82 60.9,-207.54 182.65,-221.09 394.95,-292.5 201.84,-67.89 266.08,-180.31 527.78,-141.26 32.84,-54.85 488.92,-822.72 497.61,-866.17 -215.2,2.86 -404.31,108.3 -531.25,206.65 -48.64,37.68 -291.44,309 -346.62,373.01 -46.97,54.49 -125.2,126.77 -205.43,159.14 -136.3,54.99 -194.19,-1.47 -254.66,-70.82 -299.76,-343.8 -498.13,-417.28 -779.83,-667.97 -283.36,-252.15 -219.59,-164.52 -185.04,-470.15 25.46,-225.28 43.98,-440.9 64.75,-668.89 50.84,-557.78 39.91,-1474.56 252.05,-1912.1 81.99,-169.1 220.02,-303.11 327.89,-400.75 124.51,-112.69 228.48,-209.72 428.3,-291.96 306.4,-126.11 773.4,-317.39 925.24,-521.86 49.91,-67.21 90.04,-152.63 140.34,-223.72 166.49,-235.3 107.85,-221.49 140.22,-400.58l81.49 -275.68c13.47,-36.49 39.66,-91.82 47.84,-131.06l-524.69 1.26c-24.16,140.15 5.67,209.9 -50.9,347.53 -39.2,95.38 -95.3,165.49 -145.5,243.91 -105.26,164.44 -209.99,318.56 -357.2,421.9 -76.48,53.69 -163.46,90.58 -248.34,140.99 -83.61,49.66 -169.91,83.89 -258.61,131.18 -366.26,195.28 -622.78,371.73 -823.27,733.82 -431.73,779.72 -57.02,968.74 -446.41,1501.34 -116.8,159.75 -218.75,346.01 -456.17,333.75 -138.28,-7.13 -238.25,19.39 -341.61,-50.25 -83.57,-56.3 -130.6,-111.93 -226.79,-162.45 -86.19,-45.27 -167.37,-78.72 -260.28,-129.2 -266.39,-144.74 -214.7,-300.26 -275.54,-503.49 -28.96,-96.72 -83.91,-198.19 -101.98,-286.97 -46.16,-226.74 29.48,-863.74 77.69,-1064.63 117.86,-491.18 482.62,-679.29 320.81,-1164.05 -50.24,-150.51 -114.13,-252.77 -211.68,-371.84 -97.5,-118.99 -44.89,-70.15 -72.82,-119.88z"/>
  <path class="fil0" d="M10874.16 3638.92c-20.28,-39.29 -78.84,-99.23 -109.82,-135.24 -41.86,-48.68 -72.54,-84.84 -113.86,-131.68 -38.2,-43.3 -72.52,-83.4 -113.62,-131.91 -38.04,-44.92 -75.47,-84.87 -113.72,-131.77 -73.91,-90.63 -151.06,-174.76 -227.23,-263.88 -78.34,-91.67 -150.71,-178.85 -231.52,-268.03l-1018.98 -1199.03c-42.7,-54.48 -73.77,-81.52 -119.4,-126.32 -60.53,-59.45 -199.54,-188.97 -336.87,-133.01 -153.52,62.56 -281.31,227.82 -379.91,356.49l-342.63 402.55c-244.46,276.75 -502.84,597.73 -740.51,859.62 -32.49,35.8 -35.1,33.2 -21.76,90.2 15.7,67.06 30.57,129.82 49.73,196.81 105.72,369.54 416.81,691.9 301.95,1134.91 -26.35,101.61 -22.69,94.4 19.97,185.08 72.12,153.32 192.33,317.99 318.17,418.31 210.64,167.91 375.88,229.13 705.75,284.9 601.47,101.68 808.31,-60.36 1340.23,-75.39 109.37,-3.08 594.17,12.93 673.02,-66.9 94.49,-95.66 153.37,-422.53 177.28,-559.29 31.2,-178.43 185.83,-566.12 283.73,-706.42z"/>
  <path class="fil2" d="M9711.29 13172.68c-10.15,39.05 -102.73,181.58 -130.44,230.14 -44.68,78.26 -88.76,151.41 -133.98,229.92 -88.53,153.7 -187.44,307.29 -270.74,460.5l-33.63 53.93c-58.27,-128.4 -140.84,-195.16 -182.03,-322.83 -39.33,-121.91 -29.45,-314.06 45.31,-404.25 55.8,-67.32 251.54,-108.11 350.23,-148.54 127.76,-52.35 213.51,-136.12 370.81,-119.27 -11.53,35.06 -2.59,7.65 -15.53,20.4zm-1311.01 1665.1c-191.3,-281.41 -374.41,-617.32 -549.6,-918.55 -38.02,-65.38 -324.46,-523.54 -343.72,-573.59 -13.95,-36.23 11.47,-113.67 16.75,-160 6.52,-57.35 10.06,-114.42 14.44,-174.15 3.67,-50.04 -14.58,-141.69 20.25,-167.1 68.35,-49.85 224.41,56.9 254.14,88.15 56.17,59.03 31.81,235.88 18.09,330.06 -37.38,256.59 -71.2,401.15 55.89,619.87 156.56,269.45 521.03,676.1 513.76,955.31zm-1986.44 -3375.65c115.2,9.72 236.7,112.04 282.35,173.73 70.63,95.45 106.25,263.27 238.95,455.16 106.22,153.62 187.43,308.96 161.64,537.53 -62.57,-86.47 -505.9,-855.65 -597.58,-1015.49 -27.72,-48.33 -58.02,-103.76 -85.36,-150.93zm5131.53 -1421.13c-3.3,28.15 -524.61,903.17 -593.17,1024.86 -143.51,254.72 -310.91,517.67 -451.76,767.24 -49.08,86.97 -106.9,174.58 -152.5,262.55 -392.6,7.86 -383.06,93.29 -531.61,132.07 -55.91,-61.89 -548.88,-1026.46 -577.98,-1084.49 -44.55,-88.85 -96.92,-175.75 -146.06,-269.22 -119.07,-226.45 -253,-439.64 -359.92,-672.64 -22.21,-48.42 -42.38,-110.88 -77.12,-136.67 12.76,88.66 74.57,211.94 101.08,306.98 67.95,243.62 133.96,359.23 252.82,567.4 50.41,88.27 101.67,177.14 144.2,270.21 80.71,176.62 190.44,356.75 282.9,538.33 59.69,117.24 220.72,447.63 291.37,535.75 -97.67,89.42 -67.88,50.97 -169.82,164.87 -59.48,66.45 -272.85,309.8 -327.55,349.62 -104.22,75.86 -141.26,73.92 -222.12,-11.01 -402.16,-422.42 -321.04,-282.12 -732.15,-627.35l-177.46 -156.51c-73.23,-67.9 -47.05,-67.02 -23.58,-256.33 78.28,-631.35 89.79,-1256.07 147.9,-1869.24 91.27,2.4 289.15,-43.73 392.08,-58.7 144.86,-21.07 272.97,-22.63 420.44,-33.32 305.06,-22.13 579.88,-13.41 882.22,-8.65 288.03,4.54 594.24,2.29 877.7,29.33 284.31,27.13 552.67,58.81 847.55,68.48 -5.39,25.37 -46.3,85.76 -65.72,121.8 -14.12,26.19 -7.64,24.26 -31.74,44.64zm-5559.97 -392.72l-18.92 -41.6c-3.66,-15.2 -5.72,-32.54 -7.12,-49.76 -3.39,-41.69 -6.52,-85.64 -1.31,-126.82 208.66,-160.24 310.74,-228.23 544.34,-367.57 61.4,-36.63 89.15,2.15 149.02,35.86 62.38,35.13 420.37,210.91 445.32,247.04 -21.45,19.76 -22.62,21.96 -45.29,34.57 -48.15,56.78 -383.27,271.44 -437.6,457.13l190.45 -158.88c93.84,-69.53 572.33,-369.97 593.66,-454.28 -211.36,428.4 -514.06,662.7 -668.01,1099.37 -15.74,44.65 -42.41,180.88 -54.72,205.05 -91.95,-47.99 -86.08,-62.77 -250.13,-137.38 -341.12,-155.14 -287.56,-214.7 -341.77,-446.61 -18.75,-80.18 -93.86,-250.24 -97.92,-296.12zm-29.96 -345.96c-5.24,-81.66 20.99,-241.6 30.48,-330.33 12.79,-119.49 25.81,-218.15 45.29,-322.03 69.97,61.44 16.17,58.5 192.4,173.9 41.35,27.08 71.18,49.55 108.54,77.6 18.57,13.94 94.38,58.24 104.17,79.91 -49.82,31.8 -77.96,45.48 -118.25,74.79l-244.58 161.95c-31.17,22.98 -89.27,73.65 -118.05,84.21zm2705.21 399.49c-30.39,14.89 -377.01,60.98 -422.47,54.48 15.56,-150.91 66.66,-374.74 117.97,-507.43 88.58,-229.01 439.55,-569.81 628.06,-659.13 309.8,-146.8 811.15,-306.92 1038.41,-562.04l254.8 -388.81c115.21,-198.72 13.41,-326.25 223.32,-739.73 216.25,-7.22 436.43,-5.11 653.33,-2.93l491.06 1.89c53.8,0.23 136.6,-8.15 162.55,12.89 30.53,102.38 114.14,169.87 189.34,236.83 26.03,23.17 53.41,36.14 51.13,87.44 -6.33,142.28 -110.57,344.48 -46.71,491.82 49.14,113.38 193.41,217.09 270.11,306.04 84.79,98.34 188.5,209.48 264.28,321.71 -7.57,32 -631.94,1085.06 -696.71,1193.27 -30.18,50.41 -66.59,124 -100.85,168.33 -246.76,-15.5 -500.13,-31.14 -747.81,-44.92 -298.78,-16.61 -1680.11,-27.89 -1966.25,-1.06 -102.05,9.57 -270.51,32.79 -363.56,31.35zm-735.98 -1785.81c6.08,51.45 44.57,309.62 61.47,335.04 28,-53.96 12.87,-168.3 15.77,-236.34 -10.64,-26.94 -11.49,-73.46 -13.96,-109.64 128.48,31.06 415.82,274.02 442.7,384.91 -49.45,24.1 -74.46,50.38 -112.27,78.04 -378.81,257.3 -620.5,777.48 -673.77,1251.54 -46.89,417.37 10.3,453.17 -209.01,757.33 -71.4,99.03 -127.99,195.86 -231.04,251.09 -76.72,41.11 -133.53,21.72 -224.55,21.77 -94.78,0.05 -142.67,7.36 -200.97,-42.77 -4.8,-441 487.96,-871.35 712.06,-1334.73 54.7,-113.1 149.9,-480.33 106.98,-562.9 -31.01,13.48 -31.32,41.34 -45.23,74.52 -69.63,166.22 -223.65,399.85 -361.17,491.46l-210.47 -117.69c-66.93,-35.8 -162.11,-79.09 -217.79,-115.36 -34.41,-13.35 -78.31,-39.82 -111.32,-60.9 33.39,-49.44 509.95,-283.82 554.79,-306.24 130.76,-65.37 156.51,-84.34 171.99,-260.8 10.3,-117.32 9.32,-172.47 44.85,-284.22l31.89 -82.83 35.3 -118.47c-86.92,55.13 -153.24,207.37 -191,331.02 -23.02,75.37 -15.68,151.84 -32.96,228.44 -15.85,70.27 -92.98,90.82 -147.05,116.13 -120.54,56.44 -227.41,114.66 -344.66,180.4 -318.67,178.67 -172.57,164.91 -487.44,-42.75 -55.39,-36.53 -106.87,-67.57 -144.23,-117.92 -89.92,-121.22 0.25,-301.15 82.42,-388.35 70.19,-74.49 202.91,-156.04 211.61,-313.23 4.7,-84.8 -35.97,-147.8 -35.49,-227.76 0.26,-43.4 4.18,-82.91 1.64,-127.46 -2.43,-42.38 -13.58,-77.13 -13.45,-119.17 -21.99,-27.44 -27.8,-86.21 -41.27,-121.88 -14.54,-38.51 -40.75,-86.54 -49.13,-126.09 342.09,-72.83 712.75,-110.83 1062.08,-155.15 79.78,-10.12 307.07,-48.54 370.06,-45.25 47.03,311.96 138.35,596.14 192.62,916.21zm-3338.91 440.4c-16.8,-64.22 -542.5,-905.32 -584.52,-1017.49 -25.99,-18.61 -100.57,-158.17 -120.7,-194.2 -27.58,-49.41 -101.52,-182.85 -16.25,-216.75 59.78,36.03 132.32,361.44 472.57,411.34 311.95,45.75 514.12,-99.4 749.44,123.88 78.31,74.31 136.92,127.51 160.7,276.86 23.46,147.37 -83.63,226.17 -144.14,287.06 -150.26,151.21 -330.88,272.82 -402.91,426.68l-18.87 34.32c-0.84,1.26 -2.55,3.71 -3.99,5.44 -8.31,-7.14 -85.78,-125.81 -91.33,-137.14zm3935.19 -133.44c-52.9,-48.26 -129.31,-234.71 -465.3,-401.39 -15.62,-7.75 -28.76,-13.6 -41.14,-19.03 -27.24,-11.94 -25.48,-5.81 -41.47,-27.63 -16.32,-23.56 -53.5,-344.13 -63.75,-397.71 -20.76,-108.52 -74.32,-298.11 -70.73,-397.85 135.02,-12.04 293.58,-49.68 423.64,-74.09 132.82,-24.94 1332.73,-14.66 1490.18,-9.74 8.52,60.22 -6.08,224.89 -24.07,279.22 -45.52,137.52 -302.99,494.93 -387.54,577.53 -147.14,143.73 -445.13,260.21 -610.4,354.31 -45.53,25.92 -170.19,104.22 -209.42,116.38zm-4466.54 -1312.45c107.14,-19.31 346.87,-6.76 470.28,-7.04 464.62,-1.02 1009.91,-13.98 1456.27,-2.87 27.93,49.73 -24.68,0.89 72.82,119.88 97.55,119.07 161.44,221.33 211.68,371.84 161.81,484.76 -202.95,672.87 -320.81,1164.05 -48.21,200.89 -123.85,837.89 -77.69,1064.63 18.07,88.78 73.02,190.25 101.98,286.97 60.84,203.23 9.15,358.75 275.54,503.49 92.91,50.48 174.09,83.93 260.28,129.2 96.19,50.52 143.22,106.15 226.79,162.45 103.36,69.64 203.33,43.12 341.61,50.25 237.42,12.26 339.37,-174 456.17,-333.75 389.39,-532.6 14.68,-721.62 446.41,-1501.34 200.49,-362.09 457.01,-538.54 823.27,-733.82 88.7,-47.29 175,-81.52 258.61,-131.18 84.88,-50.41 171.86,-87.3 248.34,-140.99 147.21,-103.34 251.94,-257.46 357.2,-421.9 50.2,-78.42 106.3,-148.53 145.5,-243.91 56.57,-137.63 26.74,-207.38 50.9,-347.53l524.69 -1.26c-8.18,39.24 -34.37,94.57 -47.84,131.06l-81.49 275.68c-32.37,179.09 26.27,165.28 -140.22,400.58 -50.3,71.09 -90.43,156.51 -140.34,223.72 -151.84,204.47 -618.84,395.75 -925.24,521.86 -199.82,82.24 -303.79,179.27 -428.3,291.96 -107.87,97.64 -245.9,231.65 -327.89,400.75 -212.14,437.54 -201.21,1354.32 -252.05,1912.1 -20.77,227.99 -39.29,443.61 -64.75,668.89 -34.55,305.63 -98.32,218 185.04,470.15 281.7,250.69 480.07,324.17 779.83,667.97 60.47,69.35 118.36,125.81 254.66,70.82 80.23,-32.37 158.46,-104.65 205.43,-159.14 55.18,-64.01 297.98,-335.33 346.62,-373.01 126.94,-98.35 316.05,-203.79 531.25,-206.65 -8.69,43.45 -464.77,811.32 -497.61,866.17 -261.7,-39.05 -325.94,73.37 -527.78,141.26 -212.3,71.41 -334.05,84.96 -394.95,292.5 -121.37,413.64 247.01,649.9 209.46,782.82 -11.95,42.29 -110.29,193.41 -140.73,204.88l-161.88 -292.48c-211.14,-376.71 -459.01,-521.62 -401.18,-953.4 34.84,-260.15 54.87,-504.91 -195.68,-685.14 -132.43,-95.26 -547.73,-220.66 -695.8,-223.74 22.89,17.31 271.31,131.06 344.91,176.58 613.48,379.47 332.08,784.31 372.07,1126.85 33.64,288.22 192.81,535.7 320.05,729.67 69.08,105.32 137.05,207.47 187.5,337.77 34.12,88.14 52.48,115.2 2.1,193.53 -28.3,44.01 -92.44,109.82 -178.48,74.31 -37.2,-89.95 40.12,-289.56 -258.68,-705.11 -110.52,-153.71 -318.95,-429.14 -357.51,-615.29 -53.64,-258.9 163,-641.04 -52.24,-812.36 -80.53,-64.1 -236.05,-148.23 -351.64,-71.62 -119.55,79.23 -27.7,274.25 -77.47,406.34 -0.65,1.73 -1.82,4.59 -3.13,6.68 -24.74,-20.06 -53.76,-81.26 -70.47,-109.31l-134.32 -229.86c-48.12,-81.84 -15.76,-35.1 -15.11,-136.9 3.42,-536.57 -109.42,-500.03 -277.22,-823.59 -83.51,-161.05 -93.47,-313.13 -295.08,-433.67 -119.87,-71.66 -134.98,-68.57 -283.07,-89.71 -118.1,-212.84 -246.01,-418.8 -365.13,-624.79l-1191.49 -2034.4c-51.57,-84.78 -45.51,-63.36 -8.86,-167.31 44.93,-127.47 147.64,-191.94 231.55,-268.06 84.97,-77.1 169.36,-160.05 245.87,-245.15 183.75,-204.38 74.36,-504.74 -154.02,-658.75 -110.34,-74.4 -210.62,-111.21 -374.93,-123.85 -321.07,-24.68 -503.8,-22.46 -673.6,-318.78zm8189.15 -5.49c251.79,-7.37 512.42,-1.34 765.03,-0.32 58.69,0.24 109.12,6.01 169.09,9.5 63.63,3.7 123.82,2.48 125.83,68.98 2.32,76.48 -85.58,214.34 -118.99,269.44 -97.44,160.71 -195.04,326.43 -284.98,485.57 -86.14,152.42 -193.68,343.75 -289.22,484.82 -101.32,-104.86 -344.76,-386.74 -314.28,-617.39 16.53,-125.13 257.56,-476.28 -52.48,-700.6zm-330.6 -1.07l180.9 -1.64c60.05,89.48 94.06,69.26 159.73,158.23 118.04,159.93 -33.95,386.57 -55.25,500.73 -24.5,131.31 7.63,181.46 29.07,284.22 -41.45,-31.66 -137.2,-137.4 -143.77,-201.61 -8.52,-83.32 30.84,-222.25 47.71,-302.26 42.48,-201.46 10.1,-199.79 -147.53,-341.52 -51.27,-46.09 -49.36,-66.81 -70.86,-96.15zm-5669.54 199.1l-152.27 -202.55 1556.38 0.24c-63.36,17.12 -871.61,117.14 -1051.35,146.51 -79.77,13.04 -285.86,57.43 -352.76,55.8zm-2514.56 -69c21.54,111.82 138.02,279.56 191.64,375.4 190.98,341.39 424.79,730.59 621.77,1063.24 279.26,471.57 551.7,943.87 828.79,1414.74l1867.27 3187.3c68.38,117.29 128.35,226.97 203.97,355.01 145.17,245.8 273.53,459.92 418.87,707.31 139.02,236.65 274.42,465.11 421.15,704.74 60.77,99.24 150.48,263.02 320.13,232.52 135.95,-24.45 211.62,-179.24 274.98,-283.86 145.68,-240.56 278.58,-462.43 420.93,-705.4 139.29,-237.73 277.96,-467.64 414.59,-702.86 274.73,-472.96 563.36,-951.32 827.15,-1416.58 134.94,-238.01 278.29,-470.58 415.64,-710.35 403.64,-704.65 848.58,-1423.08 1244.76,-2124.93 197.07,-349.12 434.07,-719.98 622.71,-1062.2 67.3,-122.09 140.83,-233.93 206.22,-352.48 66.53,-120.6 135.87,-234.02 206.62,-360.83 54.23,-97.21 177.13,-245.89 168.31,-388.74 -10.53,-170.43 -232.52,-159.22 -395.64,-162.02 -184.96,-3.17 -373.86,-0.67 -559.24,-0.73 -1492.23,-0.53 -2983.9,-9.86 -4470.38,-9.87 -744.97,-0.01 -1492.22,4.97 -2235.2,7.18 -375.32,1.12 -750.75,2.46 -1126.06,2.68 -178.27,0.1 -382.84,-7.81 -558.03,3.43 -171.41,10.99 -374.61,0.65 -330.94,227.29l-0.01 0.01z"/>
  <path class="fil0" d="M5590.06 16746.65c277.03,110.16 523.11,201.81 833.01,259.76 739.53,138.29 1641.92,91.02 1858.24,-747.14 57.53,-222.93 44.32,-288.5 76.32,-471.25 -45.36,-113.19 -420.9,-141.17 -573.74,-169.63 -1064.47,-198.23 -2125.97,-379.74 -3187.71,-577.35 -151.59,-28.21 -1224.38,-231.5 -1282.21,-225.95 -50.23,133.19 -30.39,164.97 -149.38,231.6 -82.72,46.32 -201.38,79.41 -248.38,140.73 41.88,35.07 600.41,352.98 665.84,392 257.25,153.42 1983.4,1167.21 2008.02,1167.23l-0.01 0z"/>
  <path class="fil0" d="M8660.65 9701.81c93.05,1.44 261.51,-21.78 363.56,-31.35 286.14,-26.83 1667.47,-15.55 1966.25,1.06 247.68,13.78 501.05,29.42 747.81,44.92 34.26,-44.33 70.67,-117.92 100.85,-168.33 64.77,-108.21 689.14,-1161.27 696.71,-1193.27 -75.78,-112.23 -179.49,-223.37 -264.28,-321.71 -76.7,-88.95 -220.97,-192.66 -270.11,-306.04 -63.86,-147.34 40.38,-349.54 46.71,-491.82 2.28,-51.3 -25.1,-64.27 -51.13,-87.44 -75.2,-66.96 -158.81,-134.45 -189.34,-236.83l-1110.81 -7.92c-23.96,11.28 -10.98,1.45 -23.15,24.96l-58.21 202.21c-20.94,82.12 -41.6,160.86 -63.18,242.05 -40.71,153.15 -88.24,323.6 -146.52,462.48 -288.18,686.72 -709.39,620.77 -1303.13,1135.74 -131.54,114.09 -444.85,583.63 -482.52,733.1l40.49 -1.81z"/>
  <path class="fil0" d="M1118.65 10025.83c52.14,40.97 243.53,66.93 323.9,72.74 222.53,16.08 480.67,-18.82 678.64,-117.54 29.66,-14.79 27.22,-22.96 39.51,-61.53 211.34,-663.55 449.4,-1349.94 669.98,-2014.06 66.53,-200.3 138.47,-394.32 192.12,-603.46 123.97,-483.23 14.59,-518.31 -356.08,-746.64l-1219.18 -761.99c-282.27,-176.98 -348.54,-60.37 -346.12,275.49l10.62 2379.14c4.18,521.81 -9.48,1058.39 6.61,1577.85z"/>
  <path class="fil0" d="M8275.99 12159.5c411.11,345.23 329.99,204.93 732.15,627.35 80.86,84.93 117.9,86.87 222.12,11.01 54.7,-39.82 268.07,-283.17 327.55,-349.62 101.94,-113.9 72.15,-75.45 169.82,-164.87 -70.65,-88.12 -231.68,-418.51 -291.37,-535.75 -92.46,-181.58 -202.19,-361.71 -282.9,-538.33 -42.53,-93.07 -93.79,-181.94 -144.2,-270.21 -118.86,-208.17 -184.87,-323.78 -252.82,-567.4 -26.51,-95.04 -88.32,-218.32 -101.08,-306.98 34.74,25.79 54.91,88.25 77.12,136.67 106.92,233 240.85,446.19 359.92,672.64 49.14,93.47 101.51,180.37 146.06,269.22 29.1,58.03 522.07,1022.6 577.98,1084.49 148.55,-38.78 139.01,-124.21 531.61,-132.07 45.6,-87.97 103.42,-175.58 152.5,-262.55 140.85,-249.57 308.25,-512.52 451.76,-767.24 68.56,-121.69 589.87,-996.71 593.17,-1024.86l-1.85 -16.96c-383.43,-13.21 -395.74,-31.78 -736.93,-68.86 -253.93,-27.6 -491.14,-34.44 -746.11,-43.98 -193.11,-7.22 -1433.15,-36.65 -1529.19,36.07 -37.97,38.36 -58.12,176.76 -73.46,240.48 -63.87,265.29 -101.23,522.51 -125.8,798.05 -17.18,192.71 -16.63,392.41 -33.63,585.31 -15.17,172.16 -43.27,412.39 -22.42,588.39z"/>
  <path class="fil0" d="M15497.46 5913.41c-36.49,10.62 -220.5,128 -261.79,156.4 -204.72,140.84 -538.82,335.24 -759.73,476.26 -169.4,108.13 -395.34,202.78 -417.32,412.04 -20.13,191.59 93.16,506.18 147.71,672.57l617.59 1855.56c33.91,101.7 69.12,205.28 103.67,310.8 18.34,55.99 81.93,268.42 104.2,301.03 65.04,-31.73 91.39,-116.26 206.26,-36.21 77.41,53.95 110.52,71.71 234.2,61.21 193.46,-16.42 318.54,-60.89 537.25,-60.45l14.3 -3350.29 -28.98 -15.22c-38.34,-15.66 -42.86,-13.13 -83.27,-42.93 -316.93,-233.69 -52.94,-508.4 -414.09,-740.76l0 -0.01z"/>
  <path class="fil2" d="M6698.83 4588.4c42.45,-22.01 124.65,-6.61 179.92,-9.32 73.71,-3.62 93.02,-19.33 166.84,1.71 114.74,32.71 164.67,63.44 218.61,145.8 93.1,142.16 134.54,362.79 173.97,555.46 41.63,203.41 217.37,1083.41 229.51,1228.08 -140.55,0.08 -1080.26,11.9 -1129.19,-11.22l-615.83 -0.28c9.45,-119.69 -3.25,-189.93 22.86,-314.08 78.01,-370.92 187.35,-440.41 320.38,-686.06 150.72,-278.33 15.7,-608.71 214.68,-801.14 49.56,-47.93 117.52,-113.59 218.25,-108.95zm-2262.57 1899.75c-91.66,4.83 -356.48,-9.62 -431.63,-43.28 -70.69,-31.66 -70.02,-100.26 -31.07,-165.1 21.23,-35.33 82.14,-105.94 110.87,-127.78l271.08 255.41c30.85,32.54 51.96,57.65 80.75,80.75zm7392.87 8.63l-1103.94 6 -75.63 -0.31c12,-95.47 229.03,-489.74 286.5,-575.52 60.1,-89.72 118.86,-167.36 187.33,-235.87 261.68,-261.85 333.51,-37.56 523.58,80.07 89.15,55.18 187.77,92.93 272.45,150.44 238.34,161.84 45.63,425.82 -45.57,570.51l-44.72 4.68zm464.34 -9.01c68.99,-117.86 208.02,-383.17 159.52,-572.89 -56.66,-221.65 -356.29,-364 81.13,-350.62l291.22 331.83c47.6,54.2 96.98,119.19 145.15,168.22 53.5,54.46 89.2,105.32 143.78,161.03 42.91,43.79 108.59,145.54 34.64,204.21 -96.21,76.33 -720.15,67.88 -855.44,58.22zm-209.36 -1385.27c-18.2,3.27 -30.5,2.26 -48.09,3.59 -85.02,6.42 -151.09,23.63 -253.05,2.19 -104.44,-21.97 -191.84,-65 -254.71,-124.95 -167.77,-159.99 -37.22,-304.92 74.53,-500.76 44.81,49.99 92.14,94.13 134.66,147.79 39.07,49.31 87.77,105.88 129.16,150.38 22.78,24.49 43.19,47.84 67.31,76.44 35.64,42.26 172.53,196.08 190.09,229.54l-39.9 15.78zm-3011.2 314.63l21.67 166.78 33.23 -176.44 36.08 -184.36c166.07,-19.64 292.29,-27.69 466.18,-30.27 170.47,-2.54 315.86,21.28 477.99,17.28 -19.64,38.27 -54.57,60.63 -86.05,107.56 -32.65,48.65 -47.69,97.83 -62.17,118.9 -20.57,78.13 -48.31,136.96 -63.89,228.52 -16.45,96.74 -21.17,175.81 -20.33,276.75 1.35,163.14 20.76,426.07 -27.82,564.2 -163.79,11.39 -355.51,3.27 -522.53,4.6 -471.99,3.77 -1027.56,10.36 -1499.02,0.64l-47.01 -6.12c-1.29,-2.7 -4.65,-1.3 -6.84,-2.31 -18.3,-58.89 -23.41,-135.88 -35.08,-201.27 -11.62,-65.04 -24.56,-128.02 -36.67,-191.67l-227.65 -1140.67c-1.43,-1.94 -2.72,-4.76 -3.46,-6.34l-72.8 -211.19c106.26,74.09 204.27,152.73 325.83,227.59 247.65,152.5 521.56,277.21 823.44,291.6 90.64,4.32 187.44,6.5 274.58,-0.43 102.56,-8.15 213.32,-37.49 239.74,-38.47l12.58 185.12zm2325.47 -1177.08c-64.54,291.34 -338.07,421.9 -462.98,805.77 -56.47,173.53 -102.36,305.48 -171.31,463.67 -170.35,390.84 -608.77,331.56 -206.17,-240.4 90.1,-128.01 177.15,-228.68 254.26,-380.37 112.29,-220.9 124.52,-727.85 341.88,-925 44.03,41.66 83.81,90.4 124.72,134.96 43.58,47.48 79.02,97.33 119.6,141.37zm-6401.42 2254.58l-421.47 -5.76c-58.11,-75.88 -145.37,-149.29 -210.63,-209.43 -34.66,-31.93 -196.01,-186.75 -208.83,-210.59 43.57,-61.06 92.59,-107.19 138.94,-161.99l967.39 -1127.3 202.65 -242.68c14.88,-18.29 13,-12.12 28.85,-29.88l175.68 -205.85c19.06,-24.09 31.09,-31.05 51.12,-59.05 38.14,-53.32 221.74,-244.88 259.52,-290.68 20.27,-24.58 78.7,-103.01 111.12,-112.86 14.74,181.93 -39.57,297.83 -140.35,371.72 -135.25,99.16 -226.98,48.49 -200.99,297.22 22.46,214.95 -74,168.92 -285.78,214.95 -144,31.29 -187.8,176.31 -88.36,308.97 38.65,51.56 94.88,82.89 124.57,129.27 128.08,200.08 -118.88,358.97 -194.37,504.08 -88.19,169.51 -41.67,264.16 -57.72,454.79 -9.41,111.8 -83.73,265.21 -122.44,373.34l-128.9 1.73zm4958.96 10.29c1.47,-63.78 22.3,-132.12 24.22,-207.34 5.96,-234.11 -25.56,-449.48 28.46,-681.15 64.48,-276.47 158.59,-300.53 286.48,-423.5 40.09,-38.54 65.43,-74.77 109.63,-118.93 293.74,-293.57 208.6,-616.51 387.59,-1035.23 46.27,-108.26 104.31,-217.16 146.48,-318.15 34.19,16.78 134.65,135.99 144.33,163.83 -311.51,378.93 -223.97,715.51 -380.18,988.61 -85.94,150.25 -184.38,265.59 -278.31,407.13 -282.47,425.63 -80.52,652.94 169.33,558.79 207.25,-78.09 332.28,-428.41 395.08,-630.31 125.12,-402.28 154.09,-364.53 366.32,-657.36 84.07,-116 97.84,-188.65 120.45,-217.09 104.14,92.91 16.74,91.46 -84.26,313.1 -138.11,303.08 91.68,501.37 354.7,558.39 175.68,38.08 304.83,-4.84 462.72,-29.8 26.66,54.18 205.99,226.96 231.38,281.65 -60.99,6.98 -122.4,6.45 -169.34,34.53 -190.95,114.2 31,325.4 63.59,395.17 91.76,196.41 -93.78,450.96 -156.03,605.35l-176.88 -1.54c16.75,-46.73 61.03,-98.22 84.61,-159.06 184.29,-475.41 -218.66,-523.95 -418.08,-667.24 -64.18,-46.11 -195.52,-183.63 -278.7,-195.74 -122.23,-17.78 -277.37,82.73 -330.54,140.42 -172.64,187.29 -263.31,338.36 -379.4,569.68l-149.25 324.74 -574.4 1.05zm-3228.51 -3411.01c29.75,183.92 76.01,393.63 73.72,587.43 -2.37,201.17 -112.41,446.34 -265.25,308.57 -53.46,-48.17 -70.56,-155.75 -82.94,-247.65 -49.28,-365.88 -55.22,-275.55 118.22,-478.35 30.97,-36.22 120.5,-151.46 156.25,-170zm-1257.59 2514.55c78.58,-96.36 198.7,-213.52 154.52,-409.99 -39.2,-174.33 -259.82,-227.93 -190.39,-345.2 42.9,-72.46 313.41,-15.14 399.77,-167.84 41.45,-73.27 12.03,-166.97 12.45,-251.13 0.3,-58.14 19.4,-61.21 60.47,-81.81 158.91,-79.73 275.69,-192.69 288.21,-416.86 9.42,-168.74 -54.5,-170.51 3.87,-239.9 19.26,-22.9 110.25,-134.51 133.88,-140.12 21.6,186.46 23.22,416.44 141.44,513.22 58.33,47.75 150.46,80 239.2,39.91 68.33,-30.87 114.62,-105.28 142.83,-179.31 102.6,-269.24 7.63,-574.44 -27.67,-842.67 -7.81,-59.35 -24.4,-90.98 0.65,-123.2 20.25,-26.03 54.22,-70.29 85.84,-82.34 70.38,378.66 336.64,735.9 362.86,1003.15 21.73,221.53 -51.9,406.97 -166.53,512.19 -153.42,140.84 -366.32,38.14 -555.26,122 -423.06,187.77 -222.45,690.04 -395.24,959.79 -94.09,146.89 -169.59,247.55 -240.58,436.72 -63.37,168.88 -115.45,372.34 -93.28,583.77l-588.39 -2.94c-4.4,-38.79 56.81,-162.46 72.86,-207.86 113.46,-320.85 -62.96,-407.98 158.49,-679.58zm5404.34 -1969.54c-97.9,140.3 -252.53,527.99 -283.73,706.42 -23.91,136.76 -82.79,463.63 -177.28,559.29 -78.85,79.83 -563.65,63.82 -673.02,66.9 -531.92,15.03 -738.76,177.07 -1340.23,75.39 -329.87,-55.77 -495.11,-116.99 -705.75,-284.9 -125.84,-100.32 -246.05,-264.99 -318.17,-418.31 -42.66,-90.68 -46.32,-83.47 -19.97,-185.08 114.86,-443.01 -196.23,-765.37 -301.95,-1134.91 -19.16,-66.99 -34.03,-129.75 -49.73,-196.81 -13.34,-57 -10.73,-54.4 21.76,-90.2 237.67,-261.89 496.05,-582.87 740.51,-859.62l342.63 -402.55c98.6,-128.67 226.39,-293.93 379.91,-356.49 137.33,-55.96 276.34,73.56 336.87,133.01 45.63,44.8 76.7,71.84 119.4,126.32l1018.98 1199.03c80.81,89.18 153.18,176.36 231.52,268.03 76.17,89.12 153.32,173.25 227.23,263.88 38.25,46.9 75.68,86.85 113.72,131.77 41.1,48.51 75.42,88.61 113.62,131.91 41.32,46.84 72,83 113.86,131.68 30.98,36.01 89.54,95.95 109.82,135.24zm-2334.93 -2635.5c-233.88,44.46 -375.63,257.17 -518.38,425.2 -286.81,337.61 -588.82,671.8 -870.72,1008.84l-649.68 755.83c-73.8,87.64 -145.98,169.27 -219.48,254.65 -74.19,86.18 -142.42,167.38 -215.64,250l-435.28 504.47c-72.64,81.18 -148.3,167.97 -219.72,254.43l-1413.36 1643.1c-35.48,42.19 -72.59,86.08 -106.18,130.87 -92.67,123.59 -36.97,262.79 78.4,309.16 168.03,67.53 670.46,52.61 885.69,53.7 618.59,3.11 1244.27,10.8 1862.67,12.19 625.31,1.41 1258.35,15.5 1879.76,13.55 1242.61,-3.9 2489.95,-21.89 3733.61,-25.99 196.78,-0.65 736.5,13.76 866.11,-73.14 43.26,-29 82.26,-74.42 84.87,-146.43 3.12,-85.71 -31.06,-125.09 -67.89,-172.06 -310.52,-396.09 -751.37,-873.74 -1089.74,-1272.37 -287.71,-338.95 -582.96,-669.85 -869.22,-1010.46 -288.32,-343.06 -580.37,-666.98 -870.81,-1008.75 -288.36,-339.32 -578.94,-672.95 -869.2,-1010.47 -78.18,-90.91 -595.84,-698.56 -659.56,-754.23 -16.15,-14.11 -48.47,-37.41 -67.15,-51.57 -64.4,-48.84 -161.86,-107.11 -249.11,-90.52l0.01 0z"/>
  <path class="fil1" d="M4304.37 10057.67c-108.03,-9.78 -145.33,18.26 -236.22,118.05 -107.33,117.83 -139.25,267.84 -364.81,346.62 -120.07,41.93 -170.58,53.5 -289.34,-6.54 -130.62,-66.03 -208.75,-207.2 -387.61,-332.33 -183.15,-128.13 -285.24,-161.58 -565.66,-132.81 -13.18,31.69 -68.31,190.76 -67.09,221.99 73.42,4.03 330.01,68.44 313.78,142.17 -61.43,6.71 -358.15,11.77 -389.01,68.04l-189.71 582.48c-13.91,42.39 -74.46,199.58 -65.22,232.14 3.88,13.67 69.95,112.66 101.37,213.41 116.29,372.91 66.86,671.65 -123.86,989.52 -76.21,127.01 -190.32,213.53 -263.65,354.48 -97.56,187.53 22.22,284.93 -151.89,466.17 -49.06,51.07 -91.4,99.92 -162.2,142.79 -30.36,18.39 -60.93,34.59 -100.34,52.28 -49.84,22.38 -50.15,36.71 -61.87,96.45 254.74,26.73 374.32,-59.34 511.53,146.85 63.19,94.95 47.63,147.81 62.9,268.08 12.01,94.58 59.94,165.7 81,248.4l1272.88 228.02c-25.14,-34.37 -163,-124.23 -209.67,-156.68 -262.1,-182.24 -316.6,-422.04 -374.72,-743.86 -33,-182.77 -63.69,-491.04 -22.71,-672.7 51.24,-227.1 183.33,-294.08 269.29,-476.7 196.93,-418.44 44.06,-768.61 350.24,-1131.76 106.35,-126.14 217.69,-258.76 425.65,-319.21 255.48,-74.26 438.19,-8.46 687.93,-8.67 382.35,-0.33 730.38,-61.8 1007.53,-59.58 130.05,1.04 208.69,25.91 326.34,39.72 -9.62,-34.3 -604.75,-1051.13 -639.6,-1088.93 -109.61,51.31 -157.28,371.53 -381.45,398.04 -85.87,10.15 -297.35,22.36 -373.46,2.71 -159.97,-41.3 -11.47,-170.55 9.65,-228.64z"/>
  <path class="fil0" d="M9869.84 15521.03c7.35,47.71 -44.58,207.77 -52.66,284.81 -11.43,109.08 2.32,216.55 39.72,306.32 67.17,161.24 181.23,311.81 154.75,539.46 -24.37,209.56 -150.35,340.77 -265.2,430.25 -60.03,46.76 -336.57,257.09 -428.62,263.94 -0.05,-75.28 38.86,-150.38 59.94,-218.18 42.69,-137.3 100.8,-339.05 0.9,-452.26 -103.37,-117.15 -215.25,-198.95 -140.43,-364.54 34.79,-77 -23.74,-102.37 -57.55,-174.59 -114.56,-244.68 -27.26,-414.13 -57.49,-462.99 -102.51,2.93 -168.06,105.59 -200.73,195 -42.92,117.46 -38.41,230.24 -15.01,354.58 88.03,467.54 17.9,306.8 -43.94,678.44 -33.8,203.17 -12.62,535.87 62.21,709.34 82.37,190.97 235.43,365.54 279.21,516.39 64.48,0.77 311.75,-188.16 383.05,-230.06l1148.36 -671.84c255.77,-152.3 499.53,-295.85 763.96,-446.91 140.5,-80.26 670.81,-402.48 763.74,-446.37 -29.8,-52.69 -80.29,-44.33 -167.18,-208.09 -39.97,-75.35 -80.52,-188.23 -77.22,-292.85 -17.46,-31.73 2.92,-35.08 -18.66,-67.77 -3.52,-5.34 -30.6,-30.12 -41.27,-43.68 -77.74,-98.77 -166.87,-164.9 -271.39,-236.51 -82.5,-56.52 -359.66,-203.64 -467.64,-200.83l-1350.85 238.94z"/>
  <path class="fil2" d="M10747.69 15062.35l-778.59 131.36c-24.69,15.51 -83.82,19.5 -115.42,22.33 20.86,-222.9 313.73,-292 457.17,-414.62 177.44,-151.68 77.72,-347.84 134.57,-509.39 11.94,-33.93 47.75,-118.53 73.65,-140.57 28.05,43.94 40.46,100.61 66.93,147.94 105.45,188.5 339.41,403.85 526.49,506.6 62.29,34.22 240.31,97.71 259.75,151.69 -61.59,30.98 -225.39,45.56 -311.27,53.68 -115.26,10.91 -208.69,37.05 -313.28,50.98zm-1001.35 173.55c-77.27,17.38 -171.87,25.6 -251.73,36.08 -75.59,9.93 -207.23,42.04 -265.74,0.11 -24.47,-47.33 -79.16,-346.58 -66.44,-410.11 9.67,-48.27 53.66,-130.27 77.27,-166.87 32.96,-51.09 62.04,-110.38 95.24,-157.35 82.12,33.17 159.76,155.41 428.16,3.59 68.89,-38.97 116.6,-71.88 185.44,-101.96 124.21,-54.29 245.42,-72.49 315.02,-260.89 27.29,-73.87 33.91,-156.76 52.47,-235.33 27.18,-115.11 112.43,-343.98 176.7,-405.6 7.99,91.46 -7.84,199.14 -7.08,295.19 1.62,206.97 37.68,90.38 -46.65,241.94 -164.88,296.31 -91.34,269.39 -116.73,502.62 -30.26,277.82 -543.85,244.72 -575.93,658.58zm197 -1726.15c20.71,28.69 35.51,120.08 93.57,220.53 147.79,255.72 216.62,-73.55 243.06,-198.58 13.29,-62.85 31.96,-204.64 57.41,-252.78 54.31,7.98 113.7,70.11 128.09,122.04 -108.84,122.53 -187.61,293.47 -239.16,470.36 -32.25,110.66 -33.9,245.1 -88.97,325.11 -84.84,123.27 -161.54,102.68 -345.91,212.2 -41.88,24.88 -122.75,76.46 -184.07,94.73 -114.74,34.19 -153.2,-15.24 -214.98,-51.36 6.89,-35.27 509.67,-896.45 550.96,-942.25zm186.26 169.18c-47.33,-42.05 -82.55,-189.54 -102.49,-269.01 -13.48,-53.72 19.5,-82.81 44.92,-125.96 52.66,-89.33 314.43,-546.74 345.44,-577.68 65.88,49.76 181.09,272.23 224.8,376.64 55.97,133.68 121.33,299.69 143.94,455.64 25.34,174.83 15.42,381.73 36.21,565.1 34.53,304.52 107.01,346.78 145.38,458.17 -130.08,-26.73 -276.89,-231.7 -325.71,-370.07 -127.59,-361.59 35.11,-691.4 -114.86,-900.46 -34.01,-47.42 -126.32,-130.26 -219.28,-118.32 -127.03,16.31 -107.5,408.55 -178.35,505.95zm4675.51 -3214.33l184.26 567.03c58.65,176.16 544.18,1645.02 545.58,1694.83 22.38,23.87 122.98,360.24 133.74,392.84l192.25 595.36c68.4,228.29 163.73,393.28 -183.3,469.73 -284.77,62.74 -592.42,107.79 -887.84,161.78 -291.19,53.21 -600.51,111.84 -894.16,158.27 -526.5,98.48 -1060.71,187.91 -1594.27,281.61 -340.68,59.82 -487.98,132.93 -747.69,-65.97 -95.22,-72.92 -172.55,-127.47 -283.54,-190.44 -94.75,-53.75 -213.26,-125.6 -259.5,-202.91 -5.55,-5.97 -5.9,-6.16 -12.47,-16.05 -1.09,-1.64 -2.45,-3.76 -3.5,-5.48 -1.03,-1.68 -2.16,-3.83 -3.13,-5.54 -4,-7.12 -8.08,-16.71 -10.77,-22.65 -174.36,-384.26 60.36,-594.26 -289.29,-1327.45 -46.22,-96.93 -97.79,-181.63 -158.56,-265.12 -18.9,-25.97 -43.39,-51.68 -58.72,-79.34 59.65,-140.16 92.65,-134.13 242.68,-208.58 228.72,-113.51 428.13,-156.95 661.96,-236.26 105.28,-35.71 211.35,-83.84 328.93,-120.2 313.48,-96.93 306.01,-142.77 389.09,-176.7 76.18,-31.1 115.95,-100.4 165.39,-165.19 66.9,-87.69 131.31,-167.9 200.31,-248.55 187.05,-218.65 407.38,-529.35 531.67,-806.66 58.9,-131.41 63.59,-157.52 173.71,-274.27 69.69,-73.88 146.31,-139.59 255.84,-192.33 340.26,-163.82 441.76,34.77 696.5,78.94 139.8,24.25 189.36,13.39 395.42,55.44 277.73,56.67 253.98,43.55 289.41,153.86zm-3971.82 1522.19c104.38,-7.27 330.17,-131.52 494.73,-173.06 102.35,-25.84 479.99,12.83 611.17,24.2 -89.63,62.45 -203.74,85.98 -318.98,124.34 -110.87,36.92 -214.8,84.56 -327.67,120.37 -116.45,36.95 -230.13,69.04 -341.08,107.8 -60.92,21.28 -108.53,38.89 -165.02,64.07 -45.17,20.13 -100,50.41 -146.71,66.14l193.56 -333.86zm1196.47 -2018.35c72.93,-3.92 192.28,-30.05 241.03,12.82 47.46,41.73 103.64,79.9 178.1,94.15 222.54,42.57 381.44,-63.51 482.56,32.65 117.98,112.21 46.02,258.65 -19.03,394.77 -226.11,473.08 -389.65,779.49 -771.01,1142.3 -97.67,92.92 -65.99,92.65 -183.01,90.88 -176.48,-2.66 -343.54,-31.31 -516.48,-32.62 -226.17,-1.72 -332.68,103.71 -520.71,149.65 12.7,-44.25 48.53,-91.74 70.75,-129.97 157.21,-270.38 334.45,-555.37 482.85,-820.93l554.95 -933.7zm82.82 -142.89c14.29,-41.56 65.35,-114.99 90.42,-159.47 29.58,-52.47 61.26,-103.3 90.98,-154.53l548.94 -932.46c82.76,-135.94 672.22,-1158.76 733.2,-1239.43 32.49,-42.97 81.72,-113.03 149.27,-65.99 90.4,62.96 162.3,378.91 210.81,525.6l484.64 1488.04c38.55,117.71 227.43,675.68 239.52,746.2 -19.29,-13.26 -4.11,-1.67 -19.17,-17.76l-44.13 -49.18c-16.38,-20.42 -28.03,-51.71 -47,-71.73 -63.84,-67.39 -111.13,43.84 -139.12,74.32 -80.6,87.75 -260.93,-52.25 -369.67,-64.87 -153.77,-17.85 -317.52,47.55 -456.65,30.98 -190.22,-22.66 -55.49,-259.97 -50.55,-328.1 -39.72,15.58 -117.43,76.18 -153.88,101.68 -190.55,133.28 -174.75,198.17 -267.82,240.49 -213.65,97.16 -175.9,-220.2 -317.34,-114.59 -58.84,43.93 -134.3,44.97 -217.43,33.28 -264.28,-37.15 -184.95,-32.92 -465.02,-42.48zm3905.09 4227.34c30.84,-99.12 -31.32,-314.5 -67.72,-401.07 -44.91,-106.83 -82.97,-247.96 -120.08,-362.99l-1647.35 -5058.24c-78.48,-241.5 -151.37,-491.08 -236.24,-728.72 -52.06,-145.75 -55.98,-236.65 -168.39,-314.77 -137.29,-95.43 -235.24,30.22 -293.56,111.41 -67.67,94.24 -120.17,197.01 -181.24,301.4l-1242.94 2109.88c-232.54,403.82 -473.31,801.84 -709.62,1203.94 -474.77,807.87 -947.31,1604.68 -1421.84,2413.68 -234.44,399.69 -472.38,808.59 -711.8,1209.65 -73.89,123.77 -300.54,486.78 -297.83,659.02 4.75,301.7 496.54,184.73 725.52,157.47 267.73,-31.88 560.7,-92.26 820.6,-141.36 273.35,-51.65 542.15,-93.34 814.19,-143.5 546.6,-100.79 1086.37,-190.21 1628.28,-287.26l2446.18 -432.12c258.5,-46.2 590.62,-61.15 663.83,-296.41l0.01 -0.01z"/>
  <path class="fil0" d="M5861.73 3625.06c-1.03,-43.38 -3.99,-17.38 -21.9,-57.27 -22.18,-49.38 -90.83,-325.55 -100.74,-374.32 -30.36,-149.28 -75.79,-310.07 -73.79,-480.51l-13.23 -1.64c-45.64,12.8 -2097.14,1224.49 -2211.19,1291.61 -184.14,108.39 -583.5,330.69 -734.94,431.86 12.23,46.99 249.89,326.06 292.37,374.95 190.43,219.15 302.95,128.56 426.07,251.23 127.98,127.52 -12.44,381.71 112.16,556.76 60.28,84.7 279.41,235.09 387.02,288.86 75.85,-72.87 611.68,-722.31 723.72,-849.62 360.63,-409.74 734.8,-886.7 1091.63,-1287.5 32.89,-36.95 94.76,-105.67 122.82,-144.41z"/>
  <path class="fil2" d="M7369.48 13818.95c35.8,46.77 66.28,109.62 94.58,156.38l480.03 815.01c65.96,113.24 298.7,477.75 52.39,501.28 -74.49,7.11 -183.28,-0.75 -255.52,-8.4 -332.39,-35.2 -573.98,-86.85 -894.69,-140.51 -138.68,-23.2 -301.89,-46.11 -437.29,-78.6 -26.98,-115.3 -15.8,-136.73 34.4,-218.96 134.45,-220.17 203.7,-275.52 383.84,-453.98 144.48,-143.12 207.01,-275.8 401.37,-436.86 51.65,-42.79 93.48,-99.46 140.89,-135.36zm-6131.73 -17.3c27.14,-102.15 16.36,-97.77 307.08,-88.27 232.25,7.59 216.38,223.48 230.73,329.03 11.08,81.55 46.69,143.16 63.13,212.71l-80 -11.76c-2.14,-0.74 -5.08,-2.22 -6.81,-2.87 -1.72,-0.66 -4.65,-1.77 -6.73,-3.09 -68.72,3.94 -359.49,-65.41 -420.61,-92.32 -156.41,-68.86 -133.63,-180.78 -86.79,-343.43zm5171.11 908.24c19.72,-166.8 300.75,-454.32 409.21,-581.88 153.15,-180.12 280.8,-348.8 349.88,-649.49 34.44,42.08 73.49,120.89 104.69,171.77 19.86,32.39 46.28,57.06 23.67,91.56 -44.82,68.38 -252.4,235.23 -358.46,362.06 -141.78,169.57 -97.47,131.06 -266.28,300.94 -66.48,66.91 -223.63,224.31 -262.71,305.04zm-460.94 -3300.01c22.32,15.72 451.8,760.51 508.21,855.29l380.59 644.2c31.01,53.48 105.67,166.31 125.3,218.6l34.54 53.46c17.95,31.48 14.98,27.37 10.46,60.07 -7.32,53.01 -2.3,106.32 -10.13,160.19 -50.26,345.92 -146.84,389.92 -348.95,674.8 -71.46,100.72 -225.37,305.97 -279.68,398.02 -110.58,187.41 -127.19,319.64 -105.32,562.53 -39.06,-2.75 -73.53,-3.04 -101.65,-17.28l-2474.09 -435.76c-45.44,-7.01 -168.49,-22.73 -201.4,-35.22l-403.91 -280.85c-224.02,-158.37 -267.97,-326.14 -320.35,-592.05 -44.66,-226.74 -97.59,-602.04 -13.19,-816.16 24.72,-62.73 57.04,-95.98 89.18,-138.35 39.65,-52.26 94.36,-51.84 171.37,-55.8 136.5,-7.02 303.55,11.08 445.45,15.77 51.83,-1.09 104.13,-0.87 156.07,-3.97 42.15,-2.51 108.34,-17.6 140.57,-16.54 -171.99,-21.76 -357.65,-64.02 -517.09,-106.49l-241.21 -67.77c6.88,-48.95 58.92,-163.96 76.35,-228.4 23.02,-85.13 29,-165.43 39.87,-257.99 44.14,-375.84 106.79,-565.86 396.24,-804.01 222.43,-183.01 511.52,-118.29 765.21,-106.49 99.77,4.64 196.75,5.07 296.68,2.42 426.25,-11.32 727.03,-109.2 1112.14,-13.21 126.03,31.41 93.68,26.67 158.95,136.52 37.49,63.1 90.49,140.92 109.8,194.47l-0.01 0zm-4563.18 1955.85c9.27,-58.16 51.03,-181.18 72.48,-245.5 90.11,-270.16 536,-1660.55 561.35,-1690.23 78.27,125.47 118.74,404.45 97.86,582.26 -22.2,189.01 -111.17,371.56 -202.31,488.79 -74.34,95.62 -246.59,274.95 -275.56,426.87 -20.24,106.15 43.73,336.52 -253.82,437.81zm2919.63 -3308.06c-21.12,58.09 -169.62,187.34 -9.65,228.64 76.11,19.65 287.59,7.44 373.46,-2.71 224.17,-26.51 271.84,-346.73 381.45,-398.04 34.85,37.8 629.98,1054.63 639.6,1088.93 -117.65,-13.81 -196.29,-38.68 -326.34,-39.72 -277.15,-2.22 -625.18,59.25 -1007.53,59.58 -249.74,0.21 -432.45,-65.59 -687.93,8.67 -207.96,60.45 -319.3,193.07 -425.65,319.21 -306.18,363.15 -153.31,713.32 -350.24,1131.76 -85.96,182.62 -218.05,249.6 -269.29,476.7 -40.98,181.66 -10.29,489.93 22.71,672.7 58.12,321.82 112.62,561.62 374.72,743.86 46.67,32.45 184.53,122.31 209.67,156.68l-1272.88 -228.02c-21.06,-82.7 -68.99,-153.82 -81,-248.4 -15.27,-120.27 0.29,-173.13 -62.9,-268.08 -137.21,-206.19 -256.79,-120.12 -511.53,-146.85 11.72,-59.74 12.03,-74.07 61.87,-96.45 39.41,-17.69 69.98,-33.89 100.34,-52.28 70.8,-42.87 113.14,-91.72 162.2,-142.79 174.11,-181.24 54.33,-278.64 151.89,-466.17 73.33,-140.95 187.44,-227.47 263.65,-354.48 190.72,-317.87 240.15,-616.61 123.86,-989.52 -31.42,-100.75 -97.49,-199.74 -101.37,-213.41 -9.24,-32.56 51.31,-189.75 65.22,-232.14l189.71 -582.48c30.86,-56.27 327.58,-61.33 389.01,-68.04 16.23,-73.73 -240.36,-138.14 -313.78,-142.17 -1.22,-31.23 53.91,-190.3 67.09,-221.99 280.42,-28.77 382.51,4.68 565.66,132.81 178.86,125.13 256.99,266.3 387.61,332.33 118.76,60.04 169.27,48.47 289.34,6.54 225.56,-78.78 257.48,-228.79 364.81,-346.62 90.89,-99.79 128.19,-127.83 236.22,-118.05zm-1335.39 -1572.57c80.93,-247.69 156.41,-484.14 237.14,-728.43 45.04,-136.28 112.8,-473.36 229.88,-499.64 91.33,-20.51 265.42,326.61 312.8,409 60.78,105.7 118.13,199.57 178.47,304.06 321.45,556.63 673,1122.61 985.09,1673.41 25.97,45.83 67.06,103.88 84.88,150.67 -115.21,88.4 -136.35,201.93 -223.04,308.84 -53.32,65.76 -72.44,79.46 -190.41,84.03 -66.88,2.59 -174.31,22.01 -236.97,5.06 10.35,-66.48 105.89,-107.93 82.13,-210.09 -17.96,-28.91 -206.12,-60.42 -311.12,14.59 -78.63,56.17 -125.19,106.69 -184.17,188.75 -63.41,88.22 -84.49,141.46 -174.59,197.69 -76.94,48.02 -178.86,94.78 -281.09,51.35 -119.55,-50.78 -217.6,-216.15 -402.62,-342.49 -65.98,-45.06 -155.25,-100 -246.3,-126.79 -134.06,-39.43 -199.62,-18.59 -333.33,-21.27l473.25 -1458.74zm-1863.64 5550.86c52.5,246.11 391.99,263.31 655.58,310.55 267.48,47.94 539.6,93.37 811.91,143.7 1081.42,199.88 2178.61,375.17 3259.66,575.72 270.64,50.21 542.37,95.01 813.15,143.46 326.77,58.48 928.71,181.32 1257.25,184.02 81.13,0.67 148.49,4.51 212.94,-35.24 44.42,-27.4 87.21,-75.09 92.82,-144.93 14.62,-182.02 -215.62,-538.76 -291.26,-666.71l-2131 -3617.82c-342.83,-594.13 -725.17,-1215.23 -1067.02,-1811.71l-712.36 -1209.35c-63.41,-106.41 -116.24,-198.55 -179.35,-303.7 -106.21,-176.98 -264.78,-558.37 -473.05,-419.5 -116.55,77.71 -113.27,163.14 -167.97,306.01 -42.28,110.4 -81.29,249.3 -118.38,364.4l-1530.7 4701.07c-79.77,241.56 -156.08,481.08 -235.12,721.01 -40.01,121.46 -73.59,246.91 -119.38,364.45 -34.15,87.67 -100.5,287.79 -77.73,394.57l0.01 0z"/>
  <path class="fil0" d="M2495.73 9943.84c133.71,2.68 199.27,-18.16 333.33,21.27 91.05,26.79 180.32,81.73 246.3,126.79 185.02,126.34 283.07,291.71 402.62,342.49 102.23,43.43 204.15,-3.33 281.09,-51.35 90.1,-56.23 111.18,-109.47 174.59,-197.69 58.98,-82.06 105.54,-132.58 184.17,-188.75 105,-75.01 293.16,-43.5 311.12,-14.59 23.76,102.16 -71.78,143.61 -82.13,210.09 62.66,16.95 170.09,-2.47 236.97,-5.06 117.97,-4.57 137.09,-18.27 190.41,-84.03 86.69,-106.91 107.83,-220.44 223.04,-308.84 -17.82,-46.79 -58.91,-104.84 -84.88,-150.67 -312.09,-550.8 -663.64,-1116.78 -985.09,-1673.41 -60.34,-104.49 -117.69,-198.36 -178.47,-304.06 -47.38,-82.39 -221.47,-429.51 -312.8,-409 -117.08,26.28 -184.84,363.36 -229.88,499.64 -80.73,244.29 -156.21,480.74 -237.14,728.43l-473.25 1458.74z"/>
  <path class="fil2" d="M9497.32 17099.07c31.75,-164.03 195.91,-416.01 30.29,-522.64 -53.99,-34.76 -186.32,-99.05 -147.23,-182.24 40.32,-85.79 148.14,-138.48 140.17,-227.09 -89.34,-70.36 -186.78,-44.14 -230.66,-165.96 -26.66,-74 -16.81,-289.05 7.1,-364.98 35.15,-23.98 307.82,-70.91 366.87,-69.36 -17.07,238.55 -90.71,373.92 57.37,672 31.5,63.39 71.71,98.34 103.69,167.41 71.32,154.03 7.46,306.55 -69.49,413.74 -59.61,83.02 -178.6,224.07 -258.11,279.12zm2522.32 -1268.19c-3.3,104.62 37.25,217.5 77.22,292.85 86.89,163.76 137.38,155.4 167.18,208.09 -92.93,43.89 -623.24,366.11 -763.74,446.37 -264.43,151.06 -508.19,294.61 -763.96,446.91l-1148.36 671.84c-71.3,41.9 -318.57,230.83 -383.05,230.06 -43.78,-150.85 -196.84,-325.42 -279.21,-516.39 -74.83,-173.47 -96.01,-506.17 -62.21,-709.34 61.84,-371.64 131.97,-210.9 43.94,-678.44 -23.4,-124.34 -27.91,-237.12 15.01,-354.58 32.67,-89.41 98.22,-192.07 200.73,-195 24.02,-18.18 46.89,-17.57 81.08,-9.92 2.42,96.08 -33.69,184.13 1.53,346.98 23.07,106.68 87.98,168.92 178.61,202.28 -29.37,61.98 -142.88,139.75 -108.99,259.89 22.25,78.9 117.44,138.44 189.91,183.71 54.4,33.98 41.06,76.34 34.21,147.49 -17.04,177.14 -89.48,311.72 -120.46,455.18 119.4,-30.31 310.63,-209.6 370.02,-276.08 93.45,-104.63 206.78,-228.05 204.65,-432.16 -2.41,-229.76 -102.49,-234.45 -181.7,-454.8 -34.35,-95.59 -47.78,-171.31 -39.94,-281.79 3.32,-46.87 9.25,-95.91 17.01,-142.62 3.48,-20.88 8.24,-41.89 12.86,-62.57 2.88,-12.88 5.06,-24.97 7.85,-34.93 0.79,-2.82 3.23,-11.01 4.15,-13.63 0.77,-2.2 1.84,-4.66 2.59,-6.63l93.26 -32.62 1350.85 -238.94c19.89,-12.79 580.87,-121.69 598.79,-123.18 13.32,25.68 98.49,112.72 119,133.15 164.49,163.8 184.16,71.6 108.06,322.77 -27.17,89.67 -23.37,120.6 -26.89,216.05zm848.24 139.43c10.98,-70.16 66.32,-199.91 104.57,-251.43 57.28,-77.13 109.55,-105.96 187.12,-151.74 249.08,-146.99 233.16,-104.93 564.22,-94.96 -12.32,20.24 -171.09,106.9 -203.75,125.44 -88.21,50.07 -613.05,361.9 -652.16,372.69zm-745.06 -236.3c43.73,28.51 25.72,62.8 118.54,102.48 175.89,75.17 316.55,-28.45 411.43,-157.94 67.23,-91.76 106.11,-136.02 225.93,-188.53 91.46,-40.08 238.51,-72.56 353.35,-68.48l-40.02 26.56c-358.19,155.76 -325.94,275.02 -458.29,557.01 -38.73,82.53 -21.97,65.24 -101.79,110.03 -99.93,56.07 -168.35,101.72 -267.18,152.31 -125.86,-51.72 -291.18,-315.63 -241.97,-533.44zm214.54 -656.65c46.75,-31.77 649.43,-124.43 759.3,-140.57 254.63,-37.4 500.87,-89.94 752.81,-135.71 172.21,-31.29 622.13,-118.34 767.12,-132.08 238.67,-22.61 127.62,144.46 46.72,209.2 -72.07,57.67 -204.12,136.76 -254.47,178.23 21.28,-39.32 55.05,-85.29 64.06,-138.76 -41.23,19.85 -159.4,155.96 -448.65,192.44 -230.7,29.1 -428.48,-50.88 -575.46,-60.08 -218.03,-13.66 -347.1,69.42 -546.88,89.97 -98.48,10.14 -217.92,13.65 -316.51,4.78 -46.33,-4.16 -92.25,-12.96 -138.82,-23.07l-92.6 -25.96c-15.06,-9.86 -8.65,-4.82 -16.62,-18.39zm2511.7 -287.87c35.53,-109.53 -17.32,-179.76 -89.97,-209.65 -117.43,-48.3 -665.63,75.51 -817.44,103.42l-4242.97 768.34c-85.64,15.65 -177.67,31.68 -263.32,48.01 -90.2,17.19 -181.83,26.07 -272.59,41.88 -583.56,101.65 -548.65,207.35 -544.57,704.27 1.71,209.08 5.17,410.57 7.67,618.06 4.89,405.54 0.57,822.89 13.28,1227.99 10.02,319.12 322.81,300.35 577.73,145.39l984.08 -582.15c526.54,-308.84 1054.07,-621.11 1580.74,-925.29 263.4,-152.12 526.67,-311.69 790.41,-462.69 267.55,-153.18 526.19,-305.99 790.42,-462.61 267.57,-158.59 528.5,-302.54 788.73,-464.58 125.6,-78.21 258.54,-163.28 380.54,-246.1 116,-78.75 270.71,-160.77 317.27,-304.29l-0.01 0z"/>
  <path class="fil0" d="M12112.58 9825.55c280.07,9.56 200.74,5.33 465.02,42.48 83.13,11.69 158.59,10.65 217.43,-33.28 141.44,-105.61 103.69,211.75 317.34,114.59 93.07,-42.32 77.27,-107.21 267.82,-240.49 36.45,-25.5 114.16,-86.1 153.88,-101.68 -4.94,68.13 -139.67,305.44 50.55,328.1 139.13,16.57 302.88,-48.83 456.65,-30.98 108.74,12.62 289.07,152.62 369.67,64.87 27.99,-30.48 75.28,-141.71 139.12,-74.32 18.97,20.02 30.62,51.31 47,71.73l44.13 49.18c15.06,16.09 -0.12,4.5 19.17,17.76 -12.09,-70.52 -200.97,-628.49 -239.52,-746.2l-484.64 -1488.04c-48.51,-146.69 -120.41,-462.64 -210.81,-525.6 -67.55,-47.04 -116.78,23.02 -149.27,65.99 -60.98,80.67 -650.44,1103.49 -733.2,1239.43l-548.94 932.46c-29.72,51.23 -61.4,102.06 -90.98,154.53 -25.07,44.48 -76.13,117.91 -90.42,159.47z"/>
  <path class="fil0" d="M13489.13 5002.05c6.79,-98.17 -51.59,-281.03 170.5,-331.22 130.69,-29.53 328.09,-46.68 468.66,-40.96 -24.81,43.34 -115.56,41.45 -168.14,54.62 -65.49,16.42 -114.29,28.39 -175.88,46.08 -57.68,16.57 -111.66,33.17 -154.23,64.13 -54.38,39.55 -35.37,102.24 -34.73,180.68 144.62,-0.71 415.53,-126.96 550.64,-173.34 169.9,-58.32 464.53,-111.01 589.73,13.52 121.32,120.67 172.98,315.35 309.08,419.02 66.79,50.89 145.05,94.83 222.9,141.09 52.94,31.45 120.08,68.8 161.01,109.98 18.3,18.42 20.92,33.74 43.39,52.18 49.98,-13.88 205.82,-127.39 226.49,-157.09 58.38,-83.86 -73.66,-206.16 -113.55,-237.56 -142.19,-111.95 -304.57,-204.29 -473.32,-305.28 -641.98,-384.17 -1312.64,-761.84 -1953.42,-1145.53 -159.95,-95.78 -326.03,-194.42 -485.87,-284.5 -58.82,-33.14 -449.32,-269.43 -493.87,-281.28 -33.84,47.66 -81.06,87.85 -120.74,137.16 -112.53,139.83 -226.39,362.83 -282.95,529.11 -23.06,67.8 -54.37,129.51 -71.8,197.27 -35.55,138.17 -43.08,82.1 30.91,178.39 79.07,102.89 159.84,199.06 245.66,295.92l496.84 587.64c29.38,25.71 177.93,10.16 260.88,12.22 151.98,3.78 655.17,-9.01 751.81,-62.25z"/>
  <path class="fil0" d="M6390.31 7448.16c-0.13,42.04 11.02,76.79 13.45,119.17 2.54,44.55 -1.38,84.06 -1.64,127.46 -0.48,79.96 40.19,142.96 35.49,227.76 -8.7,157.19 -141.42,238.74 -211.61,313.23 -82.17,87.2 -172.34,267.13 -82.42,388.35 37.36,50.35 88.84,81.39 144.23,117.92 314.87,207.66 168.77,221.42 487.44,42.75 117.25,-65.74 224.12,-123.96 344.66,-180.4 54.07,-25.31 131.2,-45.86 147.05,-116.13 17.28,-76.6 9.94,-153.07 32.96,-228.44 37.76,-123.65 104.08,-275.89 191,-331.02l-35.3 118.47c5.27,55.77 -10.49,349.59 -18.28,409.14 -19.64,150.09 -76.14,192.34 -152.7,270.84 -64.39,66.03 -152.1,130.71 -244.64,178.77 -41.2,21.39 -261.54,117.29 -276.58,136.24 55.68,36.27 150.86,79.56 217.79,115.36l210.47 117.69c137.52,-91.61 291.54,-325.24 361.17,-491.46 13.91,-33.18 14.22,-61.04 45.23,-74.52 42.92,82.57 -52.28,449.8 -106.98,562.9 -224.1,463.38 -716.86,893.73 -712.06,1334.73 58.3,50.13 106.19,42.82 200.97,42.77 91.02,-0.05 147.83,19.34 224.55,-21.77 103.05,-55.23 159.64,-152.06 231.04,-251.09 219.31,-304.16 162.12,-339.96 209.01,-757.33 53.27,-474.06 294.96,-994.24 673.77,-1251.54 -4.18,-70.11 -107.06,-183.2 -136.6,-215.94 -54.43,-60.33 -131.19,-116.89 -174.21,-168.77l-5.66 31.4c-2.9,68.04 12.23,182.38 -15.77,236.34 -16.9,-25.42 -55.39,-283.59 -61.47,-335.04 -16.68,-11.97 -16.42,-4.21 -30.33,-52.35 -28.62,-99.02 -103.92,-283.06 -145.21,-371.24 -28.44,-60.74 -67.86,-130.14 -99.72,-196.66 -30,-62.64 -81.27,-137.02 -101.48,-186.25 -66.28,2.18 -235.05,48.08 -310.61,64.89 -358.59,79.76 -507.51,136.62 -849.92,240.82l2.91 32.95z"/>
  <path class="fil2" d="M13450.65 5500.2l36.66 465.68c33.46,-16.71 25.98,-95.2 22.08,-126.1l33.17 -481.07c162.31,-38.88 310.83,-85.89 461.51,-139.41 567.05,-201.42 512.54,105.92 730.98,333.43 86.44,90.03 209.42,175.2 368.57,215.65 -38.84,24.36 -77.19,55.23 -120.03,71.95 -19.18,18.13 -95.26,65.31 -125.05,80.7 -45.73,23.64 -89.66,52.54 -132.4,79.03 -42.35,26.24 -242.14,156.37 -268.37,153.5 -22.48,35.38 -112.15,80.26 -146.22,100.71 -124.66,74.83 -351.46,236.64 -466.89,251.03 -171.07,21.33 -267.04,-159.74 -396.87,-308.72l-109.16 -130.65c-0.92,-1.29 -2.71,-3.78 -3.93,-5.76 -25.41,-20.93 -73.15,-82.64 -100.69,-115.39 -35.88,-42.66 -68.88,-79.96 -104.8,-123.84l-202.31 -243.19c-1.81,-1.33 -4.11,-3.28 -5.22,-4.28l-14.22 -13.32c-1.56,-1.66 -10.12,-12.28 -11.61,-14.1 -10.14,-12.39 -12.69,-15.51 -23.18,-27.44 -16.51,-18.79 -31.07,-32.2 -39.68,-53.67l608.18 -83.77 9.48 119.03zm-871.2 -333.26c151.4,-14.38 326.04,3.64 487.91,-7.23 148.27,-9.95 286.1,-23.73 428.21,-51.57 430.07,-84.24 520.82,-174.45 744.43,-228.77 107.1,-26.02 333.56,-72.48 415.43,-0.5 64.12,56.37 138.74,204.7 194.54,287.92 168.16,250.83 506.89,324.87 535.58,429.64l-184.43 109.7c-114.45,-63.57 -212.33,-67.96 -325.29,-158.74 -263.22,-211.54 -229.82,-655.66 -869.89,-435.48 -553.85,190.51 -641.9,174.36 -1175.95,252.21 -108.81,15.86 -89.23,-3.14 -147.58,-70.06 -26.7,-30.63 -85.92,-95.27 -102.96,-127.12zm909.68 -164.89c-96.64,53.24 -599.83,66.03 -751.81,62.25 -82.95,-2.06 -231.5,13.49 -260.88,-12.22l-496.84 -587.64c-85.82,-96.86 -166.59,-193.03 -245.66,-295.92 -73.99,-96.29 -66.46,-40.22 -30.91,-178.39 17.43,-67.76 48.74,-129.47 71.8,-197.27 56.56,-166.28 170.42,-389.28 282.95,-529.11 39.68,-49.31 86.9,-89.5 120.74,-137.16 44.55,11.85 435.05,248.14 493.87,281.28 159.84,90.08 325.92,188.72 485.87,284.5 640.78,383.69 1311.44,761.36 1953.42,1145.53 168.75,100.99 331.13,193.33 473.32,305.28 39.89,31.4 171.93,153.7 113.55,237.56 -20.67,29.7 -176.51,143.21 -226.49,157.09 -22.47,-18.44 -25.09,-33.76 -43.39,-52.18 -40.93,-41.18 -108.07,-78.53 -161.01,-109.98 -77.85,-46.26 -156.11,-90.2 -222.9,-141.09 -136.1,-103.67 -187.76,-298.35 -309.08,-419.02 -125.2,-124.53 -419.83,-71.84 -589.73,-13.52 -135.11,46.38 -406.02,172.63 -550.64,173.34 -0.64,-78.44 -19.65,-141.13 34.73,-180.68 42.57,-30.96 96.55,-47.56 154.23,-64.13 61.59,-17.69 110.39,-29.66 175.88,-46.08 52.58,-13.17 143.33,-11.28 168.14,-54.62 -140.57,-5.72 -337.97,11.43 -468.66,40.96 -222.09,50.19 -163.71,233.05 -170.5,331.22zm-1897.32 -1000.79c-53.45,-31.53 -63.43,-67.88 -44.94,-121.53 77.41,-224.7 151.18,-464.74 291.32,-657.41 30.2,-41.53 51.71,-68.02 84.72,-101.47 29.11,-29.5 68.33,-58.55 94.91,-95.28l66.72 37.62c-4.52,29.16 -17.03,35.13 -37.33,54.98 -92.21,90.19 -195.99,258.64 -254.37,372.96 -80.71,158.03 -137.77,322.04 -201.03,510.13zm-265.18 -311.45l-81.41 -93.22c5.96,-76.58 141.15,-359.48 178.14,-425.19 101.65,-180.61 233.76,-305.35 256.65,-343.25 28.96,12.12 95.69,44.06 114.76,70.8 43.17,8.53 91.84,52.74 132.36,68.66 -24.35,53.31 -163.43,127.5 -288.85,393.66 -38.04,80.74 -65.39,151.33 -100.67,238.93 -16.88,41.9 -69.81,213.43 -88.31,238.87l-122.67 -149.26zm-164.1 -192.93c-18.12,-15.61 -71.16,-70.85 -78.28,-92.41 -10.32,-31.24 132.04,-287.36 150.79,-319.51 52.36,-89.8 225.68,-316.42 300.46,-344.27l55.57 34.63c-14.07,26.75 -42.44,49.66 -64.84,75.83 -144.15,168.42 -236.01,341.11 -318.64,544.68 -7.91,19.46 -13.96,35.6 -21.11,55.54l-23.95 45.51zm-1051.01 -1566.12c180.1,56.09 415.56,222.56 575.42,312.82l560.58 328.31c58.78,34.91 128.25,70.29 184.29,110.31 -13.07,27.55 -42.79,44.01 -66.61,67.21 -45.74,44.57 -140.65,168.01 -176.98,221.1 -69.34,101.31 -159.01,304.58 -186.55,336.89l-549.18 -643.19c-92.01,-110.67 -180.73,-214.08 -275.87,-325.31 -54.47,-63.67 -240.18,-264.03 -255.58,-337.17 -23.99,-113.91 115.79,-94.24 190.48,-70.97zm-163.53 -111.18c-83.98,24.09 -151.65,81.34 -126.76,197.47 22.39,104.45 77.29,147.29 129.03,209.41 102.76,123.37 206.31,248.01 310.46,366.9 254.42,290.41 511.32,608.02 769.41,906.97l1087.78 1282.89c205.28,243.04 418.08,490.44 616.93,729.44l769.24 907.02c54.54,64 92.54,120.41 179.07,160.03 192.1,87.95 377.33,-54.52 502.28,-129.47l1254.53 -768.95c112.55,-68.98 342.33,-182.14 368.38,-310.12 37.51,-184.28 -175.52,-317.59 -276.14,-386.96 -134.75,-92.89 -268.77,-173.8 -416.28,-261.14l-3400.02 -1993.28c-284.06,-166.32 -562.49,-329.87 -848.64,-497.62 -245.19,-143.75 -389.46,-238.78 -651.46,-364.49 -71.85,-34.47 -173.29,-75.21 -267.8,-48.1l-0.01 0z"/>
  <path class="fil0" d="M7473 4969.25l227.65 1140.67c12.11,63.65 25.05,126.63 36.67,191.67 11.67,65.39 16.78,142.38 35.08,201.27 2.19,1.01 5.55,-0.39 6.84,2.31l47.01 6.12c471.46,9.72 1027.03,3.13 1499.02,-0.64 167.02,-1.33 358.74,6.79 522.53,-4.6 48.58,-138.13 29.17,-401.06 27.82,-564.2 -0.84,-100.94 3.88,-180.01 20.33,-276.75 15.58,-91.56 43.32,-150.39 63.89,-228.52 -7.63,-40.41 -100.25,-33.83 -181.34,-40.19 -170.95,-13.39 -495.93,-14.19 -650.69,11.08l-33.23 176.44 -21.67 -166.78c-151.63,-21.62 -454.93,66.09 -926.35,-99.88 -238.74,-84.05 -497.03,-231.55 -670.67,-360.75l-2.89 12.75z"/>
  <path class="fil2" d="M1926.15 4895.03l225.76 -135.75c35.93,19.64 84.13,54.53 118.6,75.54 212.77,129.75 156.95,112.34 302.56,256.25 35.46,35.05 60.97,50.59 95.93,90.24 31.19,35.37 54.92,59.47 90.71,95.6 44.85,45.27 122.14,145.19 162.73,209.79 273.8,435.78 -120.21,847.85 612.5,878.65 -129.33,196.67 -313.24,144.52 -346.29,105.01 -54.52,-5.28 -781.76,-473.94 -903.56,-541.45 -102.18,-56.62 -198.98,-122.26 -298.91,-183.37 -92.45,-56.54 -555.53,-316.04 -569.32,-397.25 -18.42,-108.48 155.73,-229.78 212.61,-269.56 56.9,-39.79 240.67,-164.58 296.68,-183.7zm1182.7 134.44c68.41,33.39 194.53,52.28 239.88,98.88 82.43,84.72 -37.89,364.97 119.19,566.3 93.03,119.22 269.89,208.68 385.1,289.54 -10.38,27.53 -205.8,256.63 -242.73,293.91 -88.51,-11.04 -225.7,-23.85 -310.35,-51.93 -116.41,-38.61 -132.18,-70.75 -146.41,-209.11 -43.32,-421.09 -50.73,-486.78 -298.67,-784.47 -56.1,-67.36 -114.63,-114.83 -170.25,-185.29 -91.65,-116.13 -66.89,-120.37 -67.05,-282.67 -0.11,-117.69 -127.54,-119.56 -172.61,-178.43l166.28 -92.43 308.34 377.66c49.59,54.43 108.4,118.57 189.28,158.04zm2752.88 -1404.41c-28.06,38.74 -89.93,107.46 -122.82,144.41 -356.83,400.8 -731,877.76 -1091.63,1287.5 -112.04,127.31 -647.87,776.75 -723.72,849.62 -107.61,-53.77 -326.74,-204.16 -387.02,-288.86 -124.6,-175.05 15.82,-429.24 -112.16,-556.76 -123.12,-122.67 -235.64,-32.08 -426.07,-251.23 -42.48,-48.89 -280.14,-327.96 -292.37,-374.95 151.44,-101.17 550.8,-323.47 734.94,-431.86 114.05,-67.12 2165.55,-1278.81 2211.19,-1291.61l167.78 -97.97c18.64,216.15 85.2,600.32 139.4,818.61 17.83,71.82 10.84,63.93 -26.04,108.44l-66.5 79.94c-0.75,-1.48 -3.21,3.28 -4.98,4.72zm209.58 -1160.65c13.4,85.31 12.96,176.89 23.46,264.15 10.31,85.66 23.04,169.77 35.3,251.2 40.06,266.1 108.94,225.2 -72.91,410.44 -40.96,-64.25 -135.15,-710.52 -141.17,-838.59l155.32 -87.2zm302.59 -181.45l131.1 -68.39c11.5,122.09 35.59,254.44 62.37,372.78 9.09,40.16 45.72,140.46 30.19,169.28l-100.97 114.94 -227.78 271.81c-44.88,-59.92 -88.75,-618.44 -100.34,-739.51l205.43 -120.91zm318.25 361.55c-31.29,-31.9 -60.96,-255.84 -71.42,-322.78 -6.27,-40.05 -30.77,-144.22 -11.41,-177.32 8.64,-14.77 105.35,-66.42 125.75,-72.62 66.72,543.08 114.52,372.07 -42.92,572.72zm140.12 -634.22c78.12,-26.29 137.16,-74.48 237.91,-93.31 124.16,-23.2 181.9,33.31 111.75,146.14l-293.19 345.76c-15.59,-45.85 -56.07,-337.63 -56.47,-398.59zm234.19 -193.81c-188.26,32.36 -692.38,349.59 -886.54,463.58 -281.09,165.03 -568.22,327.53 -848.54,497.8 -130.99,79.57 -282.07,161.72 -421.8,246.63 -407.12,247.41 -870.35,507.99 -1280.85,751.14 -569.45,337.3 -1126.82,656.58 -1697.13,995.48 -149.27,88.7 -269.87,168.51 -406.73,262.21 -99.34,68.02 -301.02,248.11 -162.72,421.91 60.51,76.04 291.87,207.91 403.93,273.53 140.24,82.13 279,171.43 419.92,257.47 141.89,86.62 274.89,167.68 414.47,254.44l419.27 257.9c147.02,94.66 337.06,166.36 499.12,37.74 38.35,-30.43 921.89,-1078.82 932.28,-1091.34 205.63,-247.61 412.31,-489.89 620.82,-733.92 297.31,-347.95 636.53,-740.13 924.84,-1090.15 100.94,-122.54 207.14,-249.02 310.58,-366.81 211.86,-241.24 405.04,-487.46 617.9,-728.31 51.48,-58.26 102.75,-119.51 155.37,-183.23 51.15,-61.96 105.11,-120.96 154.58,-184.04 42.24,-53.87 108.55,-155.86 63.41,-251.76 -35.29,-74.95 -127.64,-108.23 -232.18,-90.27z"/>
  <path class="fil2" d="M15996.41 12108.18c4.5,88.54 -21.85,190.63 -75.62,226.08 -119.34,17.06 -177.66,-170.97 -219.16,-271.6 -41.81,-101.38 -364.18,-993.37 -382.63,-1095.42l-30.38 -84.5c-42.97,-128.48 -28.59,-77.45 37.06,-159.76 137.24,-172.09 346.85,-63.81 459.75,-31.58 85.11,24.29 125.25,23.09 219.6,25.52 6.96,138.39 12.33,1349.34 -8.62,1391.26zm-498.95 -6194.77c361.15,232.36 97.16,507.07 414.09,740.76 40.41,29.8 44.93,27.27 83.27,42.93l28.98 15.22 -14.3 3350.29c-218.71,-0.44 -343.79,44.03 -537.25,60.45 -123.68,10.5 -156.79,-7.26 -234.2,-61.21 -114.87,-80.05 -141.22,4.48 -206.26,36.21 -22.27,-32.61 -85.86,-245.04 -104.2,-301.03 -34.55,-105.52 -69.76,-209.1 -103.67,-310.8l-617.59 -1855.56c-54.55,-166.39 -167.84,-480.98 -147.71,-672.57 21.98,-209.26 247.92,-303.91 417.32,-412.04 220.91,-141.02 555.01,-335.42 759.73,-476.26 41.29,-28.4 225.3,-145.78 261.79,-156.4l0 0.01zm220.13 -138.27c81.66,69.04 127.16,112.85 162.7,240.19 44.59,159.8 20.09,180.07 145.61,265.2l-1.67 316.56c-61.02,-12.75 -134.66,-90.55 -159.83,-141.82 -31.48,-64.15 -34.23,-157.27 -48.93,-238.84 -46.07,-255.52 -194.49,-317.19 -218.93,-370.37l121.05 -70.92zm-1759.44 1267.38c24,291.1 154.26,626.66 240.41,883.71 95.44,284.77 185.85,559.2 281.59,845.02 280.05,836.11 555.3,1698.88 841.37,2529.09 48.22,139.94 97.52,278.41 151.51,415.19 92.06,233.18 186.57,693.27 405.57,722.25 173.72,23 210.09,-184.53 223.25,-335.32 14.66,-167.79 1.57,-381.94 1.96,-555.69l22.2 -5037.65c0.88,-181.89 10.61,-388.57 1.76,-567.43 -8.11,-163.8 -78.6,-325.68 -232.06,-334.72 -126.21,-7.43 -308.28,127.37 -393.38,178.76 -116.4,70.31 -1343.65,834.11 -1378.1,865.67 -93.14,85.35 -182.29,194.36 -166.08,391.12z"/>
  <path class="fil0" d="M6538.49 6498.91l1036.76 4.61c-94.81,-493.19 -190.88,-1230.92 -428.78,-1667.53 -64.15,-117.74 -44.04,-126.34 -175.03,-172.65 -46.51,-16.45 -90.1,-28.88 -134.89,-42.94 -82.3,-25.82 -23.71,-28.38 -137.72,-32 -100.73,-4.64 -168.69,61.02 -218.25,108.95 -198.98,192.43 -63.96,522.81 -214.68,801.14 -133.03,245.65 -242.37,315.14 -320.38,686.06 -26.11,124.15 -13.41,194.39 -22.86,314.08l615.83 0.28z"/>
  <path class="fil1" d="M6332.6 3555.61c-23.63,5.61 -114.62,117.22 -133.88,140.12 -58.37,69.39 5.55,71.16 -3.87,239.9 -12.52,224.17 -129.3,337.13 -288.21,416.86 -41.07,20.6 -60.17,23.67 -60.47,81.81 -0.42,84.16 29,177.86 -12.45,251.13 -86.36,152.7 -356.87,95.38 -399.77,167.84 -69.43,117.27 151.19,170.87 190.39,345.2 44.18,196.47 -75.94,313.63 -154.52,409.99 -221.45,271.6 -45.03,358.73 -158.49,679.58 -16.05,45.4 -77.26,169.07 -72.86,207.86l588.39 2.94c-22.17,-211.43 29.91,-414.89 93.28,-583.77 70.99,-189.17 146.49,-289.83 240.58,-436.72 172.79,-269.75 -27.82,-772.02 395.24,-959.79 188.94,-83.86 401.84,18.84 555.26,-122 114.63,-105.22 188.26,-290.66 166.53,-512.19 -26.22,-267.25 -292.48,-624.49 -362.86,-1003.15 -31.62,12.05 -65.59,56.31 -85.84,82.34 -25.05,32.22 -8.46,63.85 -0.65,123.2 35.3,268.23 130.27,573.43 27.67,842.67 -28.21,74.03 -74.5,148.44 -142.83,179.31 -88.74,40.09 -180.87,7.84 -239.2,-39.91 -118.22,-96.78 -119.84,-326.76 -141.44,-513.22z"/>
  <path class="fil0" d="M12029.76 9968.44l-554.95 933.7c-148.4,265.56 -325.64,550.55 -482.85,820.93 -22.22,38.23 -58.05,85.72 -70.75,129.97 188.03,-45.94 294.54,-151.37 520.71,-149.65 172.94,1.31 340,29.96 516.48,32.62 117.02,1.77 85.34,2.04 183.01,-90.88 381.36,-362.81 544.9,-669.22 771.01,-1142.3 65.05,-136.12 137.01,-282.56 19.03,-394.77 -101.12,-96.16 -260.02,9.92 -482.56,-32.65 -74.46,-14.25 -130.64,-52.42 -178.1,-94.15 -48.75,-42.87 -168.1,-16.74 -241.03,-12.82z"/>
  <path class="fil3" d="M5590.06 16746.65c32.56,38.12 92.38,61.85 133.77,86.24l400.17 234.69c195.66,113.29 360.17,214.99 539.41,316.06 178.99,100.92 359.45,209.56 534.41,311.86 191.43,111.94 491.22,278.61 673.75,393.47 88.21,55.52 328.8,231.2 458.81,133.96 83.18,-62.21 56.43,-247.59 58.26,-368.51l24.2 -1896.61c0.35,-37.07 -1.77,-67.78 -13.39,-99.46 -12.64,-34.46 -19.18,-51.56 -41.82,-70.33 -32,182.75 -18.79,248.32 -76.32,471.25 -216.32,838.16 -1118.71,885.43 -1858.24,747.14 -309.9,-57.95 -555.98,-149.6 -833.01,-259.76z"/>
  <path class="fil1" d="M9955.92 6504.92l574.4 -1.05 149.25 -324.74c116.09,-231.32 206.76,-382.39 379.4,-569.68 53.17,-57.69 208.31,-158.2 330.54,-140.42 83.18,12.11 214.52,149.63 278.7,195.74 199.42,143.29 602.37,191.83 418.08,667.24 -23.58,60.84 -67.86,112.33 -84.61,159.06l176.88 1.54c62.25,-154.39 247.79,-408.94 156.03,-605.35 -32.59,-69.77 -254.54,-280.97 -63.59,-395.17 46.94,-28.08 108.35,-27.55 169.34,-34.53 -25.39,-54.69 -204.72,-227.47 -231.38,-281.65 -157.89,24.96 -287.04,67.88 -462.72,29.8 -263.02,-57.02 -492.81,-255.31 -354.7,-558.39 101,-221.64 188.4,-220.19 84.26,-313.1 -22.61,28.44 -36.38,101.09 -120.45,217.09 -212.23,292.83 -241.2,255.08 -366.32,657.36 -62.8,201.9 -187.83,552.22 -395.08,630.31 -249.85,94.15 -451.8,-133.16 -169.33,-558.79 93.93,-141.54 192.37,-256.88 278.31,-407.13 156.21,-273.1 68.67,-609.68 380.18,-988.61 -9.68,-27.84 -110.14,-147.05 -144.33,-163.83 -42.17,100.99 -100.21,209.89 -146.48,318.15 -178.99,418.72 -93.85,741.66 -387.59,1035.23 -44.2,44.16 -69.54,80.39 -109.63,118.93 -127.89,122.97 -222,147.03 -286.48,423.5 -54.02,231.67 -22.5,447.04 -28.46,681.15 -1.92,75.22 -22.75,143.56 -24.22,207.34z"/>
  <path class="fil2" d="M1123.5 10770.38c151.41,19.1 560.81,244.49 640.7,327.65 -9.05,76.72 -178.52,538.19 -216.2,638.82 -62.64,167.32 -163.54,516.12 -277.12,586.72 -193.19,120.08 -145.41,-571.89 -145.37,-692.14 0.1,-277.3 -16.25,-588.45 -2.01,-861.05zm-1.61 -179.29c112.75,25.74 151.41,76.23 363.95,89.03 206.71,12.44 356.12,-22.17 426.92,-19.27 -13.93,55.35 -88.58,293.85 -114.32,329.48 -60.82,-26.25 -231.65,-163.91 -484.35,-263.12 -63.63,-24.98 -124.26,-41.45 -190.59,-63.18l-1.61 -72.94zm831.7 -40.8c-244.7,39.25 -502.16,63.52 -736.71,-30.33 -124.29,-49.73 -94.92,-48.58 -93.86,-183.39 128.14,8.3 306.12,93.15 650.01,88.5 80.06,-1.09 158.95,-18.06 223.24,-16.98l-42.68 142.2zm77.76 -252.83c-80.61,4.65 -143.32,22.49 -232.92,24.77 -239.43,6.09 -449.23,-38.16 -676.7,-97.05l-1.59 -82.81c206.36,29.56 191.83,71.69 508.97,60.19 260.63,-9.45 285.47,-57.83 464.48,-100.45 -3.12,38.37 -47.09,167.4 -62.24,195.35zm-912.7 -271.63c-16.09,-519.46 -2.43,-1056.04 -6.61,-1577.85l-10.62 -2379.14c-2.42,-335.86 63.85,-452.47 346.12,-275.49l1219.18 761.99c370.67,228.33 480.05,263.41 356.08,746.64 -53.65,209.14 -125.59,403.16 -192.12,603.46 -220.58,664.12 -458.64,1350.51 -669.98,2014.06 -12.29,38.57 -9.85,46.74 -39.51,61.53 -197.97,98.72 -456.11,133.62 -678.64,117.54 -80.37,-5.81 -271.76,-31.77 -323.9,-72.74zm2045.11 -2915.58c27.55,-209.29 -22.54,-320.99 -125.35,-427.16 -70.52,-72.82 -906.75,-582.6 -1028,-657.02 -133.28,-81.8 -589.88,-389.01 -712.1,-414.53 -383.67,-80.11 -297.74,600.69 -296.11,821.38 10.99,1493.79 11.02,2985.2 19.77,4478.85 2.18,373 -6.68,754.9 1.35,1126.12 3.35,154.74 30.55,366.4 166.65,397.74 254.22,58.54 372.11,-467.63 449.51,-675.61 49.79,-133.76 105.68,-272.54 150.25,-407.81l841.55 -2528.47c93.98,-286.16 187.19,-566.4 280.98,-844.74 85.81,-254.66 214.4,-586.95 251.5,-868.75z"/>
  <path class="fil0" d="M8520.95 8222.96c39.23,-12.16 163.89,-90.46 209.42,-116.38 165.27,-94.1 463.26,-210.58 610.4,-354.31 84.55,-82.6 342.02,-440.01 387.54,-577.53 17.99,-54.33 32.59,-219 24.07,-279.22 -157.45,-4.92 -1357.36,-15.2 -1490.18,9.74 -130.06,24.41 -288.62,62.05 -423.64,74.09 -3.59,99.74 49.97,289.33 70.73,397.85 10.25,53.58 47.43,374.15 63.75,397.71 15.99,21.82 14.23,15.69 41.47,27.63 12.38,5.43 25.52,11.28 41.14,19.03 335.99,166.68 412.4,353.13 465.3,401.39z"/>
  <path class="fil2" d="M8357.62 15788.02c22.64,18.77 29.18,35.87 41.82,70.33 11.62,31.68 13.74,62.39 13.39,99.46l-24.2 1896.61c-1.83,120.92 24.92,306.3 -58.26,368.51 -130.01,97.24 -370.6,-78.44 -458.81,-133.96 -182.53,-114.86 -482.32,-281.53 -673.75,-393.47 -174.96,-102.3 -355.42,-210.94 -534.41,-311.86 -179.24,-101.07 -343.75,-202.77 -539.41,-316.06l-400.17 -234.69c-41.39,-24.39 -101.21,-48.12 -133.77,-86.24 -24.62,-0.02 -1750.77,-1013.81 -2008.02,-1167.23 -65.43,-39.02 -623.96,-356.93 -665.84,-392 47,-61.32 165.66,-94.41 248.38,-140.73 118.99,-66.63 99.15,-98.41 149.38,-231.6 57.83,-5.55 1130.62,197.74 1282.21,225.95 1061.75,197.61 2123.25,379.12 3187.71,577.35 152.84,28.46 528.38,56.44 573.74,169.63l0.01 0zm-5949.54 -964.7c-29.85,-37.84 -69.4,-127.7 2.16,-150.83 83.78,-27.07 669.7,94.26 787.9,115.57 -5.93,101.4 -72.12,185.58 -140.85,219.11 -40.12,19.57 -84.93,32.01 -128.59,48.52 -50.72,19.18 -85.83,46.16 -122.74,59.71 -60.13,-30.26 -360.98,-245.32 -397.88,-292.08zm3711.86 2358.77c266.54,160.1 523.46,307.03 790.53,462.65 268.44,156.42 520.72,309.18 790.19,462.83 70,39.91 131.49,77.74 194.23,119.09 217.38,143.25 548.6,214.26 591.68,-104.22 8.38,-61.92 2.84,-497.59 7.16,-617.78 14.22,-395.08 5.8,-827.28 16,-1235.44 4.59,-183.63 32.84,-427.22 -71.95,-549.7 -137.5,-160.72 -500.82,-172.72 -723.43,-216.18 -88.95,-17.36 -177.56,-32.73 -267.4,-48.23 -1056.49,-182.3 -2121.93,-389.69 -3183.4,-576.34l-1588.58 -288.13c-79.17,-13.98 -210.99,-38.3 -287.25,-16.67 -76.52,21.7 -134.3,86.36 -115.14,190.11 28.6,154.94 197.14,242.51 307.62,318.97 366.39,253.55 785.53,485.22 1168.31,711.54 515.23,304.62 1079.04,620.93 1581.05,925.14 258.57,156.69 530.59,306.31 790.39,462.36l-0.01 0z"/>
  <path class="fil0" d="M7369.48 13818.95c-47.41,35.9 -89.24,92.57 -140.89,135.36 -194.36,161.06 -256.89,293.74 -401.37,436.86 -180.14,178.46 -249.39,233.81 -383.84,453.98 -50.2,82.23 -61.38,103.66 -34.4,218.96 135.4,32.49 298.61,55.4 437.29,78.6 320.71,53.66 562.3,105.31 894.69,140.51 72.24,7.65 181.03,15.51 255.52,8.4 246.31,-23.53 13.57,-388.04 -52.39,-501.28l-480.03 -815.01c-28.3,-46.76 -58.78,-109.61 -94.58,-156.38z"/>
  <path class="fil0" d="M13509.39 5839.78c3.9,30.9 11.38,109.39 -22.08,126.1l-36.66 -465.68c-89.19,1.47 -285.56,44.96 -401.05,56.89 -62.63,6.46 -123.96,-3.87 -122.7,20.66l202.31 243.19c35.92,43.88 68.92,81.18 104.8,123.84 27.54,32.75 75.28,94.46 100.69,115.39 42.14,6.88 181.84,81.37 246.23,105.33 84.11,31.31 181.16,59.14 278.59,77.04 186.13,34.22 437.14,-23.74 598.25,-88.98 26.23,2.87 226.02,-127.26 268.37,-153.5 42.74,-26.49 86.67,-55.39 132.4,-79.03 29.79,-15.39 105.87,-62.57 125.05,-80.7 -8.08,-5.65 -106.31,-13.08 -132.53,-21.45 -315.75,-100.8 -193.69,-523.68 -598.28,-523.12 -209.83,0.29 -340.61,80.6 -514.15,132.5 -143.64,42.97 -124.56,-0.43 -167.55,153.69 -12.27,43.99 -22.92,82.08 -32.82,127.24l-15.48 104.81c-6.29,22.69 0.62,11.38 -13.39,25.78z"/>
  <path class="fil3" d="M8660.65 9701.81l-40.49 1.81c37.67,-149.47 350.98,-619.01 482.52,-733.1 593.74,-514.97 1014.95,-449.02 1303.13,-1135.74 58.28,-138.88 105.81,-309.33 146.52,-462.48 21.58,-81.19 42.24,-159.93 63.18,-242.05l58.21 -202.21c12.17,-23.51 -0.81,-13.68 23.15,-24.96l1110.81 7.92c-25.95,-21.04 -108.75,-12.66 -162.55,-12.89l-491.06 -1.89c-216.9,-2.18 -437.08,-4.29 -653.33,2.93 -209.91,413.48 -108.11,541.01 -223.32,739.73l-254.8 388.81c-227.26,255.12 -728.61,415.24 -1038.41,562.04 -188.51,89.32 -539.48,430.12 -628.06,659.13 -51.31,132.69 -102.41,356.52 -117.97,507.43 45.46,6.5 392.08,-39.59 422.47,-54.48z"/>
  <path class="fil3" d="M3233.89 12554.33c-6.85,-47.19 39.51,-137.32 54.63,-186.48 19.88,-64.62 38.78,-131.17 55.48,-199.77 33.01,-135.56 52.84,-268.13 115.84,-382.5 119.82,-217.54 288.84,-347.73 590.84,-408.68 427.8,-86.35 570.63,2 922.4,10.15 164.73,3.82 326.71,-2.98 491.41,-6.94 310.02,-7.45 183.17,-18.07 483.43,29.76 -19.31,-53.55 -72.31,-131.37 -109.8,-194.47 -65.27,-109.85 -32.92,-105.11 -158.95,-136.52 -385.11,-95.99 -685.89,1.89 -1112.14,13.21 -99.93,2.65 -196.91,2.22 -296.68,-2.42 -253.69,-11.8 -542.78,-76.52 -765.21,106.49 -289.45,238.15 -352.1,428.17 -396.24,804.01 -10.87,92.56 -16.85,172.86 -39.87,257.99 -17.43,64.44 -69.47,179.45 -76.35,228.4l241.21 67.77z"/>
  <path class="fil0" d="M5985.4 9648.28c4.06,45.88 79.17,215.94 97.92,296.12 54.21,231.91 0.65,291.47 341.77,446.61 164.05,74.61 158.18,89.39 250.13,137.38 12.31,-24.17 38.98,-160.4 54.72,-205.05 153.95,-436.67 456.65,-670.97 668.01,-1099.37 -21.33,84.31 -499.82,384.75 -593.66,454.28l-190.45 158.88c54.33,-185.69 389.45,-400.35 437.6,-457.13 -4.07,-22.32 12.4,-9.07 -29.89,-25.19l-282.91 -106.37c-55.41,-23.4 -108.24,-44.79 -158.26,-70.14 -74.95,-37.97 -90.26,-11.49 -154.21,28.33 -81.34,50.64 -186.33,143.11 -246.58,202.03 -43.49,42.52 -177,195.64 -194.19,239.62z"/>
  <path class="fil0" d="M4996.96 6494.63c8.91,-71.27 48.09,-128.02 68,-198.39 65.73,-232.22 26.9,-419.17 105.14,-673.67 37.22,-121.07 125.72,-274.33 128.84,-400.32 2.2,-88.96 -24.59,-145.25 -42.63,-223.65 -18.09,-78.58 -8.44,-113.67 12.12,-177.05 2.22,-6.82 5,-17.64 3.94,-24.57 -4.16,-27.26 27.08,1.39 -10.01,-17.42l-967.39 1127.3c-46.35,54.8 -95.37,100.93 -138.94,161.99 12.82,23.84 174.17,178.66 208.83,210.59 65.26,60.14 152.52,133.55 210.63,209.43l421.47 5.76z"/>
  <path class="fil0" d="M3188.65 6470.36c-108.75,-60.95 -250.69,-213.43 -317.31,-374.17 -67.75,-163.48 -118.5,-358.11 -204.24,-515.24 -163.35,-299.35 -401.71,-488.99 -677.14,-660.4 -32.76,-20.39 -31.09,-28.11 -63.81,-25.52 -56.01,19.12 -239.78,143.91 -296.68,183.7 -56.88,39.78 -231.03,161.08 -212.61,269.56 13.79,81.21 476.87,340.71 569.32,397.25 99.93,61.11 196.73,126.75 298.91,183.37 121.8,67.51 849.04,536.17 903.56,541.45z"/>
  <path class="fil3" d="M8275.99 12159.5c-20.85,-176 7.25,-416.23 22.42,-588.39 17,-192.9 16.45,-392.6 33.63,-585.31 24.57,-275.54 61.93,-532.76 125.8,-798.05 15.34,-63.72 35.49,-202.12 73.46,-240.48 96.04,-72.72 1336.08,-43.29 1529.19,-36.07 254.97,9.54 492.18,16.38 746.11,43.98 341.19,37.08 353.5,55.65 736.93,68.86l1.85 16.96c24.1,-20.38 17.62,-18.45 31.74,-44.64 19.42,-36.04 60.33,-96.43 65.72,-121.8 -294.88,-9.67 -563.24,-41.35 -847.55,-68.48 -283.46,-27.04 -589.67,-24.79 -877.7,-29.33 -302.34,-4.76 -577.16,-13.48 -882.22,8.65 -147.47,10.69 -275.58,12.25 -420.44,33.32 -102.93,14.97 -300.81,61.1 -392.08,58.7 -58.11,613.17 -69.62,1237.89 -147.9,1869.24 -23.47,189.31 -49.65,188.43 23.58,256.33l177.46 156.51z"/>
  <path class="fil0" d="M12243.56 6905.02c310.04,224.32 69.01,575.47 52.48,700.6 -30.48,230.65 212.96,512.53 314.28,617.39 95.54,-141.07 203.08,-332.4 289.22,-484.82 89.94,-159.14 187.54,-324.86 284.98,-485.57 33.41,-55.1 121.31,-192.96 118.99,-269.44 -2.01,-66.5 -62.2,-65.28 -125.83,-68.98 -59.97,-3.49 -110.4,-9.26 -169.09,-9.5 -252.61,-1.02 -513.24,-7.05 -765.03,0.32z"/>
  <path class="fil3" d="M11010.65 14326.72c11.11,-93.1 -12.31,-133.38 -21.34,-223.93 -29.58,-296.5 27.95,-313.17 -61.82,-746.68 -43.22,-208.7 -100.97,-408.66 -215.63,-579.6 -28.28,-42.15 -98.65,-126.23 -110.92,-166.66 173.53,-66.67 374.12,-175.1 584.6,-252.79 499.72,-184.45 727.34,-237.94 1126.68,-558.03 213.93,-171.48 561.4,-704.02 704.18,-980.7 125.94,-244.02 145.74,-335.16 392.66,-453.88 470.38,-226.16 591.55,45.42 1021.26,61.76 171.99,6.54 293.81,45.03 374.8,38.38 -35.43,-110.31 -11.68,-97.19 -289.41,-153.86 -206.06,-42.05 -255.62,-31.19 -395.42,-55.44 -254.74,-44.17 -356.24,-242.76 -696.5,-78.94 -109.53,52.74 -186.15,118.45 -255.84,192.33 -110.12,116.75 -114.81,142.86 -173.71,274.27 -124.29,277.31 -344.62,588.01 -531.67,806.66 -69,80.65 -133.41,160.86 -200.31,248.55 -49.44,64.79 -89.21,134.09 -165.39,165.19 -83.08,33.93 -75.61,79.77 -389.09,176.7 -117.58,36.36 -223.65,84.49 -328.93,120.2 -233.83,79.31 -433.24,122.75 -661.96,236.26 -150.03,74.45 -183.03,68.42 -242.68,208.58 15.33,27.66 39.82,53.37 58.72,79.34 60.77,83.49 112.34,168.19 158.56,265.12 349.65,733.19 114.93,943.19 289.29,1327.45 2.69,5.94 6.77,15.53 10.77,22.65 0.97,1.71 2.1,3.86 3.13,5.54 1.05,1.72 2.41,3.84 3.5,5.48 6.57,9.89 6.92,10.08 12.47,16.05z"/>
  <path class="fil0" d="M11001.67 3307.39c27.54,-32.31 117.21,-235.58 186.55,-336.89 36.33,-53.09 131.24,-176.53 176.98,-221.1 23.82,-23.2 53.54,-39.66 66.61,-67.21 -56.04,-40.02 -125.51,-75.4 -184.29,-110.31l-560.58 -328.31c-159.86,-90.26 -395.32,-256.73 -575.42,-312.82 -74.69,-23.27 -214.47,-42.94 -190.48,70.97 15.4,73.14 201.11,273.5 255.58,337.17 95.14,111.23 183.86,214.64 275.87,325.31l549.18 643.19z"/>
  <path class="fil1" d="M9746.34 15235.9c32.08,-413.86 545.67,-380.76 575.93,-658.58 25.39,-233.23 -48.15,-206.31 116.73,-502.62 84.33,-151.56 48.27,-34.97 46.65,-241.94 -0.76,-96.05 15.07,-203.73 7.08,-295.19 -64.27,61.62 -149.52,290.49 -176.7,405.6 -18.56,78.57 -25.18,161.46 -52.47,235.33 -69.6,188.4 -190.81,206.6 -315.02,260.89 -68.84,30.08 -116.55,62.99 -185.44,101.96 -268.4,151.82 -346.04,29.58 -428.16,-3.59 -33.2,46.97 -62.28,106.26 -95.24,157.35 -23.61,36.6 -67.6,118.6 -77.27,166.87 -12.72,63.53 41.97,362.78 66.44,410.11 58.51,41.93 190.15,9.82 265.74,-0.11 79.86,-10.48 174.46,-18.7 251.73,-36.08z"/>
  <path class="fil1" d="M2444.95 4586.2c45.07,58.87 172.5,60.74 172.61,178.43 0.16,162.3 -24.6,166.54 67.05,282.67 55.62,70.46 114.15,117.93 170.25,185.29 247.94,297.69 255.35,363.38 298.67,784.47 14.23,138.36 30,170.5 146.41,209.11 84.65,28.08 221.84,40.89 310.35,51.93 36.93,-37.28 232.35,-266.38 242.73,-293.91 -115.21,-80.86 -292.07,-170.32 -385.1,-289.54 -157.08,-201.33 -36.76,-481.58 -119.19,-566.3 -45.35,-46.6 -171.47,-65.49 -239.88,-98.88 -80.88,-39.47 -139.69,-103.61 -189.28,-158.04l-308.34 -377.66 -166.28 92.43z"/>
  <path class="fil3" d="M13895.64 14504.43c293.65,-46.43 602.97,-105.06 894.16,-158.27 295.42,-53.99 603.07,-99.04 887.84,-161.78 347.03,-76.45 251.7,-241.44 183.3,-469.73l-192.25 -595.36c-10.76,-32.6 -111.36,-368.97 -133.74,-392.84 -14.55,159.8 93.9,389.78 -57.37,756.07 -233.45,565.31 -867.07,813.62 -1424.76,963.78 -29.2,7.86 -57.4,14.11 -88.15,21.36 -30.73,7.25 -50.82,10.91 -69.03,36.77z"/>
  <path class="fil0" d="M10725.2 6502.78l1103.94 -6c11.09,-75.86 73.38,-121.39 120.35,-275.83 34.79,-114.42 25.91,-209.76 -96.17,-250.6 -130.12,-43.53 -160.19,-41.85 -260.98,-119.64 -193.83,-149.61 -265.83,-314.74 -448.76,-71.82 -81.11,107.71 -401.9,621.87 -418.38,723.89z"/>
  <path class="fil3" d="M3687.19 14583.99c-12.35,-54.19 -122.76,-162.46 -160.96,-209.91 -54.95,-68.24 -101.66,-138.03 -150.12,-213.66 -91.92,-143.47 -189.93,-305.52 -246.73,-489.69 -101.34,-328.59 -103.6,-594.19 19.37,-918.13 23.07,-60.76 134.53,-48.12 233.46,-49.77 34.28,-0.58 50.41,1.53 72.13,-21.5 -141.9,-4.69 -308.95,-22.79 -445.45,-15.77 -77.01,3.96 -131.72,3.54 -171.37,55.8 -32.14,42.37 -64.46,75.62 -89.18,138.35 -84.4,214.12 -31.47,589.42 13.19,816.16 52.38,265.91 96.33,433.68 320.35,592.05l403.91 280.85c32.91,12.49 155.96,28.21 201.4,35.22z"/>
  <path class="fil3" d="M1123.5 10770.38c-14.24,272.6 2.11,583.75 2.01,861.05 -0.04,120.25 -47.82,812.22 145.37,692.14 113.58,-70.6 214.48,-419.4 277.12,-586.72 37.68,-100.63 207.15,-562.1 216.2,-638.82 -79.89,-83.16 -489.29,-308.55 -640.7,-327.65z"/>
  <path class="fil0" d="M15319 10967.24c18.45,102.05 340.82,994.04 382.63,1095.42 41.5,100.63 99.82,288.66 219.16,271.6 53.77,-35.45 80.12,-137.54 75.62,-226.08l3.69 -1165.4c-130.63,28.03 -226.49,1.57 -351.93,-21.43 -67.9,-12.45 -297.86,-16 -329.17,45.89z"/>
  <path class="fil3" d="M4001.24 7338.92c5.85,-3.31 -3.75,-15.3 33.3,14.9 239.73,195.37 435.66,132.16 601.01,305.95 189.97,199.66 95.27,434.33 4.02,641.15 -36.78,83.36 -18.76,72.14 -53.81,55.49 5.55,11.33 83.02,130 91.33,137.14 1.44,-1.73 3.15,-4.18 3.99,-5.44l18.87 -34.32c72.03,-153.86 252.65,-275.47 402.91,-426.68 60.51,-60.89 167.6,-139.69 144.14,-287.06 -23.78,-149.35 -82.39,-202.55 -160.7,-276.86 -235.32,-223.28 -437.49,-78.13 -749.44,-123.88 -340.25,-49.9 -412.79,-375.31 -472.57,-411.34 -85.27,33.9 -11.33,167.34 16.25,216.75 20.13,36.03 94.71,175.59 120.7,194.2z"/>
  <path class="fil1 str0" d="M12579.45 5166.94c17.04,31.85 76.26,96.49 102.96,127.12 58.35,66.92 38.77,85.92 147.58,70.06 534.05,-77.85 622.1,-61.7 1175.95,-252.21 640.07,-220.18 606.67,223.94 869.89,435.48 112.96,90.78 210.84,95.17 325.29,158.74l184.43 -109.7c-28.69,-104.77 -367.42,-178.81 -535.58,-429.64 -55.8,-83.22 -130.42,-231.55 -194.54,-287.92 -81.87,-71.98 -308.33,-25.52 -415.43,0.5 -223.61,54.32 -314.36,144.53 -744.43,228.77 -142.11,27.84 -279.94,41.62 -428.21,51.57 -161.87,10.87 -336.51,-7.15 -487.91,7.23z"/>
  <path class="fil3" d="M12337.36 15077.36c7.97,13.57 1.56,8.53 16.62,18.39l92.6 25.96c46.57,10.11 92.49,18.91 138.82,23.07 98.59,8.87 218.03,5.36 316.51,-4.78 199.78,-20.55 328.85,-103.63 546.88,-89.97 146.98,9.2 344.76,89.18 575.46,60.08 289.25,-36.48 407.42,-172.59 448.65,-192.44 -9.01,53.47 -42.78,99.44 -64.06,138.76 50.35,-41.47 182.4,-120.56 254.47,-178.23 80.9,-64.74 191.95,-231.81 -46.72,-209.2 -144.99,13.74 -594.91,100.79 -767.12,132.08 -251.94,45.77 -498.18,98.31 -752.81,135.71 -109.87,16.14 -712.55,108.8 -759.3,140.57z"/>
  <path class="fil0" d="M11398.38 4240.05c-40.58,-44.04 -76.02,-93.89 -119.6,-141.37 -40.91,-44.56 -80.69,-93.3 -124.72,-134.96 -217.36,197.15 -229.59,704.1 -341.88,925 -77.11,151.69 -164.16,252.36 -254.26,380.37 -402.6,571.96 35.82,631.24 206.17,240.4 68.95,-158.19 114.84,-290.14 171.31,-463.67 124.91,-383.87 398.44,-514.43 462.98,-805.77z"/>
  <path class="fil3" d="M1926.15 4895.03c32.72,-2.59 31.05,5.13 63.81,25.52 275.43,171.41 513.79,361.05 677.14,660.4 85.74,157.13 136.49,351.76 204.24,515.24 66.62,160.74 208.56,313.22 317.31,374.17 33.05,39.51 216.96,91.66 346.29,-105.01 -732.71,-30.8 -338.7,-442.87 -612.5,-878.65 -40.59,-64.6 -117.88,-164.52 -162.73,-209.79 -35.79,-36.13 -59.52,-60.23 -90.71,-95.6 -34.96,-39.65 -60.47,-55.19 -95.93,-90.24 -145.61,-143.91 -89.79,-126.5 -302.56,-256.25 -34.47,-21.01 -82.67,-55.9 -118.6,-75.54l-225.76 135.75z"/>
  <path class="fil0" d="M12293.47 6487.77c135.29,9.66 759.23,18.11 855.44,-58.22 73.95,-58.67 8.27,-160.42 -34.64,-204.21 -54.58,-55.71 -90.28,-106.57 -143.78,-161.03 -48.17,-49.03 -97.55,-114.02 -145.15,-168.22l-291.22 -331.83c-437.42,-13.38 -137.79,128.97 -81.13,350.62 48.5,189.72 -90.53,455.03 -159.52,572.89z"/>
  <path class="fil1" d="M10129.6 13678.93c70.85,-97.4 51.32,-489.64 178.35,-505.95 92.96,-11.94 185.27,70.9 219.28,118.32 149.97,209.06 -12.73,538.87 114.86,900.46 48.82,138.37 195.63,343.34 325.71,370.07 -38.37,-111.39 -110.85,-153.65 -145.38,-458.17 -20.79,-183.37 -10.87,-390.27 -36.21,-565.1 -22.61,-155.95 -87.97,-321.96 -143.94,-455.64 -43.71,-104.41 -158.92,-326.88 -224.8,-376.64 -31.01,30.94 -292.78,488.35 -345.44,577.68 -25.42,43.15 -58.4,72.24 -44.92,125.96 19.94,79.47 55.16,226.96 102.49,269.01z"/>
  <path class="fil0" d="M9943.34 13509.75c-41.29,45.8 -544.07,906.98 -550.96,942.25 61.78,36.12 100.24,85.55 214.98,51.36 61.32,-18.27 142.19,-69.85 184.07,-94.73 184.37,-109.52 261.07,-88.93 345.91,-212.2 55.07,-80.01 56.72,-214.45 88.97,-325.11 51.55,-176.89 130.32,-347.83 239.16,-470.36 -14.39,-51.93 -73.78,-114.06 -128.09,-122.04 -25.45,48.14 -44.12,189.93 -57.41,252.78 -26.44,125.03 -95.27,454.3 -243.06,198.58 -58.06,-100.45 -72.86,-191.84 -93.57,-220.53z"/>
  <path class="fil3" d="M5262.36 4779.56c37.09,18.81 5.85,-9.84 10.01,17.42 1.06,6.93 -1.72,17.75 -3.94,24.57 -20.56,63.38 -30.21,98.47 -12.12,177.05 18.04,78.4 44.83,134.69 42.63,223.65 -3.12,125.99 -91.62,279.25 -128.84,400.32 -78.24,254.5 -39.41,441.45 -105.14,673.67 -19.91,70.37 -59.09,127.12 -68,198.39l128.9 -1.73c38.71,-108.13 113.03,-261.54 122.44,-373.34 16.05,-190.63 -30.47,-285.28 57.72,-454.79 75.49,-145.11 322.45,-304 194.37,-504.08 -29.69,-46.38 -85.92,-77.71 -124.57,-129.27 -99.44,-132.66 -55.64,-277.68 88.36,-308.97 211.78,-46.03 308.24,0 285.78,-214.95 -25.99,-248.73 65.74,-198.06 200.99,-297.22 100.78,-73.89 155.09,-189.79 140.35,-371.72 -32.42,9.85 -90.85,88.28 -111.12,112.86 -37.78,45.8 -221.38,237.36 -259.52,290.68 -20.03,28 -32.06,34.96 -51.12,59.05l-175.68 205.85c-15.85,17.76 -13.97,11.59 -28.85,29.88l-202.65 242.68z"/>
  <path class="fil1" d="M9497.32 17099.07c79.51,-55.05 198.5,-196.1 258.11,-279.12 76.95,-107.19 140.81,-259.71 69.49,-413.74 -31.98,-69.07 -72.19,-104.02 -103.69,-167.41 -148.08,-298.08 -74.44,-433.45 -57.37,-672 -59.05,-1.55 -331.72,45.38 -366.87,69.36 -23.91,75.93 -33.76,290.98 -7.1,364.98 43.88,121.82 141.32,95.6 230.66,165.96 7.97,88.61 -99.85,141.3 -140.17,227.09 -39.09,83.19 93.24,147.48 147.23,182.24 165.62,106.63 1.46,358.61 -30.29,522.64z"/>
  <path class="fil3" d="M9969.1 15193.71l-14.61 -4.56c133.27,-279.2 360.14,-190.93 506.49,-440.54 76.67,99.42 102.47,196.77 256.44,274.83 47.23,23.95 43.79,12.74 30.27,38.91 104.59,-13.93 198.02,-40.07 313.28,-50.98 85.88,-8.12 249.68,-22.7 311.27,-53.68 -19.44,-53.98 -197.46,-117.47 -259.75,-151.69 -187.08,-102.75 -421.04,-318.1 -526.49,-506.6 -26.47,-47.33 -38.88,-104 -66.93,-147.94 -25.9,22.04 -61.71,106.64 -73.65,140.57 -56.85,161.55 42.87,357.71 -134.57,509.39 -143.44,122.62 -436.31,191.72 -457.17,414.62 31.6,-2.83 90.73,-6.82 115.42,-22.33z"/>
  <path class="fil0" d="M1384.74 13365.73c297.55,-101.29 233.58,-331.66 253.82,-437.81 28.97,-151.92 201.22,-331.25 275.56,-426.87 91.14,-117.23 180.11,-299.78 202.31,-488.79 20.88,-177.81 -19.59,-456.79 -97.86,-582.26 -25.35,29.68 -471.24,1420.07 -561.35,1690.23 -21.45,64.32 -63.21,187.34 -72.48,245.5z"/>
  <path class="fil3" d="M8400.28 14837.78c7.27,-279.21 -357.2,-685.86 -513.76,-955.31 -127.09,-218.72 -93.27,-363.28 -55.89,-619.87 13.72,-94.18 38.08,-271.03 -18.09,-330.06 -29.73,-31.25 -185.79,-138 -254.14,-88.15 -34.83,25.41 -16.58,117.06 -20.25,167.1 -4.38,59.73 -7.92,116.8 -14.44,174.15 -5.28,46.33 -30.7,123.77 -16.75,160 19.26,50.05 305.7,508.21 343.72,573.59 175.19,301.23 358.3,637.14 549.6,918.55z"/>
  <path class="fil1" d="M12122.82 15734.01c-49.21,217.81 116.11,481.72 241.97,533.44 98.83,-50.59 167.25,-96.24 267.18,-152.31 79.82,-44.79 63.06,-27.5 101.79,-110.03 132.35,-281.99 100.1,-401.25 458.29,-557.01l40.02 -26.56c-114.84,-4.08 -261.89,28.4 -353.35,68.48 -119.82,52.51 -158.7,96.77 -225.93,188.53 -94.88,129.49 -235.54,233.11 -411.43,157.94 -92.82,-39.68 -74.81,-73.97 -118.54,-102.48z"/>
  <path class="fil0" d="M4585.76 8356.4c35.05,16.65 17.03,27.87 53.81,-55.49 91.25,-206.82 185.95,-441.49 -4.02,-641.15 -165.35,-173.79 -361.28,-110.58 -601.01,-305.95 -37.05,-30.2 -27.45,-18.21 -33.3,-14.9 42.02,112.17 567.72,953.27 584.52,1017.49z"/>
  <path class="fil3" d="M6390.31 7448.16l-2.91 -32.95c342.41,-104.2 491.33,-161.06 849.92,-240.82 75.56,-16.81 244.33,-62.71 310.61,-64.89 20.21,49.23 71.48,123.61 101.48,186.25 31.86,66.52 71.28,135.92 99.72,196.66 41.29,88.18 116.59,272.22 145.21,371.24 13.91,48.14 13.65,40.38 30.33,52.35 -54.27,-320.07 -145.59,-604.25 -192.62,-916.21 -62.99,-3.29 -290.28,35.13 -370.06,45.25 -349.33,44.32 -719.99,82.32 -1062.08,155.15 8.38,39.55 34.59,87.58 49.13,126.09 13.47,35.67 19.28,94.44 41.27,121.88z"/>
  <path class="fil3" d="M9123.2 15673.25c30.23,48.86 -57.07,218.31 57.49,462.99 33.81,72.22 92.34,97.59 57.55,174.59 -74.82,165.59 37.06,247.39 140.43,364.54 99.9,113.21 41.79,314.96 -0.9,452.26 -21.08,67.8 -59.99,142.9 -59.94,218.18 92.05,-6.85 368.59,-217.18 428.62,-263.94 114.85,-89.48 240.83,-220.69 265.2,-430.25 26.48,-227.65 -87.58,-378.22 -154.75,-539.46 -37.4,-89.77 -51.15,-197.24 -39.72,-306.32 8.08,-77.04 60.01,-237.1 52.66,-284.81l-93.26 32.62c-0.75,1.97 -1.82,4.43 -2.59,6.63 -0.92,2.62 -3.36,10.81 -4.15,13.63 -2.79,9.96 -4.97,22.05 -7.85,34.93 -4.62,20.68 -9.38,41.69 -12.86,62.57 -7.76,46.71 -13.69,95.75 -17.01,142.62 -7.84,110.48 5.59,186.2 39.94,281.79 79.21,220.35 179.29,225.04 181.7,454.8 2.13,204.11 -111.2,327.53 -204.65,432.16 -59.39,66.48 -250.62,245.77 -370.02,276.08 30.98,-143.46 103.42,-278.04 120.46,-455.18 6.85,-71.15 20.19,-113.51 -34.21,-147.49 -72.47,-45.27 -167.66,-104.81 -189.91,-183.71 -33.89,-120.14 79.62,-197.91 108.99,-259.89 -90.63,-33.36 -155.54,-95.6 -178.61,-202.28 -35.22,-162.85 0.89,-250.9 -1.53,-346.98 -34.19,-7.65 -57.06,-8.26 -81.08,9.92z"/>
  <path class="fil3" d="M6698.83 4588.4c114.01,3.62 55.42,6.18 137.72,32 44.79,14.06 88.38,26.49 134.89,42.94 130.99,46.31 110.88,54.91 175.03,172.65 237.9,436.61 333.97,1174.34 428.78,1667.53l-1036.76 -4.61c48.93,23.12 988.64,11.3 1129.19,11.22 -12.14,-144.67 -187.88,-1024.67 -229.51,-1228.08 -39.43,-192.67 -80.87,-413.3 -173.97,-555.46 -53.94,-82.36 -103.87,-113.09 -218.61,-145.8 -73.82,-21.04 -93.13,-5.33 -166.84,-1.71 -55.27,2.71 -137.47,-12.69 -179.92,9.32z"/>
  <path class="fil0" d="M6727.41 3093.91c-35.75,18.54 -125.28,133.78 -156.25,170 -173.44,202.8 -167.5,112.47 -118.22,478.35 12.38,91.9 29.48,199.48 82.94,247.65 152.84,137.77 262.88,-107.4 265.25,-308.57 2.29,-193.8 -43.97,-403.51 -73.72,-587.43z"/>
  <path class="fil1" d="M10833.29 11986.79l-193.56 333.86c46.71,-15.73 101.54,-46.01 146.71,-66.14 56.49,-25.18 104.1,-42.79 165.02,-64.07 110.95,-38.76 224.63,-70.85 341.08,-107.8 112.87,-35.81 216.8,-83.45 327.67,-120.37 115.24,-38.36 229.35,-61.89 318.98,-124.34 -131.18,-11.37 -508.82,-50.04 -611.17,-24.2 -164.56,41.54 -390.35,165.79 -494.73,173.06z"/>
  <path class="fil3" d="M7473 4969.25l2.89 -12.75c173.64,129.2 431.93,276.7 670.67,360.75 471.42,165.97 774.72,78.26 926.35,99.88l-12.58 -185.12c-26.42,0.98 -137.18,30.32 -239.74,38.47 -87.14,6.93 -183.94,4.75 -274.58,0.43 -301.88,-14.39 -575.79,-139.1 -823.44,-291.6 -121.56,-74.86 -219.57,-153.5 -325.83,-227.59l72.8 211.19c0.74,1.58 2.03,4.4 3.46,6.34z"/>
  <path class="fil0" d="M9176.13 14093.24c83.3,-153.21 182.21,-306.8 270.74,-460.5 45.22,-78.51 89.3,-151.66 133.98,-229.92 27.71,-48.56 120.29,-191.09 130.44,-230.14 -16.6,-6.25 -99.93,60.96 -122.45,77.17 -191.22,137.61 -329.09,122.1 -444.66,215.69 -86.73,70.24 -136.49,174.48 -94.89,321.77 17.69,62.62 89.39,280.1 126.84,305.93z"/>
  <path class="fil3" d="M13509.39 5839.78c14.01,-14.4 7.1,-3.09 13.39,-25.78l15.48 -104.81c9.9,-45.16 20.55,-83.25 32.82,-127.24 42.99,-154.12 23.91,-110.72 167.55,-153.69 173.54,-51.9 304.32,-132.21 514.15,-132.5 404.59,-0.56 282.53,422.32 598.28,523.12 26.22,8.37 124.45,15.8 132.53,21.45 42.84,-16.72 81.19,-47.59 120.03,-71.95 -159.15,-40.45 -282.13,-125.62 -368.57,-215.65 -218.44,-227.51 -163.93,-534.85 -730.98,-333.43 -150.68,53.52 -299.2,100.53 -461.51,139.41l-33.17 481.07z"/>
  <path class="fil1" d="M2805.96 15115.4c36.91,-13.55 72.02,-40.53 122.74,-59.71 43.66,-16.51 88.47,-28.95 128.59,-48.52 68.73,-33.53 134.92,-117.71 140.85,-219.11 -118.2,-21.31 -704.12,-142.64 -787.9,-115.57 -71.56,23.13 -32.01,112.99 -2.16,150.83 36.9,46.76 337.75,261.82 397.88,292.08z"/>
  <path class="fil0" d="M12124.01 5086.72c-17.56,-33.46 -154.45,-187.28 -190.09,-229.54 -24.12,-28.6 -44.53,-51.95 -67.31,-76.44 -41.39,-44.5 -90.09,-101.07 -129.16,-150.38 -42.52,-53.66 -89.85,-97.8 -134.66,-147.79 -111.75,195.84 -242.3,340.77 -74.53,500.76 62.87,59.95 150.27,102.98 254.71,124.95 101.96,21.44 168.03,4.23 253.05,-2.19 17.59,-1.33 29.89,-0.32 48.09,-3.59l39.9 -15.78z"/>
  <path class="fil3" d="M6161.29 15019.75c28.12,14.24 62.59,14.53 101.65,17.28 -21.87,-242.89 -5.26,-375.12 105.32,-562.53 54.31,-92.05 208.22,-297.3 279.68,-398.02 202.11,-284.88 298.69,-328.88 348.95,-674.8 7.83,-53.87 2.81,-107.18 10.13,-160.19 4.52,-32.7 7.49,-28.59 -10.46,-60.07l-34.54 -53.46c-120.04,415.34 -148.73,512.75 -429,892.88 -212.09,287.67 -349.59,524.87 -328.49,1001.44l-43.24 -2.53z"/>
  <path class="fil3" d="M11220.69 15282.09c107.98,-2.81 385.14,144.31 467.64,200.83 104.52,71.61 193.65,137.74 271.39,236.51 10.67,13.56 37.75,38.34 41.27,43.68 21.58,32.69 1.2,36.04 18.66,67.77 3.52,-95.45 -0.28,-126.38 26.89,-216.05 76.1,-251.17 56.43,-158.97 -108.06,-322.77 -20.51,-20.43 -105.68,-107.47 -119,-133.15 -17.92,1.49 -578.9,110.39 -598.79,123.18z"/>
  <path class="fil3" d="M15319 10967.24c31.31,-61.89 261.27,-58.34 329.17,-45.89 125.44,23 221.3,49.46 351.93,21.43l-3.69 1165.4c20.95,-41.92 15.58,-1252.87 8.62,-1391.26 -94.35,-2.43 -134.49,-1.23 -219.6,-25.52 -112.9,-32.23 -322.51,-140.51 -459.75,31.58 -65.65,82.31 -80.03,31.28 -37.06,159.76l30.38 84.5z"/>
  <path class="fil3" d="M10725.2 6502.78c16.48,-102.02 337.27,-616.18 418.38,-723.89 182.93,-242.92 254.93,-77.79 448.76,71.82 100.79,77.79 130.86,76.11 260.98,119.64 122.08,40.84 130.96,136.18 96.17,250.6 -46.97,154.44 -109.26,199.97 -120.35,275.83l44.72 -4.68c91.2,-144.69 283.91,-408.67 45.57,-570.51 -84.68,-57.51 -183.3,-95.26 -272.45,-150.44 -190.07,-117.63 -261.9,-341.92 -523.58,-80.07 -68.47,68.51 -127.23,146.15 -187.33,235.87 -57.47,85.78 -274.5,480.05 -286.5,575.52l75.63 0.31z"/>
  <path class="fil0" d="M6496.59 2871.56c-8.87,-87.68 -65.7,-292.19 -86.36,-440.12 -13.94,-99.81 2.06,-140.03 -36.33,-148.49l-205.43 120.91c11.59,121.07 55.46,679.59 100.34,739.51l227.78 -271.81z"/>
  <path class="fil3" d="M9127.81 5407.47c154.76,-25.27 479.74,-24.47 650.69,-11.08 81.09,6.36 173.71,-0.22 181.34,40.19 14.48,-21.07 29.52,-70.25 62.17,-118.9 31.48,-46.93 66.41,-69.29 86.05,-107.56 -162.13,4 -307.52,-19.82 -477.99,-17.28 -173.89,2.58 -300.11,10.63 -466.18,30.27l-36.08 184.36z"/>
  <path class="fil3" d="M14457.77 6153.56c-161.11,65.24 -412.12,123.2 -598.25,88.98 -97.43,-17.9 -194.48,-45.73 -278.59,-77.04 -64.39,-23.96 -204.09,-98.45 -246.23,-105.33 1.22,1.98 3.01,4.47 3.93,5.76l109.16 130.65c129.83,148.98 225.8,330.05 396.87,308.72 115.43,-14.39 342.23,-176.2 466.89,-251.03 34.07,-20.45 123.74,-65.33 146.22,-100.71z"/>
  <path class="fil0" d="M1745.14 14237.4c13.62,-17.55 8.09,4.89 -13.56,-32.22 -19.42,-33.31 -35.17,-96.95 -43.46,-134.34 -56.72,-255.8 -95.13,-286.55 -450.38,-269.19 -46.84,162.65 -69.62,274.57 86.79,343.43 61.12,26.91 351.89,96.26 420.61,92.32z"/>
  <path class="fil3" d="M6413.84 11462.13c27.34,47.17 57.64,102.6 85.36,150.93 91.68,159.84 535.01,929.02 597.58,1015.49 25.79,-228.57 -55.42,-383.91 -161.64,-537.53 -132.7,-191.89 -168.32,-359.71 -238.95,-455.16 -45.65,-61.69 -167.15,-164.01 -282.35,-173.73z"/>
  <path class="fil0" d="M11326.63 3689.81l122.67 149.26c18.5,-25.44 71.43,-196.97 88.31,-238.87 35.28,-87.6 62.63,-158.19 100.67,-238.93 125.42,-266.16 264.5,-340.35 288.85,-393.66 -40.52,-15.92 -89.19,-60.13 -132.36,-68.66l-32.26 -8.7c-21.91,34.39 -80.54,97.66 -130.77,176.3 -83.88,131.29 -295.73,495.67 -305.11,623.26z"/>
  <path class="fil0" d="M6243.42 7103.05c66.9,1.63 272.99,-42.76 352.76,-55.8 179.74,-29.37 987.99,-129.39 1051.35,-146.51l-1556.38 -0.24 152.27 202.55z"/>
  <path class="fil3" d="M5652.07 2711.32l13.23 1.64c-2,170.44 43.43,331.23 73.79,480.51 9.91,48.77 78.56,324.94 100.74,374.32 17.91,39.89 20.87,13.89 21.9,57.27 1.77,-1.44 4.23,-6.2 4.98,-4.72l66.5 -79.94c36.88,-44.51 43.87,-36.62 26.04,-108.44 -54.2,-218.29 -120.76,-602.46 -139.4,-818.61l-167.78 97.97z"/>
  <path class="fil3" d="M12867.88 15970.31c39.11,-10.79 563.95,-322.62 652.16,-372.69 32.66,-18.54 191.43,-105.2 203.75,-125.44 -331.06,-9.97 -315.14,-52.03 -564.22,94.96 -77.57,45.78 -129.84,74.61 -187.12,151.74 -38.25,51.52 -93.59,181.27 -104.57,251.43z"/>
  <path class="fil0" d="M9969.1 15193.71l778.59 -131.36c13.52,-26.17 16.96,-14.96 -30.27,-38.91 -153.97,-78.06 -179.77,-175.41 -256.44,-274.83 -146.35,249.61 -373.22,161.34 -506.49,440.54l14.61 4.56z"/>
  <path class="fil3" d="M5955.44 9302.32c28.78,-10.56 86.88,-61.23 118.05,-84.21l244.58 -161.95c40.29,-29.31 68.43,-42.99 118.25,-74.79 -9.79,-21.67 -85.6,-65.97 -104.17,-79.91 -37.36,-28.05 -67.19,-50.52 -108.54,-77.6 -176.23,-115.4 -122.43,-112.46 -192.4,-173.9 -19.48,103.88 -32.5,202.54 -45.29,322.03 -9.49,88.73 -35.72,248.67 -30.48,330.33z"/>
  <path class="fil0" d="M1996.27 10408.09c-64.29,-1.08 -143.18,15.89 -223.24,16.98 -343.89,4.65 -521.87,-80.2 -650.01,-88.5 -1.06,134.81 -30.43,133.66 93.86,183.39 234.55,93.85 492.01,69.58 736.71,30.33l42.68 -142.2z"/>
  <path class="fil1" d="M5915.99 2551.6c6.02,128.07 100.21,774.34 141.17,838.59 181.85,-185.24 112.97,-144.34 72.91,-410.44 -12.26,-81.43 -24.99,-165.54 -35.3,-251.2 -10.5,-87.26 -10.06,-178.84 -23.46,-264.15l-155.32 87.2z"/>
  <path class="fil1" d="M6408.86 14709.89c39.08,-80.73 196.23,-238.13 262.71,-305.04 168.81,-169.88 124.5,-131.37 266.28,-300.94 106.06,-126.83 313.64,-293.68 358.46,-362.06 22.61,-34.5 -3.81,-59.17 -23.67,-91.56 -31.2,-50.88 -70.25,-129.69 -104.69,-171.77 -69.08,300.69 -196.73,469.37 -349.88,649.49 -108.46,127.56 -389.49,415.08 -409.21,581.88z"/>
  <path class="fil3" d="M5985.4 9648.28c17.19,-43.98 150.7,-197.1 194.19,-239.62 60.25,-58.92 165.24,-151.39 246.58,-202.03 63.95,-39.82 79.26,-66.3 154.21,-28.33 50.02,25.35 102.85,46.74 158.26,70.14l282.91 106.37c42.29,16.12 25.82,2.87 29.89,25.19 22.67,-12.61 23.84,-14.81 45.29,-34.57 -24.95,-36.13 -382.94,-211.91 -445.32,-247.04 -59.87,-33.71 -87.62,-72.49 -149.02,-35.86 -233.6,139.34 -335.68,207.33 -544.34,367.57 -5.21,41.18 -2.08,85.13 1.31,126.82 1.4,17.22 3.46,34.56 7.12,49.76l18.92 41.6z"/>
  <path class="fil3" d="M9176.13 14093.24c-37.45,-25.83 -109.15,-243.31 -126.84,-305.93 -41.6,-147.29 8.16,-251.53 94.89,-321.77 115.57,-93.59 253.44,-78.08 444.66,-215.69 22.52,-16.21 105.85,-83.42 122.45,-77.17 12.94,-12.75 4,14.66 15.53,-20.4 -157.3,-16.85 -243.05,66.92 -370.81,119.27 -98.69,40.43 -294.43,81.22 -350.23,148.54 -74.76,90.19 -84.64,282.34 -45.31,404.25 41.19,127.67 123.76,194.43 182.03,322.83l33.63 -53.93z"/>
  <path class="fil1 str0" d="M11912.96 6903.95c21.5,29.34 19.59,50.06 70.86,96.15 157.63,141.73 190.01,140.06 147.53,341.52 -16.87,80.01 -56.23,218.94 -47.71,302.26 6.57,64.21 102.32,169.95 143.77,201.61 -21.44,-102.76 -53.57,-152.91 -29.07,-284.22 21.3,-114.16 173.29,-340.8 55.25,-500.73 -65.67,-88.97 -99.68,-68.75 -159.73,-158.23l-180.9 1.64z"/>
  <path class="fil1 str0" d="M15596.54 5846.06c24.44,53.18 172.86,114.85 218.93,370.37 14.7,81.57 17.45,174.69 48.93,238.84 25.17,51.27 98.81,129.07 159.83,141.82l1.67 -316.56c-125.52,-85.13 -101.02,-105.4 -145.61,-265.2 -35.54,-127.34 -81.04,-171.15 -162.7,-240.19l-121.05 70.92z"/>
  <path class="fil1" d="M1798.43 10990.33c25.74,-35.63 100.39,-274.13 114.32,-329.48 -70.8,-2.9 -220.21,31.71 -426.92,19.27 -212.54,-12.8 -251.2,-63.29 -363.95,-89.03l1.61 72.94c66.33,21.73 126.96,38.2 190.59,63.18 252.7,99.21 423.53,236.87 484.35,263.12z"/>
  <path class="fil3" d="M6763.42 9042.27c15.04,-18.95 235.38,-114.85 276.58,-136.24 92.54,-48.06 180.25,-112.74 244.64,-178.77 76.56,-78.5 133.06,-120.75 152.7,-270.84 7.79,-59.55 23.55,-353.37 18.28,-409.14l-31.89 82.83c-35.53,111.75 -34.55,166.9 -44.85,284.22 -15.48,176.46 -41.23,195.43 -171.99,260.8 -44.84,22.42 -521.4,256.8 -554.79,306.24 33.01,21.08 76.91,47.55 111.32,60.9z"/>
  <path class="fil1" d="M2031.35 10297.46c15.15,-27.95 59.12,-156.98 62.24,-195.35 -179.01,42.62 -203.85,91 -464.48,100.45 -317.14,11.5 -302.61,-30.63 -508.97,-60.19l1.59 82.81c227.47,58.89 437.27,103.14 676.7,97.05 89.6,-2.28 152.31,-20.12 232.92,-24.77z"/>
  <path class="fil0" d="M6832.27 2010.29c0.4,60.96 40.88,352.74 56.47,398.59l293.19 -345.76c70.15,-112.83 12.41,-169.34 -111.75,-146.14 -100.75,18.83 -159.79,67.02 -237.91,93.31z"/>
  <path class="fil3" d="M11326.63 3689.81c9.38,-127.59 221.23,-491.97 305.11,-623.26 50.23,-78.64 108.86,-141.91 130.77,-176.3l32.26 8.7c-19.07,-26.74 -85.8,-58.68 -114.76,-70.8 -22.89,37.9 -155,162.64 -256.65,343.25 -36.99,65.71 -172.18,348.61 -178.14,425.19l81.41 93.22z"/>
  <path class="fil1" d="M11591.81 4001.26c63.26,-188.09 120.32,-352.1 201.03,-510.13 58.38,-114.32 162.16,-282.77 254.37,-372.96 20.3,-19.85 32.81,-25.82 37.33,-54.98l-66.72 -37.62c-26.58,36.73 -65.8,65.78 -94.91,95.28 -33.01,33.45 -54.52,59.94 -84.72,101.47 -140.14,192.67 -213.91,432.71 -291.32,657.41 -18.49,53.65 -8.51,90 44.94,121.53z"/>
  <path class="fil1" d="M4436.26 6488.15c-28.79,-23.1 -49.9,-48.21 -80.75,-80.75l-271.08 -255.41c-28.73,21.84 -89.64,92.45 -110.87,127.78 -38.95,64.84 -39.62,133.44 31.07,165.1 75.15,33.66 339.97,48.11 431.63,43.28z"/>
  <path class="fil3" d="M1237.75 13801.65c355.25,-17.36 393.66,13.39 450.38,269.19 8.29,37.39 24.04,101.03 43.46,134.34 21.65,37.11 27.18,14.67 13.56,32.22 2.08,1.32 5.01,2.43 6.73,3.09 1.73,0.65 4.67,2.13 6.81,2.87l80 11.76c-16.44,-69.55 -52.05,-131.16 -63.13,-212.71 -14.35,-105.55 1.52,-321.44 -230.73,-329.03 -290.72,-9.5 -279.94,-13.88 -307.08,88.27z"/>
  <path class="fil1 str1" d="M11162.53 3496.88l23.95 -45.51c7.15,-19.94 13.2,-36.08 21.11,-55.54 82.63,-203.57 174.49,-376.26 318.64,-544.68 22.4,-26.17 50.77,-49.08 64.84,-75.83l-55.57 -34.63c-74.78,27.85 -248.1,254.47 -300.46,344.27 -18.75,32.15 -161.11,288.27 -150.79,319.51 7.12,21.56 60.16,76.8 78.28,92.41z"/>
  <path class="fil3" d="M6373.9 2282.96c38.39,8.46 22.39,48.68 36.33,148.49 20.66,147.93 77.49,352.44 86.36,440.12l100.97 -114.94c15.53,-28.82 -21.1,-129.12 -30.19,-169.28 -26.78,-118.34 -50.87,-250.69 -62.37,-372.78l-131.1 68.39z"/>
  <path class="fil1" d="M6692.15 2644.51c157.44,-200.65 109.64,-29.64 42.92,-572.72 -20.4,6.2 -117.11,57.85 -125.75,72.62 -19.36,33.1 5.14,137.27 11.41,177.32 10.46,66.94 40.13,290.88 71.42,322.78z"/>
  <path class="fil3" d="M12926.9 5577.75c-1.26,-24.53 60.07,-14.2 122.7,-20.66 115.49,-11.93 311.86,-55.42 401.05,-56.89l-9.48 -119.03 -608.18 83.77c8.61,21.47 23.17,34.88 39.68,53.67 10.49,11.93 13.04,15.05 23.18,27.44 1.49,1.82 10.05,12.44 11.61,14.1l14.22 13.32c1.11,1 3.41,2.95 5.22,4.28z"/>
  <path class="fil3" d="M8001.91 8014.7l5.66 -31.4c43.02,51.88 119.78,108.44 174.21,168.77 29.54,32.74 132.42,145.83 136.6,215.94 37.81,-27.66 62.82,-53.94 112.27,-78.04 -26.88,-110.89 -314.22,-353.85 -442.7,-384.91 2.47,36.18 3.32,82.7 13.96,109.64z"/>
 </g>
</svg>
