<?xml version="1.0" encoding="UTF-8"?>
<!DOCTYPE svg PUBLIC "-//W3C//DTD SVG 1.1//EN" "http://www.w3.org/Graphics/SVG/1.1/DTD/svg11.dtd">
<!-- Creator: CorelDRAW -->
<svg xmlns="http://www.w3.org/2000/svg" xml:space="preserve" width="173.798mm" height="173.454mm" version="1.1" style="shape-rendering:geometricPrecision; text-rendering:geometricPrecision; image-rendering:optimizeQuality; fill-rule:evenodd; clip-rule:evenodd"
viewBox="0 0 17379.78 17345.4"
 xmlns:xlink="http://www.w3.org/1999/xlink"
 xmlns:xodm="http://www.corel.com/coreldraw/odm/2003">
 <defs>
  <style type="text/css">
   <![CDATA[
    .str0 {stroke:#000330;stroke-width:7.62;stroke-miterlimit:22.9256}
    .fil1 {fill:black}
    .fil3 {fill:#000330}
    .fil0 {fill:#001773}
    .fil2 {fill:#C8FF00}
   ]]>
  </style>
 </defs>
 <g id="Слой_x0020_1">
  <metadata id="CorelCorpID_0Corel-Layer"/>
  <path class="fil0" d="M6909.81 6759.69c10.41,88.59 -26.91,231.62 -41.96,327.51 -36.4,231.84 -108.64,822.41 -118.27,1021.52 -11.77,243.29 -19.98,487.6 -32.7,728.86 -12.45,235.86 -37.45,485.56 -40.08,720.89l47.99 -3.63c148.79,15.42 1429.95,-252.61 1638.03,-313.1 86.75,-25.22 160.76,-48.2 241.65,-80.68 66.99,-26.89 171.89,-89.31 238.44,-89.24 -21.61,36.91 -216.28,153.45 -273.59,189.87 -47.89,30.44 -90.45,60.34 -140.89,87.54 -40.29,21.73 -110.5,49.17 -140.82,70.65l-160.54 127.94c-273.89,186.89 -911.94,414.91 -1232.59,443.48 -316.29,28.18 -252.62,-50.13 -279.67,193.02 -18.59,167.13 -43.41,355.46 -77.69,516.87 -23.11,108.82 -49.71,217.57 -70.95,327.71 -10.66,55.29 -19.91,115.61 -19.5,170 0.24,33 3.54,68.34 4.8,101.87 3.09,82.73 -0.77,72.74 -26.58,93.28l-3.84 -40.02c0.24,-49.12 -37.03,-164.31 -52.03,-225.06 -18.1,-73.35 -33.76,-152.36 -48.82,-230.02 -20.44,-105.36 -81.94,-385.58 -78.7,-477.5 -46.19,-84.31 25.61,-361.41 -18.47,-443.47 -174.61,-24.65 -346.31,-29.77 -522.37,-59.37 -150.97,-25.39 -347.55,-72.05 -492.86,-82.12 -20.92,97.98 -40.6,327.6 -44.08,339.12 -27.45,90.69 9.79,92.72 -24.81,106.22 -13.66,23.39 -31.47,-60.09 -40.21,-91.54 -24.89,-89.56 -76.38,-298.47 -74.75,-380.63 -251.83,-64.66 -952.6,-36.25 -1482.46,-171.48 -388.95,-99.26 -649.32,-169.36 -1060.73,-183.74 -67.86,-2.37 -135.75,-3.48 -203.63,-3.16 -159.7,0.77 -84.19,-8.59 -135.78,-14.22 -16.52,-1.8 -33.51,2.49 -53.13,2.85l-87.47 -4.42c198.91,-59.04 459.07,-154.02 682.66,-159.15 281.42,-6.46 530.84,-7.91 799.59,39.64 569.83,100.82 615.94,93 1164.79,93.27 59.62,0.03 372.12,21.26 391.72,14.96 24.84,-320.66 79.56,-616.95 143.9,-914.84 28.95,-134 150.7,-788.01 217.9,-834.3 1.12,1.96 1.98,4.87 2.32,6.36l3.51 19.75c0.41,32.2 -12.32,26.83 -2.72,65.96 10.1,82.41 -22.36,332.73 -27.34,435.31 -7.05,145.45 -11.16,285.18 -13.23,431.36 -4.44,312.67 -42.78,537.14 -81.96,829.73l17.78 23.48c138.6,39.13 280.11,86.1 430.6,106.5 91.86,12.46 437.8,36.52 510.25,6.69 5.75,-12.67 50.01,-738.3 60.55,-836.46 29.58,-275.67 58.8,-522.06 115.25,-783.95 27.51,-127.63 49.3,-235.65 94.28,-354.76 71.29,-188.79 310.2,-834.61 397.77,-935.96 13.39,28.27 1.25,42.21 1.41,70.6l0.03 0.01zm7286.29 -1711.16c72.88,53.59 180.18,556.39 436.16,873.74 180.61,223.91 236.84,398.34 46.66,685.87 -21.17,32 -107.6,166.89 -143.63,184.21l-71.94 126.07c-20.04,-20.98 -1.56,19.1 -18.62,-32.25l-43.23 -207.9c-22.61,-78.7 -46.78,-150.93 -70.63,-226.09 -38.21,-120.39 -82.96,-247.12 -50.91,-380.53 9.01,-37.53 35.33,-67.96 35.59,-104.23 0.38,-52.51 -48,-166.24 -55.37,-239.55 -9.69,-96.54 -17.74,-170.42 -32.07,-265.25 -13.19,-87.28 -23.48,-176.03 -37.49,-259.16 -12.71,-75.4 -35.83,-171.08 -42.67,-243.4 9.68,10.21 2.47,0.99 10.54,13.75l37.61 74.72zm-1232.72 -1898.03c4.84,-19.82 9.17,-34.43 14.93,-53.69 8.18,-27.33 10.96,-38.42 30.11,-55.76 -1.52,252.2 -14.77,462.74 17.95,712.89 13.39,102.35 32.17,208.99 55,307.94 10.73,46.48 23.42,93.89 36.91,139.65 46.35,157.21 24.99,136.73 24.91,136.44 -0.38,-1.22 -1.89,4.95 -6.41,8.95l-46.77 -74.23c-37.01,-23.92 -128.21,-181.33 -149.9,-222.77 -88.62,-169.42 -114.9,-436.26 -73.56,-624.54 24.23,-110.42 36.11,-124.38 67.24,-212.43l24.73 -56.03c0.77,-3.92 3.04,-4.44 4.87,-6.4l-0.01 -0.02zm-5968.82 2099.09c-14.42,-9.13 -10.65,5.8 -30.22,-49.55l-40.11 -324.66c-53.43,-146.08 -68.02,-314.52 -126.43,-465.82 -111.21,-288.11 -240.67,-546.46 -326.55,-859.66 -121.12,-441.74 -58.66,-1093.94 144.3,-1508.39 33.51,-68.41 165.61,-352.86 208.17,-377.1 40.3,38.15 28.23,203.83 29.56,272.32 12.43,639.13 26.5,1135.62 266.93,1744.24 108.25,274 201.27,568.49 301.38,849.71 45.07,126.63 128.94,297.86 148.88,424.31 14.16,89.84 66.83,460.97 32.18,528.9 -37.02,-20.1 -91.36,-162.62 -113.41,-207.93 -86.17,-177.03 -140.7,-254.49 -229.51,-414.24l-149.12 -267.05c-0.05,-0.2 -27.86,209.94 -93.28,601.39 -2.44,36.81 1.75,36.65 -22.77,53.53zm7003.29 -2397.2l-25.54 -39c-134.32,-168.02 -172.63,-399.44 -145.07,-613.9 16.02,-124.68 44.53,-223.98 91.49,-330.71 21.58,-49.06 113.47,-221.83 165.24,-256.12 11.68,-29.72 14.24,-45.48 48.2,-58.04 76.28,364.55 -64.45,562.01 -101.43,1002.74 -8.3,98.94 6.28,335.3 -19.71,357.01l-13.18 -61.98zm-9531.23 1345.98c-1.8,-52.48 11.33,-47.38 0.1,-106.18 -7.04,-36.84 -3.34,-67.86 -0.97,-105.71l15.71 -635.86c-6.55,-581.96 1.73,-1005.58 -152.52,-1577.56 -44.9,-166.48 -146.42,-523.94 -219.69,-639.58 -61.45,-4.76 -172.71,-16.13 -216.36,8.11 -21.97,352.62 3.28,1010.62 43.57,1380.67 7.63,70.08 57.21,385.52 34.02,427.56 -25.52,-9.46 -16.79,-9.45 -34.16,-82.68l-56.87 -290.48c-1.79,-1.73 -3.95,-4.07 -5.16,-5.4l-41.83 -65.88c-10.77,-25.75 -17.32,-45.91 -27.5,-72.63 -189.38,-497.43 -165.14,-772.63 -170.27,-1301.45l-555.7 -0.25 -14.3 22.24c-10.05,504.27 61.84,1592.85 137.18,2103.63 8.39,56.94 47.08,221.82 44.57,260.31 -61.73,-147.93 -118.63,-328.31 -150.86,-505.15 -26.57,-14.98 -19.29,-5.9 -33.64,-40.46l-55.14 -147.77c-23.52,-67.63 -45.13,-130.77 -66.66,-195.1 -126.01,-376.47 -201.81,-1009.17 -195.83,-1406.95l-19.76 -2.08c-117.18,9.68 -501.88,254.99 -568.9,319.04 4.18,71.12 55.11,227.66 71.3,313.86 20.27,107.91 40.89,219.62 60.15,329.77 75.75,433.31 139.26,954.96 151.75,1396.83 5.63,199.31 29.82,582.97 -1.59,762.9 685.39,267.38 1172.21,715.88 1980.44,864.33 376.99,69.25 398.07,92.79 739.26,216.5 245.52,89.01 462.4,156.35 725.77,222.45 492.84,123.7 940.46,280.82 1358.17,547.69 91.8,58.65 184.83,150.51 252.51,221.64 52.78,55.5 85.38,239.21 107.45,301.47 -45.8,0.04 -182.75,-178.13 -242.97,-207.76 -318.84,-156.9 -805.68,-340.89 -1140.75,-435.37 -193.76,-54.64 -706.93,-172.96 -831.96,-217.97 -250.37,-90.14 -487.15,-232.21 -764.47,-294.13 -359.19,-80.2 -461.19,-66.27 -843.58,-205.17 -253.37,-92.04 -518.85,-186.81 -786.2,-264.58 -84.42,-24.56 -366.16,9.68 -479.91,17.61 -321.81,22.44 -666.68,10.97 -983.58,-43.95 -199.49,-34.58 -292.59,-91.89 -408.58,-120.62l-4.68 3514.66c18.74,29.78 9.04,3577.81 8.55,4196.54 -0.16,209.37 -4.42,381.15 29.27,583.59 112.64,676.69 288.93,1306.39 609.49,1794.79 81.89,124.77 159.78,238.6 247.6,353.49 146.09,191.14 418.6,434.37 632.87,569.35 64.01,40.33 127.21,71.57 196.83,108 34.57,18.1 193.02,82.79 207.11,98.6 85.92,8.58 180.72,36.24 272.9,44.38 104.04,9.2 216.58,13.99 321.46,13.94 214.1,-0.11 431.51,-3.4 644.97,0.24 14.23,-138.01 340.64,-471.73 421.47,-577.95 168.98,-222.03 142.93,-438.94 169.07,-702.46 4.44,-44.77 0.94,-86.19 24.64,-109.99 3.35,-28.12 2.56,-22.75 18.31,-37.86 67.57,87.07 91.9,805.48 163.9,983.11 130.53,6.34 223.89,-159.98 403.29,-123.93 51.54,10.36 99.81,40.85 136.49,45.99l28.26 5.75c11.27,-209.33 52.29,-429.39 72.56,-636.1 22.44,-228.71 10.25,-452.31 -8.57,-677.42 -18.24,-218.12 -42.16,-431.4 -52.67,-652.02 -10.55,-221.39 -20.45,-446.2 -33.33,-668.61 -58.38,-1008.13 4.01,-1239.97 262.61,-2143.41 13.66,-47.73 26.44,-91.19 40.45,-136.49 6.32,-20.42 14.93,-43.95 19.85,-64.92 7.97,-34 6.51,-47.21 27.52,-72.05 5.94,-33.78 13.14,-72.78 20.8,-110.99 5.89,-29.38 8.42,-90.79 37.2,-105.28 46.57,133.41 59.91,458.81 77.7,624.4 22.41,208.6 45.39,423.21 70.27,632.83 49.38,415.88 121.88,826.1 160.17,1241.53 58.18,631.35 50.24,1401.36 58.95,2056.32 2.68,201.44 4.97,478.27 34.66,673.23 48.94,12.26 204.77,0.29 266.63,0.61 144.01,0.73 181.92,128.31 315.08,229.92 163.53,124.79 325.06,220.51 529.17,292.11 152.44,53.46 346.51,33.2 518.59,33.4 364.03,0.44 728.16,0.47 1092.19,0 357.61,-0.47 739.44,13.27 1093.87,-0.92 42.85,-96.09 143.17,-334.61 103.51,-453.39 -29.87,-89.47 -345.49,-160.96 -278.6,-676.26 31.14,-239.87 83.65,-449.51 -57.14,-638.7 -74.97,-100.74 -91.27,-77.47 -294.36,-87.12 -240.33,-11.41 -935.1,-19.63 -1134.45,-7.73 -313.36,18.7 -444.23,61.47 -686.71,81.02 -215.9,17.41 -537.18,13.94 -740.18,-26.72 -110.06,-22.04 -551.41,-117.59 -597.45,-172.52 118.74,-27.73 861.69,-30.74 1037.21,-34.14 -5.64,-67.75 -37.32,-48.19 -79.5,-93.34 80.62,-74.15 602.05,-221.46 689.03,-220.67 222.43,2.03 416.47,9.45 638.96,6.73 448.68,-5.47 884.24,-19.23 1324.29,-63.54 166.95,-243.57 183.8,-728.08 146.35,-1015.96 -27.64,-212.4 -152.99,-328.82 -171.96,-553.55 -21.39,-253.33 65.82,-443.8 -91.23,-621.04 -190.06,-214.48 -455.41,-72.01 -944.78,-502.86 -350.38,-308.47 -163.26,-238.42 -620.42,-472.26 -38.67,-19.78 -235.48,-100.76 -248.94,-112.85 52.93,-45.83 245.8,-43.7 327.2,-37.04 461.37,37.7 590.66,319.13 974.02,511.32 98.01,49.13 173.68,62.81 285.72,88.28 143,32.51 281.55,76.34 404.81,152.92 41.86,26 79.96,60.78 114.54,79.67 75.64,-40.98 373.49,-351.59 423.96,-413.5 93.26,-114.41 188.97,-266.18 203.16,-424.54 9.3,-103.8 -58.3,-112.78 -182.65,-232.21 -110.47,-106.11 -209.78,-189.23 -311.3,-323.8 -124.65,-165.25 -213.67,-364.87 -370.71,-475.78 -81.82,-57.78 -179.2,-98.48 -258.41,-156.51 -282.14,-206.73 23.74,-428.24 -435.9,-825.6 -154.25,-133.35 -280.66,-228.11 -373.92,-464.32 -47,-119.04 -195.79,-534.17 -201.35,-646.14 101.04,-15.09 355.41,216.29 403.56,284.37 94.94,134.2 140.85,344.52 239.22,453.68 227.75,252.74 582.32,366.26 605.12,786.82 3.75,69.18 16.27,69.18 69.13,96.26 136.08,69.72 217.67,80.63 326.52,199.14 111.89,121.83 194.32,259.49 303.34,390.76 164.89,198.56 530.35,418.84 818.26,569.59 616.71,322.92 1315.75,553.77 2110.4,660.51 207.03,27.81 419.79,39.49 628.98,63.93 580.61,67.81 1004.48,146.15 1607.08,90.1 48.61,-4.52 265.38,-25.5 287.78,-57.35 14.13,-32.02 9.67,-3349.35 4.9,-3686.96 -51.48,4.4 -323.28,105.27 -405.84,129.81 -146.2,43.44 -287.92,79.15 -437.1,111.3 -614.05,132.34 -1266.29,243.94 -1902.65,291.9 -245.53,18.51 -823.3,57.01 -1045.86,25.69 -333.23,-46.91 -532.33,-184.08 -821.67,-270.55 -156.77,-46.85 -292.96,-39.7 -443.77,-106.2 -171.55,-75.64 -464.22,-308.29 -667.1,-433.58 -107.02,-66.09 -237.35,-132.06 -355.37,-194.99 -124.18,-66.23 -248.75,-107.71 -385.37,-165.79l-187.84 -83c-56.17,-22.76 -149.51,-48.64 -199.42,-75.49 220.38,-39.85 746.14,52.85 944.34,109.74 286.54,82.24 476.36,198.69 715.28,343.23 220.45,133.38 460.19,255.45 745.89,311.6 352.56,69.28 451.13,151.35 878.8,184.71 665.2,51.9 1339.33,-21.23 1956.08,-145.03 626.29,-125.72 1041.7,-277.85 1609.39,-515.53 13.54,-206.3 1.74,-452.64 1.86,-663.35l-0.13 -990.6c0.07,-101.79 16.78,-227.09 -28.04,-306.18 -137.09,-241.9 -7.88,-271.44 -50.03,-398.54 -15.43,-46.51 -21.46,-83.96 -37.95,-130.81 -102.63,-291.63 -287.55,-627.18 -460.18,-869.78l-277.63 -382.2c-69.27,-96.27 -226.1,-284.82 -322.83,-338.82 67.87,10.87 178.84,133.48 224.8,144.1 46.34,17 99.17,57.06 142.38,82.1 51.33,29.76 95.04,53.01 137.47,82.58 363.44,253.35 479.01,674.64 541.25,761.53 6.3,-66.13 -18.37,-135.71 -4.27,-199.5 10.91,-77.98 -11.23,-288.36 -21.3,-373.33 -6.77,-57.14 -15.01,-123.42 -26.64,-178.1 -6.24,-29.32 -11.06,-54.97 -18.38,-83.08 -28.76,-110.32 -13.5,-69.2 -2.16,-83.96 27.8,65.08 70.84,112.39 101.37,223.22 88.49,321.25 62.86,239.97 77.43,568.86 1.78,40.15 25.25,285.48 22.33,290.44 12.88,-227.98 -28.87,-645.77 -67.52,-870.01 -43.95,-254.96 -141.57,-492.57 -256.41,-697.85 -124.34,-222.24 -268.1,-372.88 -418.52,-538.3 -141.29,-155.38 -306.67,-302.26 -535.34,-421.75 -460.2,-240.48 -909.18,-240.76 -1416.23,-242.63 -79.64,-0.29 -80.19,-15.79 -228.49,-15.88 -634.45,-0.4 -1280.68,-12.23 -1913.6,0.41 -17.68,78.87 -16.6,676.55 -14.43,794 11.89,645.88 72.14,821.99 220.29,1410.41 131.91,523.86 231.65,758.7 311.32,1323.17 57.29,405.96 -20.19,987.82 56.58,1586.33 16.59,129.33 20.03,229.17 48.19,358.36 14.27,65.45 83.61,292.23 78.34,331.65 -21.03,-9.46 -26.22,-30.76 -38.81,-57.02 -104.28,-217.41 -141.79,-318.48 -188.06,-575.69l-19.26 -41.89c-111.27,-375.71 -195.67,-798.35 -281.12,-1181.44 -90.91,-407.58 -245.31,-768.32 -338.15,-1170.31 -126.43,-547.47 -156.74,-756.99 -192.91,-1322.9 -34.96,-546.99 -54.75,-899.44 -4.56,-1448.75l-276.67 -0.3 6.66 748.51c-17.48,72.78 22.17,491.14 31.96,590.57 7.93,80.43 77.57,517.86 58.89,549.61 -27.99,-39.22 -158.13,-528.77 -163.78,-603.3l-92.08 -285.43c-86.07,-411.22 -81.09,-576.32 -71.27,-1000.54l-2655.12 3.32c-235.38,430.23 -326.96,902.92 -339,1412.15 -3.31,140.18 13.2,390.45 3.14,493.02 -3.19,32.52 3.75,34.73 2.88,65.83 -9.69,80.89 63.19,318.29 30.16,371.86 -38.66,-37.03 -148.59,-510.67 -161.71,-558.33 -85.45,-310.38 -202.53,-937.56 -195.7,-1261.42 2.72,-129.17 28.6,-334.8 109.34,-434.27 22.7,-27.97 68.94,-66.99 85.37,-96.42l-2866.88 -1.71 44.73 837.99c28.45,436.69 62.81,1325.97 12.87,1736.24 -10.77,88.48 -125.23,721.7 -143.74,750.84 -42.25,-50.95 7.97,-181.98 -3.38,-251.54l0.05 0.04z"/>
  <path class="fil0" d="M12954.08 16220.92l365.78 -142.9c800.77,-346.96 1414,-853.63 1941.85,-1537.61 147.49,-191.11 266.22,-382.09 401.24,-597.88 121.22,-193.73 232.69,-436 316.06,-674.12 91.37,-260.95 170.2,-490.76 214.03,-785.66 20.61,-138.7 84.17,-843.4 37.8,-926.99 -229.39,-77.88 -1034.75,-139.47 -1304.52,-144.73 -451.6,-8.79 -965.56,-33.16 -1393.81,-117.03 -270.78,-53.03 -539.98,-166.12 -804.87,-232.36 -611.16,-152.81 -895.98,-323.49 -1357.31,-463.35 -65.6,75.13 -98.48,411.42 -635.85,837.2 -222.86,176.59 -190.25,137.93 -191.47,297.12 -1.02,133.57 -44.67,350.61 -3.8,458.4 22.23,58.63 54.48,111.83 79.1,166.76 99.77,222.57 133.4,512.36 103.05,758.86 -32.55,264.36 -85.63,428.1 -179.09,674.87 -44.14,116.54 -112.46,237.32 -116.58,379.47 -3.52,121.24 30.32,328.5 75.6,421.07 49.65,101.54 145.61,194.44 216.75,273.62 120.98,134.66 324.64,399.9 307.62,677.25 -11.79,192.27 -114.3,377.28 -213.92,524.71 -27.78,41.13 -86.74,112.01 -103.42,153.28l2245.76 0.03 0 -0.01z"/>
  <path class="fil1" d="M16230.84 11555.76c38.13,11.43 23.28,65.91 23.1,109.1 -0.17,42.31 0.06,84.7 0.1,127.01l-2.26 745.07c-0.13,227.49 14.72,1301 -15.55,1478.76 -63.87,375.03 -220.98,778.56 -429,1061.64 -248.98,338.82 -660.59,648.75 -1117.96,880.21 -173.22,87.66 -529.17,225.63 -753.67,245.31 -302.69,26.55 -672.76,27.55 -981.52,18.07l-1838.16 -24.98c16.68,-41.27 75.66,-112.18 103.44,-153.31 99.62,-147.43 202.13,-332.44 213.92,-524.71 17.02,-277.35 -186.64,-542.59 -307.62,-677.25 -71.14,-79.18 -167.1,-172.08 -216.75,-273.62 -45.28,-92.57 -79.12,-299.83 -75.6,-421.07 4.12,-142.15 72.44,-262.93 116.58,-379.47 605.86,-1599.7 -119.94,-1243.74 -115.42,-1833.54 1.22,-159.19 -31.4,-120.53 191.47,-297.12 537.37,-425.78 570.25,-762.07 635.85,-837.2 355.97,107.92 667.58,199.64 1036.86,291.98 264.89,66.24 563.08,203.49 833.86,256.52 428.25,83.87 942.22,55.08 1393.81,63.87 269.77,5.26 1075.13,66.85 1304.52,144.73zm-5193.34 4550.7c-89.74,97.6 -459.67,118.77 -642.34,114.62 18.37,-83.59 64.07,-126.33 75.81,-300.94 25.55,-296.93 -123.62,-259.13 -227.56,-418.87 -197.91,-304.17 126.31,-728.73 -126.48,-1092.79 -95.72,-137.87 -95.89,-129.19 -186,-135.49 -370.59,-25.93 -1238.53,-45.43 -1572.48,0.37 -202.43,27.76 -379.58,56.56 -586.45,67.4 -98.9,5.19 -562.61,2.64 -620.23,-25.25l560.96 -15.58c63.63,-3.55 124,3.26 146.84,-44.26 -49.61,-49.86 -124.98,-39.22 -127.85,-115.66l555.69 -182.98c265.55,2.31 1828.47,4.97 1918.77,-65.99 161.18,-126.65 142.43,-349.75 184.45,-548.47 67.73,-320.26 80.55,-535.81 -58.68,-833.7 -77.21,-165.2 -74.74,-215.81 -73.7,-420.66 0.95,-189.43 23.61,-292.4 -61.93,-434.26 -200.38,-332.31 -534.72,-184.22 -946.55,-535.53 -99.5,-84.88 -173.95,-160.53 -258.26,-241.26 -44.52,-42.62 -79.66,-79.22 -127,-118.6 -57.1,-47.51 -130.79,-79.75 -148.11,-104.12 212.19,14.2 494.19,307.32 722.92,435.7 271.93,152.62 571.39,125.88 820.78,321.84 21.6,16.98 52.59,56.1 93.6,52.08 95.91,-9.39 470.15,-415.65 524.3,-486.33 81.05,-105.8 315.64,-478.62 163.47,-618.08 -155.99,-142.95 -294.27,-249.75 -434.01,-420.61 -129.83,-158.74 -143.85,-213.65 -235.82,-340.32 -210.82,-290.36 -318.64,-234.23 -481.06,-383.06 -53.49,-49.01 -64.93,-112.61 -76.71,-200.9 -51.27,-384.15 -173.89,-455.13 -444.1,-700.25 -107.02,-97.09 -168.26,-168.76 -234.96,-340.79l-161.63 -408.31c58.03,19.55 153.42,117.95 187.22,162.56 173.04,228.33 70.52,333.88 407.47,608.6 240.82,196.35 410.57,302.14 425.42,593.98 10.46,205.57 212.33,166.09 376.83,305.68 163.93,139.12 275.15,391.37 463.52,552.33 242.17,128.13 605.48,192.98 867.69,320.59 275.83,134.23 587.94,179.84 891.04,248.18 376.64,84.92 771.25,190.48 1184.91,198.85 468.23,9.48 961.38,-149.74 1481.14,-228.67 321.7,-48.86 636.84,-89.1 996.19,-108.36l-4.42 1236.49c-53.02,-8.31 -100.15,-26.61 -154.73,-37.3 -284.73,-55.81 -921.3,-107.3 -1185.86,-110.74 -436.69,-5.67 -1009.63,21.71 -1409.07,-72.5 -196.78,-46.4 -381.23,-124.38 -564.3,-181.17 -142.82,-44.31 -1300.26,-390.14 -1329.79,-377.67 -40.22,39.97 -115.22,249.51 -156.22,325.01 -55.75,102.69 -128.15,207.99 -194.77,279.87 -77.93,84.09 -153.71,157.19 -246.92,235.53 -311.74,262 -276.31,156.86 -279.39,441.73 -4.73,438.7 409.72,356.35 285.99,1197.47 -87.28,593.36 -329.9,744.38 -277.08,1131.33 18.95,138.82 39.48,268.42 103.68,371.61 151.7,243.86 565.08,528.64 477.16,933.95 -28.38,142.96 -154.99,376.24 -281.39,513.7zm5213.18 -8988.18c-65.24,52.94 -630.58,210.69 -748.85,235.89 -586.99,125.06 -1074.12,225.78 -1684.86,285.68 -306.33,30.05 -613.27,46.82 -922.54,64.74 -349.5,20.25 -559.88,-14.07 -847.38,-128.82 -118.89,-47.46 -224.31,-97.47 -352.19,-138.1 -130.1,-41.35 -286.14,-46.14 -403.27,-88.13 -119.19,-42.72 -225.21,-116.75 -312.55,-178.71 -96.25,-68.27 -186.53,-135.58 -288.63,-202.54 -103.31,-67.76 -190.82,-116.79 -309.47,-181.67l-673.35 -267.89c452.97,22.11 705.43,12.47 1096.72,227.13 112.76,61.87 206.99,129.72 317.06,191.33 104.91,58.72 222.96,113.01 340.45,159.21 132.94,52.27 248.29,77.19 396.61,111.46 142.39,32.9 253.92,71.34 393.82,104.63 296.62,70.59 606.83,80.7 929.95,80.87 457.58,0.25 1252.14,-89.91 1677.71,-205.29 251.71,-68.24 490.83,-128.68 734.04,-205.19 233.36,-73.4 459.1,-167.49 656.81,-264.53l-0.09 399.93 0.01 0zm-13609.18 -2328.33c-27.61,-68.42 -423.96,-386.8 -456.69,-441.39 65.96,11.62 246.8,102.87 322.17,135.81 518.49,226.64 943.37,544.33 1520.36,731.7 227.29,73.8 487.3,109.39 725.95,173.07 129.31,34.5 495.41,177 668.93,234.6 229.04,76.03 469.73,125.33 704.86,193.61 455.52,132.3 1328.78,479.34 1392.95,850.26 -176.56,-173.59 -1009.65,-480 -1370.52,-577.52 -105.43,-28.49 -220.57,-58.36 -328.87,-85.35 -345.53,-86.12 -293.55,-53.32 -630.83,-199.55 -486.12,-210.77 -421.61,-170.59 -953.75,-280.39 -411.71,-84.95 -771.74,-289.84 -1258.16,-385.96 -121.54,-24.02 -262.9,-3.65 -387.02,4.67 -475.86,31.91 -1059.69,28.42 -1472.06,-168.57l-1.11 -260.69c47.42,8.15 116.58,35.59 170.82,48.81 374.06,91.13 604.06,96.76 988.62,91.14 74.53,-1.09 332.35,1.46 364.35,-64.25zm-694.87 -3074.6c19.91,-28.64 84.96,-87.33 122.08,-97.22 17.78,98.2 47.01,199.79 67.9,307.23 67.47,347 97.4,615.26 147.35,963.18 42.49,296.06 82.08,1117.6 57.25,1407.03l-114.2 -51.98c-33.4,-2.46 -113.37,-42.55 -150.33,-58.2 -47.78,-20.22 -107.21,-63.98 -158.33,-25.42 -5.45,63.08 351.36,394.13 401.4,443.42 24.52,24.16 43.9,47 73.55,70.44 20.44,16.15 58.08,41.44 72.55,66.93 -190.84,24.46 -532.69,14.46 -727.59,-7 -98.37,-10.83 -232.08,-21.79 -329.16,-41.51 -102.41,-20.8 -200.36,-57.83 -293.28,-77.95 -5.92,-307.69 4.82,-627.12 6.78,-933.19 4.51,-703.71 181.22,-1196.84 602.25,-1729.5 37.48,-47.42 185.79,-228.45 221.75,-236.28l0.03 0.02zm5608.95 1389.78c-16.47,-21.97 -14.91,-48.01 -16.58,-74.55 -1.51,-23.99 -4.7,-47.69 -8.07,-74.08l-46.61 -451.73c-35.5,-355.06 -117.72,-904.6 -9.22,-1229.66 57.89,-173.41 113.38,-150.18 186.82,-149.81l1667.95 -3.28c287.35,-0.11 1110.32,-13.01 1336.02,5.16 11.36,211.86 -3.13,448.2 2.81,665.57 5.83,213.26 17.84,414.37 38.33,624.02 5.65,74.52 135.79,564.08 163.78,603.3 18.68,-31.74 -50.96,-469.18 -58.89,-549.61 -9.79,-99.43 -49.44,-517.77 -31.96,-590.57 -5.67,-10.01 -2.65,0.21 -7.29,-20.42 -18.24,-81.09 -10.93,-704.62 -6.85,-738.55l532.14 7.43c5.48,65.14 -4.88,110.86 -5.43,173.19 -0.53,59.32 0.26,118.62 -0.52,177.94 -5.55,421.1 5.27,637.17 25.68,1058.47 20.02,413.22 91.36,877.68 177.41,1262.14 90.1,402.51 193.05,765.44 245.73,1193.18 26.57,215.66 48.64,435.73 70.54,651.86 21.47,211.93 58.36,441.82 74.6,651.83 46.27,257.21 83.78,358.28 188.06,575.69 12.59,26.26 17.78,47.56 38.81,57.02 5.27,-39.42 -64.07,-266.2 -78.34,-331.65 -28.16,-129.19 -31.6,-229.03 -48.19,-358.36 -76.77,-598.51 0.71,-1180.37 -56.58,-1586.33 -79.67,-564.47 -179.41,-799.3 -311.32,-1323.17 -148.16,-588.43 -208.41,-764.54 -220.29,-1410.41 -2.17,-117.45 -3.25,-715.13 14.43,-794 632.92,-12.64 1279.15,-0.81 1913.6,-0.41 148.3,0.09 148.85,15.59 228.49,15.88 507.06,1.87 956.03,2.15 1416.23,242.63 228.67,119.49 394.05,266.37 535.34,421.75 150.42,165.42 294.18,316.05 418.52,538.3 114.84,205.28 212.46,442.89 256.41,697.85 38.65,224.24 80.4,642.03 67.52,870.01 2.92,-4.96 -20.55,-250.29 -22.33,-290.44 -14.57,-328.89 11.06,-247.61 -77.43,-568.86 -30.53,-110.84 -73.56,-158.15 -101.37,-223.22 -11.34,14.76 -26.6,-26.36 2.16,83.96 7.32,28.11 12.14,53.76 18.38,83.08 11.63,54.68 19.87,120.96 26.64,178.1 10.07,84.97 32.21,295.35 21.3,373.33 12.35,17.79 8.77,26.88 10.12,56.3 1.06,23.01 2.19,45.68 3.47,68.69l19.21 367.36c-1.79,-29.78 -141.64,-301.77 -166.71,-348.53 -145.91,-272.12 -341.1,-527.57 -552.87,-742.18 -32.87,-33.31 -111.27,-99.56 -130.05,-128.36 -45.96,-10.62 -156.93,-133.23 -224.8,-144.1 96.73,54 253.56,242.55 322.83,338.82l277.63 382.2c172.63,242.6 357.55,578.15 460.18,869.78 16.49,46.85 22.52,84.3 37.95,130.81 42.15,127.1 -87.06,156.64 50.03,398.54 44.82,79.09 28.11,204.39 28.04,306.18l0.13 990.6c-0.12,210.72 11.68,298.1 -1.86,504.39 -567.69,237.69 -983.1,389.82 -1609.39,515.53 -616.75,123.8 -1290.87,196.93 -1956.08,145.03 -427.67,-33.36 -526.24,-115.43 -878.8,-184.71 -285.7,-56.15 -525.43,-178.22 -745.89,-311.6 -660.38,-399.51 -1117.79,-366.63 -1659.62,-294.01 49.91,26.85 143.25,52.73 199.42,75.49l187.84 83c136.62,58.08 261.19,99.56 385.37,165.79 118.02,62.93 248.35,128.9 355.37,194.99 202.89,125.29 495.56,357.94 667.1,433.58 150.81,66.5 287,59.35 443.77,106.2 289.34,86.47 488.44,223.64 821.67,270.55 222.55,31.32 800.32,-7.18 1045.86,-25.69 636.35,-47.96 1288.6,-159.56 1902.65,-291.9 149.18,-32.15 290.9,-67.86 437.1,-111.3 82.56,-24.54 354.36,-125.41 405.84,-129.81 4.77,337.6 10.03,2799.56 -4.1,2831.58 -2453,399.76 -2446.64,632.1 -4635.1,-87.02 -287.92,-150.75 -653.31,-185.81 -818.2,-384.38 -109.02,-131.27 -191.45,-268.93 -303.34,-390.76 -108.84,-118.51 -190.44,-129.42 -326.52,-199.14 -52.86,-27.08 -65.38,-27.08 -69.13,-96.26 -22.8,-420.55 -377.37,-534.08 -605.12,-786.82 -98.37,-109.16 -144.28,-319.48 -239.22,-453.68 -48.15,-68.08 -302.52,-299.46 -403.56,-284.37 5.56,111.97 154.35,527.1 201.35,646.14 93.26,236.21 219.66,330.97 373.92,464.32 459.64,397.36 153.76,618.87 435.9,825.6 79.21,58.03 176.59,98.73 258.41,156.51 157.05,110.9 246.07,310.53 370.71,475.78 101.52,134.57 200.83,217.68 311.3,323.8 124.35,119.43 191.95,128.41 182.65,232.21 -14.19,158.36 -109.9,310.13 -203.16,424.54 -50.47,61.91 -348.32,372.51 -423.96,413.5 -34.58,-18.89 -72.67,-53.67 -114.54,-79.67 -123.26,-76.58 -261.81,-120.41 -404.81,-152.92 -112.04,-25.47 -187.71,-39.15 -285.72,-88.28 -383.36,-192.2 -512.64,-473.63 -974.02,-511.32 -81.4,-6.66 -274.27,-8.79 -327.2,37.04 13.46,12.09 210.27,93.07 248.94,112.85 457.16,233.84 270.04,163.79 620.42,472.26 489.38,430.85 754.73,288.38 944.78,502.86 157.05,177.24 69.84,367.7 91.23,621.04 18.97,224.73 144.32,341.15 171.96,553.55 32.29,248.16 -33.13,773.67 -179.2,986.8 -440.05,44.31 -842.82,40.05 -1291.5,45.52 -222.49,2.72 -446.43,5.01 -668.86,2.98 -86.98,-0.79 -578.44,183.98 -659.07,258.14 42.18,45.15 73.85,25.59 79.5,93.34 -175.52,3.4 -918.47,6.41 -1037.21,34.14 46.04,54.93 487.39,150.48 597.45,172.52 203,40.66 524.28,44.13 740.18,26.72 242.48,-19.55 373.35,-62.32 686.71,-81.02 199.35,-11.9 894.12,-3.68 1134.45,7.73 203.09,9.65 219.38,-13.62 294.36,87.12 140.79,189.19 88.28,398.83 57.14,638.7 -66.89,515.29 248.73,586.79 278.6,676.26 39.66,118.78 -60.66,357.3 -103.51,453.39 -354.44,14.19 -736.27,0.45 -1093.87,0.92 -364.03,0.47 -728.16,0.44 -1092.19,0 -172.09,-0.2 -366.15,20.06 -518.59,-33.4 -204.11,-71.59 -365.63,-167.32 -529.17,-292.11 -133.16,-101.61 -171.07,-229.19 -315.08,-229.92 -61.86,-0.32 -217.68,11.65 -266.63,-0.61 -29.69,-194.96 -31.98,-471.79 -34.66,-673.23 -8.71,-654.94 -0.77,-1424.97 -58.95,-2056.32 -38.29,-415.44 -110.79,-825.66 -160.17,-1241.53 -24.88,-209.62 -47.86,-424.23 -70.27,-632.83 -17.79,-165.59 -31.13,-490.99 -77.7,-624.4 -28.78,14.49 -31.31,75.9 -37.2,105.28 -7.66,38.2 -14.86,77.21 -20.8,110.99 -21.19,196.18 -65.38,369.89 -78.15,579.69 -37.37,614.14 -2.18,1256.48 44.19,1861.87 30.97,404.3 46.8,810.59 75.48,1216.25 14.21,200.88 7.14,435.55 3.21,638.65 -3.9,202.1 -3.04,422.09 -18.31,621.61 -47.76,31.45 -321.41,207.4 -383.11,127.21 -36.68,-5.14 -84.95,-35.63 -136.49,-45.99 -179.4,-36.05 -272.76,130.27 -403.29,123.93 -72,-177.62 -96.33,-896.04 -163.9,-983.11 -15.75,15.11 -14.96,9.74 -18.31,37.86 -0.75,256.14 -5.47,687.16 -92.3,896.55 -82.47,198.87 -339.07,277.46 -489.53,491.66l-33.35 2.19c-213.46,-3.64 -430.87,-0.35 -644.97,-0.24 -104.88,0.05 -217.42,-4.74 -321.46,-13.94 -92.18,-8.14 -186.98,-35.8 -272.9,-44.38 -572.25,-97.51 -1203.18,-440.75 -1520.42,-893.46 -480.15,-685.2 -405.98,-1185.14 -408.07,-1996.28l-3.23 -4814.61 4.43 -3360.72c115.99,28.73 209.09,86.04 408.58,120.62 316.89,54.92 661.76,66.39 983.58,43.95 113.74,-7.93 395.49,-42.17 479.91,-17.61 267.34,77.77 532.83,172.54 786.2,264.58 382.39,138.9 484.39,124.97 843.58,205.17 277.32,61.92 514.09,203.99 764.47,294.13 125.03,45.02 638.2,163.34 831.96,217.97 335.06,94.48 821.91,278.47 1140.75,435.37 60.22,29.63 311.96,173.61 357.76,173.57 -22.08,-62.26 -169.22,-365.72 -221.99,-421.22 -67.68,-71.14 -160.71,-163 -252.51,-221.64 -417.71,-266.87 -865.33,-423.99 -1358.17,-547.69 -263.37,-66.11 -480.25,-133.45 -725.77,-222.45 -341.19,-123.71 -362.27,-147.25 -739.26,-216.5 -808.23,-148.45 -1295.06,-596.95 -1980.44,-864.33 31.41,-179.93 7.22,-563.59 1.59,-762.9 -12.49,-441.87 -76,-963.52 -151.75,-1396.83 -19.26,-110.14 -39.88,-221.85 -60.15,-329.77 -16.19,-86.2 -67.12,-242.74 -71.3,-313.86 67.02,-64.05 451.72,-309.36 568.9,-319.04l54.35 -25.56c53.65,-18.37 124.67,-45.89 174.85,-52.45 7.15,79.06 -2.37,170.76 0.63,253.39 2.89,79.37 10.71,156.65 14.28,236.63 7.15,160.33 21.26,315.19 27.6,474.13 13.5,338.74 38.17,584.63 99.32,906.23 32.23,176.84 89.13,357.22 150.86,505.15 2.51,-38.48 -36.18,-203.37 -44.57,-260.31 -75.34,-510.77 -147.23,-1599.36 -137.18,-2103.63l8.34 -32.1 700.68 5.16c11.3,108.67 13.65,598.01 18.69,759.53 14.2,454.75 20.34,304.35 87.05,690.79l56.87 290.48c17.37,73.22 8.64,73.21 34.16,82.68 23.19,-42.04 -26.39,-357.48 -34.02,-427.56 -40.29,-370.05 -65.54,-1028.06 -43.57,-1380.67 10.96,-22.89 -6.72,-8.67 18.32,-19.66l547.94 3.85c18.54,253.83 19.51,513.57 33.67,768.3 29.06,522.77 46.36,1032.67 33.01,1558.37 -1.18,46.61 -25.06,697.64 -59.2,745.91 11.35,69.56 -38.87,200.59 3.38,251.54 18.51,-29.14 132.97,-662.35 143.74,-750.84 49.94,-410.27 15.58,-1299.55 -12.87,-1736.24l-44.73 -837.99 2866.88 1.71c-16.43,29.43 -62.67,68.45 -85.37,96.42 -80.74,99.47 -106.62,305.1 -109.34,434.27 -6.83,323.87 110.25,951.04 195.7,1261.42 13.12,47.65 123.05,521.29 161.71,558.33 33.03,-53.58 -39.85,-290.98 -30.16,-371.86l-0.05 -0.04zm-4286.64 -2094.27c-340.5,19.53 -478.02,29.22 -782.92,177.62 -281.04,136.8 -600.07,397 -801.37,629.82 -220.63,255.16 -429.93,587.22 -528.49,919.48 -70.87,238.91 -152.23,530.68 -156.84,799.09 -5.44,317.18 0.12,638.96 -0.05,956.73 -1.78,3197.16 -14.58,6407.05 1.98,9601.18 2.64,509.84 225.81,1014.64 532.7,1378.15 282.05,334.08 748.11,597.26 1188.24,733.9 569.76,176.87 1184.22,133.77 1781.72,133.1l8635.97 0.87c613.61,-0.6 736.98,48.85 1294.02,-147.53 104.15,-36.71 258.2,-94.56 340.8,-141.8 636.42,-363.94 1154.55,-732.57 1422.18,-1457.12 84.59,-229 175.1,-509.84 172.59,-787.44 -2.87,-318.28 -0.13,-638.28 0.06,-956.72 0.4,-640.6 1.09,-1281.35 0.04,-1921.94l0.02 -5757.32c0.64,-316.66 6.36,-640.91 0.3,-956.73 -3.05,-159.11 -12.04,-309.71 -9.81,-474.13 4.76,-350.51 2.08,-534.02 -87.47,-872.18l-129.83 -352.25c-147.92,-338.54 -352.64,-589.25 -593.97,-837.33 -37.78,-38.84 -77.07,-79.85 -121.04,-116.1 -46.63,-38.45 -81.98,-63.19 -141.05,-104.21 -420.41,-291.95 -916.07,-490.53 -1469.51,-452.89 -175.3,11.93 -739.16,1.69 -956.72,1.79 -640.63,0.32 -1281.29,0.24 -1921.93,0l-6714.05 0.06c-308.2,-0.24 -652.92,-13.48 -955.55,3.89l-0.02 0.01z"/>
  <path class="fil2" d="M10308.95 14819.27c76.67,-13.49 249.7,276.59 276.67,330.73 96.5,193.7 102.22,280.97 68.25,523.26 -60.27,19.37 -125.57,-65.25 -177.19,-117.55 -204.86,-207.56 -211.05,-440.52 -167.73,-736.44zm86.21 1401.81c182.67,4.15 552.64,-17.08 642.38,-114.68 113.83,-123.79 246.38,-352.37 281.35,-513.64 87.92,-405.31 -325.46,-690.09 -477.16,-933.95 -64.2,-103.2 -84.73,-232.8 -103.68,-371.61 -52.82,-386.95 189.8,-537.97 277.08,-1131.33 82.1,-373.33 66.04,-613.11 -191.68,-886.83 -115.5,-154.44 -115.62,-535.47 -36.19,-575.47 572.12,-339.53 709.65,-739 826.51,-1017.31 25.05,-10.57 1183.21,334.51 1322.44,377.7 183.07,56.79 367.51,134.77 564.3,181.17 399.45,94.21 972.39,66.83 1409.07,72.5 264.56,3.44 901.13,54.93 1185.86,110.74 54.58,10.69 101.71,28.99 154.73,37.3l4.65 -1300.64c-530.25,76.79 -1465.64,260.26 -2308.65,397.74 -706.76,21.88 -1353.8,-220.43 -2002.31,-348.22 -481.4,-210.67 -764.38,-287.46 -1110.24,-415.96 -188.37,-160.96 -299.59,-413.21 -463.52,-552.33 -164.5,-139.59 -366.36,-100.11 -376.83,-305.68 -14.85,-291.84 -184.6,-397.63 -425.42,-593.98 -336.95,-274.72 -234.43,-380.27 -407.47,-608.6 -33.8,-44.61 -129.19,-143.01 -187.22,-162.56l161.63 408.31c66.7,172.03 127.94,243.7 234.96,340.79 270.21,245.12 392.83,316.1 444.1,700.25 11.78,88.29 23.22,151.89 76.71,200.9 162.42,148.83 270.24,92.7 481.06,383.06 91.97,126.67 105.99,181.58 235.82,340.32 139.74,170.86 278.02,277.66 434.01,420.61 152.17,139.46 -82.42,512.27 -163.47,618.08 -54.15,70.68 -428.39,476.94 -524.3,486.33 -41.01,4.02 -72,-35.1 -93.6,-52.08 -249.39,-195.96 -548.85,-169.22 -820.78,-321.84 -228.73,-128.38 -510.72,-421.5 -722.92,-435.7 17.32,24.37 91.01,56.61 148.11,104.12 47.34,39.38 82.48,75.98 127,118.6 84.31,80.73 158.76,156.38 258.26,241.26 411.84,351.31 746.18,203.22 946.55,535.53 85.54,141.86 62.88,244.83 61.93,434.26 -1.03,204.85 -3.5,255.46 73.7,420.66 139.23,297.89 126.41,513.43 58.68,833.7 -42.02,198.72 -23.27,421.82 -184.45,548.47 -90.29,70.96 -1653.22,68.3 -1918.77,65.99l-555.69 182.98c2.87,76.44 78.24,65.8 127.85,115.66 -22.84,47.52 -83.21,40.71 -146.84,44.26l-560.96 15.58c57.62,27.89 521.32,30.44 620.23,25.25 206.87,-10.84 384.02,-39.64 586.45,-67.4 333.94,-45.8 1201.88,-26.3 1572.48,-0.37 90.11,6.3 90.28,-2.38 186,135.49 252.79,364.06 -71.43,788.63 126.48,1092.79 43.95,88.05 189.96,160.25 214.66,241.87 33.01,109.11 6.69,229.13 -62.89,477.91z"/>
  <path class="fil0" d="M2227 4243.61l19.94 -3.98c2.74,-226.34 -1.34,-471.4 -12.98,-694.19 -16.28,-311.83 -88.77,-958.09 -137.44,-1269.77 -40.17,-257.21 -96.94,-397.23 -127.44,-570.95l-22.46 10.63c-35.97,7.83 -184.28,188.86 -221.75,236.28 -421.03,532.66 -597.74,1025.79 -602.25,1729.5 -1.96,306.07 -12.7,625.5 -6.78,933.19 92.92,20.12 190.87,57.15 293.28,77.95 97.08,19.72 230.79,30.68 329.16,41.51 194.9,21.46 536.75,31.46 727.59,7 -14.48,-25.49 -52.12,-50.78 -72.55,-66.93 -29.66,-23.44 -49.04,-46.28 -73.55,-70.44 -50.04,-49.29 -406.85,-380.34 -401.4,-443.42 51.12,-38.56 110.55,5.2 158.33,25.42 36.96,15.65 116.93,55.74 150.33,58.2l-0.03 0z"/>
  <path class="fil3" d="M12954.08 16220.92c308.76,9.48 678.83,8.48 981.52,-18.07 224.5,-19.68 580.45,-157.65 753.67,-245.31 457.37,-231.46 868.99,-541.39 1117.96,-880.21 208.01,-283.08 365.12,-686.61 429,-1061.64 30.27,-177.76 15.42,-1251.26 15.55,-1478.76l2.26 -745.07c-0.04,-42.31 -0.27,-84.7 -0.1,-127.01 0.18,-43.19 15.03,-97.67 -23.1,-109.1 46.37,83.59 -17.19,788.29 -37.8,926.99 -43.83,294.9 -122.66,524.71 -214.03,785.66 -83.37,238.12 -194.84,480.39 -316.06,674.12 -135.02,215.79 -253.75,406.77 -401.24,597.88 -527.84,683.99 -1141.07,1190.66 -1941.85,1537.61l-365.78 142.9 0 0.01z"/>
  <path class="fil1" d="M5299.69 9487.03l-149.3 -34.94c5.14,-284.52 82.48,-582.37 114.65,-860.38 5.59,-48.27 96.76,-771.71 139.4,-824.56 -9.6,-39.13 3.13,-33.76 2.72,-65.96l-3.51 -19.75c-0.34,-1.49 -1.2,-4.4 -2.32,-6.36 -67.21,46.29 -188.96,700.3 -217.9,834.3 -64.34,297.89 -119.06,594.18 -143.9,914.84 -19.59,6.3 -332.1,-14.93 -391.72,-14.96 -548.85,-0.27 -594.96,7.55 -1164.79,-93.27 -268.76,-47.55 -518.17,-46.1 -799.59,-39.64 -223.58,5.13 -483.75,100.11 -682.66,159.15l87.47 4.42c24.86,-15.17 58.36,-13.93 87.17,-16.17l279.2 -27.91c452.38,-37.09 658.37,43.16 1068.5,126.04 479.81,96.96 1004.63,64.77 1500.5,108.86l0.36 178.93c-1.63,82.16 49.86,291.07 74.75,380.63 8.74,31.45 26.55,114.93 40.21,91.54 14.47,-64.32 -2.88,-235.02 -5.09,-309.96 -2.76,-93.62 -9.49,-234.59 2.76,-324.43 42.16,-1.22 352.7,76.13 509.78,89.61 200.14,17.17 392.85,7.03 594.63,12.95l0.5 671.45c-3.24,91.92 58.26,372.13 78.7,477.5 15.06,77.66 30.72,156.66 48.82,230.02 15,60.75 52.27,175.94 52.03,225.06 9.69,-5.53 14.11,6.1 18.08,-44.24l-3.1 -152.92c5.03,-204.38 -5.77,-401.6 5.87,-626.58 7.12,-137.45 11.41,-266.37 22.41,-403.56l22.16 -366.15c5.89,-22.72 -1.05,-11.11 12.32,-23.51 13.89,-8.19 423.13,-34.37 480.23,-40.24 361.09,-37.16 553.65,-68.87 906.74,-146.11 169.97,-37.19 323.03,-113.87 401.85,-130.84 30.32,-21.48 100.53,-48.92 140.82,-70.65 50.44,-27.2 93,-57.1 140.89,-87.54 57.31,-36.42 251.98,-152.96 273.59,-189.87 -66.55,-0.07 -171.45,62.35 -238.44,89.24 -80.89,32.48 -154.9,55.46 -241.65,80.68 -208.08,60.49 -1489.24,328.52 -1638.03,313.1 -19.39,12.29 -19.15,10.98 -60.89,13.82l-165.71 15.65c-5.73,-312.54 94.12,-1187.2 138.68,-1483.15 46.65,-309.86 118.13,-715.01 191.11,-1022.27l81.83 -319.2c-0.16,-28.39 11.98,-42.33 -1.41,-70.6 -87.57,101.35 -326.48,747.17 -397.77,935.96 -44.98,119.11 -66.77,227.13 -94.28,354.76 -56.45,261.89 -85.67,508.27 -115.25,783.95 -10.54,98.16 -54.8,823.79 -60.55,836.46 -72.46,29.83 -418.4,5.77 -510.25,-6.69 -150.49,-20.4 -292,-67.37 -430.6,-106.5l-0.02 -0.01z"/>
  <path class="fil3" d="M5622.4 15698.76c61.7,80.19 335.35,-95.76 383.11,-127.21 15.27,-199.52 14.41,-419.51 18.31,-621.61 3.93,-203.1 11,-437.77 -3.21,-638.65 -28.68,-405.65 -44.51,-811.94 -75.48,-1216.25 -46.37,-605.39 -81.56,-1247.73 -44.19,-1861.87 12.77,-209.79 56.96,-383.51 78.15,-579.69 -21.01,24.84 -19.55,38.05 -27.52,72.05 -4.92,20.97 -13.53,44.5 -19.85,64.92 -14.01,45.3 -26.79,88.76 -40.45,136.49 -258.6,903.44 -320.99,1135.29 -262.61,2143.41 12.88,222.41 22.78,447.22 33.33,668.61 10.51,220.61 34.43,433.89 52.67,652.02 18.82,225.11 31.01,448.71 8.57,677.42 -20.28,206.71 -61.3,426.77 -72.56,636.1l-28.26 -5.75 -0.01 0.01z"/>
  <path class="fil3" d="M10779.95 1879.9l-6.66 -748.51 276.67 0.3c-50.19,549.31 -30.4,901.76 4.56,1448.75 36.17,565.91 66.48,775.43 192.91,1322.9 92.84,401.99 247.24,762.73 338.15,1170.31 85.45,383.08 169.85,805.72 281.12,1181.44l19.26 41.89c-16.24,-210.01 -53.13,-439.9 -74.6,-651.83 -21.9,-216.13 -43.97,-436.2 -70.54,-651.86 -52.68,-427.74 -155.63,-790.67 -245.73,-1193.18 -86.05,-384.47 -157.39,-848.93 -177.41,-1262.14 -20.41,-421.3 -31.23,-637.37 -25.68,-1058.47 0.78,-59.32 -0.01,-118.62 0.52,-177.94 0.55,-62.33 10.91,-108.05 5.43,-173.19l-532.14 -7.43c-4.08,33.93 -11.39,657.45 6.85,738.55 4.64,20.63 1.62,10.41 7.29,20.42l0 -0.01z"/>
  <path class="fil2" d="M16250.68 7118.28l0.83 -400.68c-197.72,97.04 -423.46,191.12 -656.81,264.53 -243.21,76.51 -482.33,136.95 -734.04,205.19 -425.57,115.38 -1220.14,205.54 -1677.71,205.29 -323.12,-0.17 -633.33,-10.28 -929.95,-80.87 -139.9,-33.29 -251.43,-71.73 -393.82,-104.63 -148.32,-34.27 -263.67,-59.19 -396.61,-111.46 -117.48,-46.2 -235.54,-100.49 -340.45,-159.21 -110.07,-61.61 -204.3,-129.46 -317.06,-191.33 -392.54,-215.35 -643.11,-204.2 -1097.47,-226.38l673.36 267.89c118.65,64.88 206.16,113.91 309.47,181.67 102.1,66.96 192.38,134.27 288.63,202.54 87.34,61.96 193.36,135.99 312.55,178.71 117.13,41.99 273.17,46.78 403.27,88.13 127.88,40.63 233.3,90.64 352.19,138.1 287.5,114.75 497.88,149.07 847.38,128.82 309.27,-17.92 616.21,-34.69 922.54,-64.74 610.75,-59.9 1097.87,-160.62 1684.86,-285.68 118.27,-25.2 683.61,-182.95 748.85,-235.89l-0.01 0z"/>
  <path class="fil2" d="M2641.49 4789.95c-32.01,65.71 -289.82,63.16 -364.35,64.25 -384.56,5.62 -614.56,-0.01 -988.62,-91.14 -54.24,-13.22 -123.4,-40.66 -170.82,-48.81l1.11 260.69c412.37,196.99 996.2,200.48 1472.06,168.57 124.12,-8.32 265.48,-28.69 387.02,-4.67 486.43,96.12 846.46,301.01 1258.16,385.96 532.15,109.8 467.64,69.62 953.75,280.39 337.28,146.23 285.3,113.43 630.83,199.55 108.29,26.99 223.43,56.86 328.87,85.35 360.87,97.52 1186.54,407.69 1370.52,577.52 -83.8,-398.63 -937.43,-717.96 -1392.95,-850.26 -235.13,-68.28 -475.82,-117.58 -704.86,-193.61 -173.53,-57.6 -539.63,-200.1 -668.93,-234.6 -238.65,-63.68 -498.66,-99.26 -725.95,-173.07 -576.98,-187.37 -1001.86,-505.06 -1520.36,-731.7 -75.37,-32.94 -256.21,-124.19 -322.17,-135.81 32.73,54.59 429.08,372.97 456.69,441.39z"/>
  <path class="fil1" d="M6746.81 1954.26c16.13,146.11 10.1,311.58 19.68,461.04 9.82,153.23 18.02,301.18 34.94,451.49 68.97,612.51 294.34,945.63 445.15,1481.63 31.58,112.25 87.71,242.34 130.07,354.4 34.11,90.25 114.06,263.88 126.93,360.41l-55.24 -84.68c-17.65,-30.82 -36.61,-60.71 -53.7,-90.51 -64.16,-111.86 -135.92,-246.41 -224.07,-334.88 -22.02,-22.1 -118.34,-121.54 -148.33,-123.49 42.03,143.14 -27.91,568.86 -29.97,657.74 -21.56,-29.85 -104.92,-328.63 -113.39,-371.82 -183.68,-557.8 -353.88,-688.63 -495.6,-1203.15 -77.13,-280 196.21,-1309.34 363.53,-1558.18zm277 3417.55c24.52,-16.88 20.33,-16.72 22.77,-53.53l44.48 -307.92c6.13,-116.56 43.18,-226.8 43.96,-341.8 1.89,1.37 4.53,1.4 5.34,4.55l119.37 188.6c88.81,159.75 143.34,237.21 229.51,414.24 22.05,45.31 76.39,187.83 113.41,207.93 34.65,-67.93 -18.02,-439.06 -32.18,-528.9 -19.94,-126.45 -103.81,-297.68 -148.88,-424.31 -100.11,-281.22 -193.13,-575.71 -301.38,-849.71 -240.43,-608.62 -254.5,-1105.1 -266.93,-1744.24 -1.33,-68.49 10.74,-234.17 -29.56,-272.32 -42.56,24.24 -174.66,308.69 -208.17,377.1 -202.96,414.44 -470.12,1147.45 -349,1589.19 85.88,313.2 274.59,571.55 385.8,859.66 58.41,151.3 129.55,327.82 182.99,473.9l158.25 358.01c19.57,55.35 15.8,40.42 30.22,49.55z"/>
  <path class="fil3 str0" d="M3045.92 16163.29c-14.09,-15.81 -172.54,-80.5 -207.11,-98.6 -69.62,-36.43 -132.82,-67.67 -196.83,-108 -214.27,-134.98 -486.78,-378.21 -632.87,-569.35 -87.82,-114.89 -165.71,-228.72 -247.6,-353.49 -320.56,-488.4 -496.85,-1118.1 -609.49,-1794.79 -33.69,-202.44 -29.43,-374.22 -29.27,-583.59 0.49,-618.73 10.19,-4166.76 -8.55,-4196.54l3.23 4814.61c2.09,811.14 -72.08,1311.09 408.07,1996.28 317.24,452.71 948.16,795.95 1520.42,893.46l0 0.01z"/>
  <path class="fil2" d="M6746.81 1954.26c-195.14,290.22 -478.71,1234.37 -352.96,1595.64 63.59,230.88 519,1427.55 598.42,1537.51 2.06,-88.88 83.83,-455.61 29.97,-657.74 29.99,1.95 126.31,101.39 148.33,123.49 88.15,88.47 159.91,223.01 224.07,334.88 17.09,29.8 36.05,59.69 53.7,90.51l55.24 84.68c-12.87,-96.53 -92.82,-270.16 -126.93,-360.41 -42.36,-112.06 -98.49,-242.15 -130.07,-354.4 -150.81,-535.99 -376.18,-869.12 -445.15,-1481.63 -16.92,-150.31 -25.12,-298.26 -34.94,-451.49 -9.58,-149.46 -3.55,-314.93 -19.68,-461.04z"/>
  <path class="fil3" d="M6421.05 11354.03l3.84 40.02c25.81,-20.53 29.67,-10.55 26.58,-93.28 -1.26,-33.53 -4.56,-68.87 -4.8,-101.87 -0.41,-54.39 8.84,-114.71 19.5,-170 21.24,-110.14 47.84,-218.88 70.95,-327.71 34.28,-161.42 59.1,-349.75 77.69,-516.87 27.05,-243.15 -36.62,-164.84 279.67,-193.02 320.65,-28.57 958.69,-256.59 1232.59,-443.48l160.54 -127.94c-78.82,16.97 -231.88,93.65 -401.85,130.84 -353.09,77.24 -545.65,108.95 -906.74,146.11 -57.1,5.87 -466.34,32.05 -480.23,40.24 -13.37,12.4 -6.43,0.79 -12.32,23.51l-22.16 366.15c-11,137.19 -15.29,266.11 -22.41,403.56 -11.64,224.98 -0.84,422.2 -5.87,626.58l3.1 152.92c-3.97,50.34 -8.39,38.71 -18.08,44.24z"/>
  <path class="fil3" d="M7555.57 3105.13c0.87,-31.1 -6.07,-33.31 -2.88,-65.83 10.06,-102.57 -6.45,-352.84 -3.14,-493.02 12.04,-509.23 103.62,-981.93 339,-1412.15l2655.12 -3.32c-9.82,424.22 -14.8,589.32 71.27,1000.54l92.08 285.43c-20.49,-209.65 -32.5,-410.76 -38.33,-624.02 -5.94,-217.38 8.55,-453.72 -2.81,-665.57 -225.69,-18.17 -1048.67,-5.27 -1336.02,-5.16l-1667.95 3.28c-73.43,-0.37 -128.93,-23.6 -186.82,149.81 -108.5,325.06 -26.28,874.6 9.22,1229.66l46.61 451.73c3.37,26.4 6.56,50.1 8.07,74.08 1.67,26.54 0.11,52.58 16.58,74.55l0 -0.01z"/>
  <path class="fil1" d="M14535.3 6792.35c87.53,-260.65 351.31,-479.24 64.82,-744.68 -29.85,-27.66 -57.25,-44.82 -85.01,-76.03 -126.46,-142.14 -155.13,-469.78 -232.03,-690 -27.07,-77.5 -68.21,-162.78 -86.97,-233.11l-37.61 -74.72c-8.07,-12.76 -0.86,-3.54 -10.54,-13.75 6.84,72.32 29.96,168 42.67,243.4 14.01,83.13 24.3,171.88 37.49,259.16 14.33,94.83 22.38,168.71 32.07,265.25 7.37,73.3 55.75,187.04 55.37,239.55 -0.26,36.27 -26.58,66.7 -35.59,104.23 -32.05,133.41 12.7,260.14 50.91,380.53 23.85,75.16 48.02,147.39 70.63,226.09l43.23 207.9c17.06,51.35 -1.42,11.27 18.62,32.25l71.94 -126.07z"/>
  <path class="fil3" d="M2088.23 9439.92c19.62,-0.36 36.61,-4.65 53.13,-2.85 51.59,5.63 -23.92,14.99 135.78,14.22 67.88,-0.32 135.77,0.79 203.63,3.16 411.41,14.38 671.78,84.48 1060.73,183.74 529.85,135.23 1230.63,106.82 1482.46,171.48l-0.36 -178.93c-495.87,-44.09 -1020.69,-11.9 -1500.5,-108.86 -410.12,-82.88 -616.12,-163.13 -1068.5,-126.04l-279.2 27.91c-28.81,2.24 -62.31,1 -87.17,16.17z"/>
  <path class="fil3" d="M6724.78 9554.83l-47.99 3.63c2.63,-235.33 27.63,-485.03 40.08,-720.89 12.72,-241.26 20.93,-485.57 32.7,-728.86 9.63,-199.11 81.87,-789.68 118.27,-1021.52 15.05,-95.89 52.37,-238.92 41.96,-327.51l-81.83 319.2c-72.97,307.26 -144.46,712.41 -191.11,1022.27 -44.56,295.95 -144.41,1170.61 -138.68,1483.15l165.71 -15.65c41.74,-2.84 41.5,-1.53 60.89,-13.82z"/>
  <path class="fil3" d="M3892.89 1141.6c43.65,-24.24 154.91,-12.87 216.36,-8.11 73.27,115.64 174.8,473.1 219.69,639.58 154.25,571.98 145.97,995.6 152.52,1577.56l-15.71 635.86c-2.37,37.85 -6.07,68.87 0.97,105.71 11.23,58.8 -1.9,53.7 -0.1,106.18 34.14,-48.27 58.02,-699.3 59.2,-745.91 13.35,-525.71 -3.95,-1035.61 -33.01,-1558.37 -14.16,-254.72 -15.13,-514.46 -33.67,-768.3l-547.94 -3.85c-25.04,10.99 -7.36,-3.23 -18.32,19.66l0.01 -0.01z"/>
  <path class="fil3" d="M2724.55 1219.71l19.76 2.08c-5.98,397.79 69.82,1030.49 195.83,1406.95 21.53,64.33 43.14,127.47 66.66,195.1l55.14 147.77c14.35,34.56 7.07,25.48 33.64,40.46 -61.15,-321.6 -85.82,-567.49 -99.32,-906.23 -6.34,-158.94 -20.45,-313.8 -27.6,-474.13 -3.57,-79.98 -11.39,-157.26 -14.28,-236.63 -3,-82.63 6.52,-174.33 -0.63,-253.39 -50.18,6.56 -121.2,34.08 -174.85,52.45l-54.35 25.56 0 0.01z"/>
  <path class="fil3" d="M1946.61 1715.35l22.46 -10.63c30.5,173.72 87.27,313.74 127.44,570.95 48.67,311.67 121.16,957.93 137.44,1269.77 11.64,222.78 15.72,467.85 12.98,694.19l-19.94 3.98 114.2 51.98c24.83,-289.43 -14.76,-1110.97 -57.25,-1407.03 -49.95,-347.93 -79.88,-616.19 -147.35,-963.18 -20.89,-107.44 -50.12,-209.03 -67.9,-307.23 -37.12,9.89 -102.17,68.58 -122.08,97.22l0 -0.02z"/>
  <path class="fil3" d="M5138.91 10281.83c34.6,-13.5 -2.64,-15.53 24.81,-106.22 3.48,-11.52 23.16,-241.14 44.08,-339.12 145.31,10.07 341.89,56.73 492.86,82.12 176.06,29.6 347.76,34.72 522.37,59.37 44.08,82.06 -27.72,359.16 18.47,443.47l-0.5 -671.45c-201.78,-5.92 -394.49,4.22 -594.63,-12.95 -157.09,-13.48 -467.63,-90.83 -509.78,-89.61 -12.25,89.84 -5.52,230.81 -2.76,324.43 2.21,74.94 19.56,245.64 5.09,309.96l-0.01 0z"/>
  <path class="fil3" d="M3064.69 1153.3l14.3 -22.24 555.7 0.25c5.13,528.82 -19.11,804.01 170.27,1301.45 10.18,26.73 16.73,46.89 27.5,72.63l41.83 65.88c1.21,1.33 3.37,3.67 5.16,5.4 -66.71,-386.44 -72.84,-236.04 -87.05,-690.79 -5.04,-161.52 -7.39,-650.86 -18.69,-759.53l-700.68 -5.16 -8.34 32.1 0 0.01z"/>
  <path class="fil3" d="M5299.69 9487.03l-17.78 -23.48c39.18,-292.59 77.52,-517.05 81.96,-829.73 2.07,-146.18 6.18,-285.91 13.23,-431.36 4.98,-102.58 37.44,-352.9 27.34,-435.31 -42.64,52.85 -133.81,776.29 -139.4,824.56 -32.17,278.01 -109.51,575.86 -114.65,860.38l149.3 34.94z"/>
  <path class="fil1" d="M10372.94 15011.34c88.37,83.87 212.15,349.88 227.79,515.16 -58.74,-32.79 -131.74,-131.52 -165.71,-208.2 -35.22,-79.49 -66.56,-209.41 -62.08,-306.97l0 0.01zm-64 -192.08c-43.32,295.92 -37.13,528.88 167.73,736.44 51.62,52.3 116.92,136.92 177.19,117.55 33.97,-242.29 28.25,-329.56 -68.25,-523.26 -26.97,-54.14 -200,-344.22 -276.67,-330.73z"/>
  <path class="fil1" d="M14083.97 1612.66c-21.97,92.34 -65.52,189.76 -93.1,286.54 -59.43,208.51 -100.6,437.39 -65.61,656.29 16.89,105.63 55.94,200.36 72.58,296.89l13.18 61.98c25.99,-21.71 11.41,-258.07 19.71,-357.01 36.98,-440.73 177.71,-638.18 101.43,-1002.74 -33.96,12.56 -36.52,28.32 -48.2,58.04l0.01 0.01z"/>
  <path class="fil3" d="M16115.98 3547.7c-14.1,63.79 10.57,133.37 4.27,199.5 -62.24,-86.89 -177.8,-508.17 -541.25,-761.53 -42.43,-29.57 -86.14,-52.82 -137.47,-82.58 -43.21,-25.04 -96.04,-65.1 -142.38,-82.1 18.78,28.8 97.18,95.05 130.05,128.36 211.77,214.61 406.96,470.06 552.87,742.18 25.07,46.76 164.92,318.75 166.71,348.53l-19.21 -367.36c-1.28,-23.01 -2.41,-45.68 -3.47,-68.69 -1.35,-29.42 2.23,-38.51 -10.12,-56.3l0 -0.01z"/>
  <path class="fil3" d="M14535.3 6792.35c36.03,-17.32 122.46,-152.21 143.63,-184.21 190.18,-287.53 133.95,-461.96 -46.66,-685.87 -255.98,-317.35 -363.26,-820.15 -436.16,-873.74 18.76,70.33 59.9,155.61 86.97,233.11 76.9,220.21 105.57,547.86 232.03,690 27.76,31.21 55.16,48.37 85.01,76.03 286.49,265.44 22.71,484.03 -64.82,744.68z"/>
  <path class="fil3" d="M4285.24 16221.84l33.35 -2.19c150.46,-214.2 407.06,-292.79 489.53,-491.66 86.83,-209.39 91.55,-640.41 92.3,-896.55 -23.7,23.8 -20.2,65.22 -24.64,109.99 -26.14,263.52 -0.09,480.42 -169.07,702.46 -80.83,106.22 -407.24,439.94 -421.47,577.95z"/>
  <path class="fil1" d="M12963.39 3150.5c-22.43,115.25 -42.73,161.66 -43.97,293.25 -1.98,211.21 -8.03,395.12 71.08,589.25 32.15,78.91 74.92,168.45 99.52,239.68l46.77 74.23c4.52,-4 6.03,-10.17 6.41,-8.95 0.08,0.29 21.44,20.77 -24.91,-136.44 -13.49,-45.76 -26.18,-93.17 -36.91,-139.65 -22.83,-98.95 -41.61,-205.59 -55,-307.94 -32.72,-250.15 -19.47,-460.69 -17.95,-712.89 -19.15,17.34 -21.93,28.43 -30.11,55.76 -5.76,19.26 -10.09,33.87 -14.93,53.69l0 0.01z"/>
  <path class="fil3" d="M13997.86 2852.38c-16.65,-96.53 -55.7,-191.26 -72.58,-296.89 -34.99,-218.9 6.18,-447.79 65.61,-656.29 27.58,-96.78 71.13,-194.2 93.1,-286.54 -51.77,34.28 -143.66,207.06 -165.24,256.12 -46.96,106.73 -75.47,206.03 -91.49,330.71 -27.56,214.46 10.75,445.88 145.07,613.9l25.54 39 -0.01 -0.01z"/>
  <path class="fil3" d="M13090.02 4272.68c-24.6,-71.23 -67.37,-160.77 -99.52,-239.68 -79.11,-194.13 -73.05,-378.04 -71.08,-589.25 1.24,-131.59 21.54,-178 43.97,-293.25 -1.83,1.96 -4.1,2.48 -4.87,6.4l-24.73 56.03c-31.13,88.05 -43.01,102.01 -67.24,212.43 -41.33,188.28 -15.05,455.12 73.56,624.54 21.69,41.45 112.89,198.86 149.9,222.77l0.01 0.01z"/>
  <path class="fil3" d="M10372.94 15011.34c-4.48,97.56 26.86,227.48 62.08,306.97 33.97,76.68 106.97,175.41 165.71,208.2 -15.64,-165.29 -139.42,-431.3 -227.79,-515.16l0 -0.01z"/>
 </g>
</svg>
