<svg width="324" height="527" viewBox="0 0 324 527" fill="none" xmlns="http://www.w3.org/2000/svg">
<path d="M189.117 148.393V385.204M69.233 262.302H290.447" stroke="#D70C0C" stroke-width="30" stroke-linecap="round" stroke-linejoin="round"/>
<path opacity="0.45" d="M50.5783 94.4365V164.88M15 128.321H80.6505" stroke="#D70C0C" stroke-width="30" stroke-linecap="round" stroke-linejoin="round"/>
<path opacity="0.45" d="M104.342 341.739V445.156M56.3883 391.484H144.874" stroke="#D70C0C" stroke-width="30" stroke-linecap="round" stroke-linejoin="round"/>
<path opacity="0.45" d="M259.316 15V130.408M200.534 70.5125H309" stroke="#D70C0C" stroke-width="30" stroke-linecap="round" stroke-linejoin="round"/>
<path d="M234.798 379.654C239.709 393.214 240.961 408.081 238.386 422.27C237.605 426.592 236.46 430.886 234.449 434.789C228.175 446.973 214.104 454.308 209.785 467.315C208.332 471.688 208.126 476.366 208.037 480.971C207.926 486.618 207.98 492.345 209.477 497.792C212.14 507.498 219.345 515.617 228.146 520.508C236.947 525.399 247.213 527.239 257.272 526.975C261.108 526.874 264.976 526.47 268.596 525.196C277.534 522.046 283.916 513.911 287.654 505.203C296.69 484.149 292.65 459.98 287.396 437.68C286.182 432.523 284.901 427.349 282.816 422.477C280.321 416.645 276.73 411.36 273.16 406.12C268.234 398.89 263.311 391.663 258.391 384.433C251.729 374.652 243.828 364.034 232.167 362C232.996 367.752 233.829 373.504 234.658 379.256" fill="#D70C0C"/>
</svg>
