<?xml version="1.0" encoding="UTF-8"?>
<!DOCTYPE svg PUBLIC "-//W3C//DTD SVG 1.1//EN" "http://www.w3.org/Graphics/SVG/1.1/DTD/svg11.dtd">
<!-- Creator: CorelDRAW -->
<svg xmlns="http://www.w3.org/2000/svg" xml:space="preserve" width="116.622mm" height="187.666mm" version="1.1" style="shape-rendering:geometricPrecision; text-rendering:geometricPrecision; image-rendering:optimizeQuality; fill-rule:evenodd; clip-rule:evenodd"
viewBox="0 0 11662.22 18766.6"
 xmlns:xlink="http://www.w3.org/1999/xlink"
 xmlns:xodm="http://www.corel.com/coreldraw/odm/2003">
 <defs>
  <style type="text/css">
   <![CDATA[
    .str0 {stroke:black;stroke-width:105.83;stroke-miterlimit:22.9256}
    .fil0 {fill:black}
   ]]>
  </style>
 </defs>
 <g id="Слой_x0020_1">
  <metadata id="CorelCorpID_0Corel-Layer"/>
  <path class="fil0" d="M2189.66 10386.57c-28.11,-251.11 -85.59,-660.24 40.88,-1316.31 -346.26,71.23 -1051.76,-165.72 -1218.61,512.98 -75.34,306.47 85.19,571.71 263.93,688.24 230.84,150.51 579.57,114.5 913.8,115.09z"/>
  <path class="fil0" d="M2199.65 8772.91c38.48,-129.61 54.46,-1198.9 10.27,-1325.43 -316.69,14.91 -619.25,-12.19 -814.3,149.23 -144.03,119.18 -251.56,336.81 -247.89,513.37 15.05,723.94 820.82,640.76 1051.92,662.83z"/>
  <path class="fil0" d="M2223.07 11832.2l42.81 -1152.44c-274.25,33.1 -538.35,-29.34 -731.77,126.75 -111.92,90.31 -217.85,256.37 -222.72,452.32 -13.94,560.48 591.39,575.82 911.68,573.37z"/>
  <path class="fil0" d="M5778.91 1778.1c126.67,-64.59 196.27,123.16 91.51,172.17 -125.31,58.61 -204.3,-114.66 -91.51,-172.17zm-1299.38 -176.61c-149.64,28.67 -280.33,177.55 -206.65,359.72 70.33,173.89 205.7,170.86 422.59,170.58 182,-0.25 1091.3,11.97 1188.92,-5.48 139.53,-24.94 268.5,-183.47 199.26,-359.68 -27.97,-71.2 -82.35,-120.27 -142.16,-146.94 -74.39,-33.17 -186.34,-23.79 -278.01,-23.79 -173.89,0 -1094.7,-11.51 -1183.95,5.59z"/>
  <path class="fil0" d="M2823.22 1053.45l4727.2 0c542.16,0 985.73,443.57 985.73,985.73l0 5553.59c165.48,146.9 465.23,630.67 568.47,777.5 100.96,143.59 200.71,277.87 277.91,394.56l569.8 804.93c133.74,195.57 105.07,339.55 125.46,594.49 89.62,1120.82 247.93,2529.36 312.82,3598.07 27.08,446.05 79.73,766.18 104.03,1198.95l160.45 1334.73c-763.73,551.54 -1766.57,937.25 -2157.53,1060.64l0 -0.01c-646.67,213.66 -1415.52,379.19 -2117.11,410.5l4.77 -1923.56c-371.99,-55.27 -846.63,-402.29 -1045.34,-638.26 -270.94,-321.72 -463.61,-700.64 -498.83,-1232.65 73.79,-33.47 235.22,-44.78 429.62,-47.05l-2447.45 0c-542.16,0 -985.73,-443.57 -985.73,-985.73l0 -10900.7c0,-542.16 443.57,-985.73 985.73,-985.73zm3491.45 12872.16l-866.01 0c310.78,2.83 659.12,17.16 866.01,0zm-357.16 -1737.34c333.26,333.25 432.61,346.02 426.64,577.91 -5.16,200.86 -14.44,447.13 -12.44,690.41l-3409.11 0c-402.64,0 -732.06,-329.42 -732.06,-732.06l0 -10594.43c0,-402.64 329.42,-732.06 732.06,-732.06l4448.44 0c402.64,0 732.06,329.42 732.06,732.06l0 9777.69c-845.43,-788.5 -2071.61,-2415.1 -2684.25,-2678.8 -196.45,-84.56 -328.17,-87.21 -473.17,-76.92 -149.79,10.63 -405.98,88.41 -517.84,208l-0.01 -0.01c-355.36,234.04 -390.07,873.4 -101.88,1245.92 345.82,447 1143.37,1134.06 1591.56,1582.29z"/>
  <path class="fil0 str0" d="M2823.23 1053.45l4727.18 0c542.16,0 985.74,443.58 985.74,985.74l0 10900.68c0,542.16 -443.58,985.74 -985.74,985.74l-4727.18 0c-542.16,0 -985.74,-443.58 -985.74,-985.74l0 -10900.68c0,-542.16 443.58,-985.74 985.74,-985.74zm139.37 344.59l4448.44 0c402.64,0 732.06,329.42 732.06,732.06l0 10594.43c0,402.64 -329.42,732.06 -732.06,732.06l-4448.44 0c-402.64,0 -732.06,-329.42 -732.06,-732.06l0 -10594.43c0,-402.64 329.42,-732.06 732.06,-732.06z"/>
 </g>
</svg>
