<?xml version="1.0" encoding="UTF-8" standalone="no"?>
<!DOCTYPE svg PUBLIC "-//W3C//DTD SVG 1.1//EN" "http://www.w3.org/Graphics/SVG/1.1/DTD/svg11.dtd">
<svg xmlns="http://www.w3.org/2000/svg" version="1.1" viewBox="0.00 0.00 300.00 300.00" width="300.00" height="300.00">
<path fill="#fc170a" d="
  M 51.02 21.35
  L 50.39 21.33
  C 50.10 21.32 49.83 21.17 49.67 20.93
  L 48.28 18.85
  C 55.22 15.68 62.42 13.22 69.89 11.47
  C 72.49 10.86 75.09 10.41 77.70 10.12
  C 82.51 9.59 87.60 8.35 92.31 9.18
  C 94.80 9.62 97.25 9.89 99.65 10.00
  C 103.84 10.18 108.11 11.45 111.50 13.62
  C 112.36 14.17 112.30 14.32 111.31 14.05
  C 104.54 12.22 97.52 11.24 90.27 11.12
  C 85.14 11.04 79.60 12.01 74.25 12.67
  C 67.08 13.57 59.33 16.46 51.02 21.35
  Z"
/>
<path fill="#e72424" d="
  M 48.28 18.85
  L 49.67 20.93
  C 49.83 21.17 50.10 21.32 50.39 21.33
  L 51.02 21.35
  C 46.31 24.22 43.39 26.10 42.26 26.99
  C 39.60 29.08 36.54 32.45 33.09 37.09
  C 30.56 40.50 28.84 45.31 27.92 51.54
  C 26.85 58.80 27.04 65.64 28.49 72.06
  C 32.44 89.52 40.64 106.48 51.10 121.44
  C 54.43 126.21 58.25 130.56 62.55 134.50
  C 62.37 134.57 62.22 134.64 62.11 134.71
  C 61.63 135.04 61.54 134.95 61.84 134.45
  C 61.89 134.38 61.82 134.31 61.63 134.25
  C 61.42 134.18 61.27 134.25 61.18 134.46
  C 61.03 134.84 61.11 135.17 61.40 135.46
  C 61.71 135.77 61.69 136.06 61.34 136.33
  C 61.25 136.39 61.17 136.46 61.09 136.53
  C 60.54 137.00 60.23 136.88 60.18 136.16
  C 60.13 135.51 59.89 134.94 59.48 134.45
  C 59.19 134.10 58.84 134.01 58.43 134.20
  C 58.14 134.33 58.03 134.55 58.10 134.86
  C 58.17 135.22 58.10 135.55 57.87 135.85
  C 57.72 136.04 57.53 136.16 57.29 136.20
  C 56.71 136.30 56.27 136.60 55.98 137.09
  C 55.81 137.38 55.85 137.63 56.10 137.85
  C 56.53 138.22 56.78 138.70 56.85 139.27
  C 56.89 139.62 56.78 139.68 56.51 139.45
  L 55.09 138.25
  C 54.94 138.12 54.77 138.09 54.58 138.16
  C 54.45 138.21 54.40 138.29 54.43 138.41
  C 54.53 138.90 54.44 138.93 54.16 138.52
  C 53.89 138.13 53.50 137.92 52.97 137.90
  C 52.84 137.89 52.83 137.86 52.95 137.79
  C 52.99 137.77 53.01 137.74 53.01 137.69
  C 53.02 137.54 52.96 137.44 52.82 137.38
  C 51.99 137.03 51.12 136.73 50.21 136.48
  C 39.78 124.22 31.73 110.63 26.04 95.70
  C 20.36 80.78 18.21 64.42 21.85 48.78
  C 22.91 44.21 24.71 40.04 27.26 36.26
  C 30.19 31.93 33.52 28.44 37.26 25.79
  C 38.78 24.72 42.45 22.40 48.28 18.85
  Z"
/>
<path fill="#c82223" d="
  M 62.55 134.50
  C 77.38 149.74 93.03 163.25 109.50 175.03
  C 113.85 178.14 119.12 181.47 125.29 185.01
  C 125.46 185.11 125.62 185.16 125.75 185.15
  C 125.94 185.14 126.09 185.07 126.22 184.96
  C 126.33 185.20 126.62 185.29 127.11 185.24
  C 127.44 185.21 127.73 185.29 127.99 185.50
  L 157.46 208.97
  C 156.05 209.36 154.66 209.25 153.29 208.65
  C 147.28 206.02 141.10 203.40 134.76 200.78
  C 130.99 199.23 127.33 197.43 123.79 195.40
  C 107.22 185.89 91.46 175.17 76.50 163.25
  C 74.37 161.55 70.35 157.90 64.44 152.31
  C 59.27 147.42 54.53 142.15 50.21 136.48
  C 51.12 136.73 51.99 137.03 52.82 137.38
  C 52.96 137.44 53.02 137.54 53.01 137.69
  C 53.01 137.74 52.99 137.77 52.95 137.79
  C 52.83 137.86 52.84 137.89 52.97 137.90
  C 53.50 137.92 53.89 138.13 54.16 138.52
  C 54.44 138.93 54.53 138.90 54.43 138.41
  C 54.40 138.29 54.45 138.21 54.58 138.16
  C 54.77 138.09 54.94 138.12 55.09 138.25
  L 56.51 139.45
  C 56.78 139.68 56.89 139.62 56.85 139.27
  C 56.78 138.70 56.53 138.22 56.10 137.85
  C 55.85 137.63 55.81 137.38 55.98 137.09
  C 56.27 136.60 56.71 136.30 57.29 136.20
  C 57.53 136.16 57.72 136.04 57.87 135.85
  C 58.10 135.55 58.17 135.22 58.10 134.86
  C 58.03 134.55 58.14 134.33 58.43 134.20
  C 58.84 134.01 59.19 134.10 59.48 134.45
  C 59.89 134.94 60.13 135.51 60.18 136.16
  C 60.23 136.88 60.54 137.00 61.09 136.53
  C 61.17 136.46 61.25 136.39 61.34 136.33
  C 61.69 136.06 61.71 135.77 61.40 135.46
  C 61.11 135.17 61.03 134.84 61.18 134.46
  C 61.27 134.25 61.42 134.18 61.63 134.25
  C 61.82 134.31 61.89 134.38 61.84 134.45
  C 61.54 134.95 61.63 135.04 62.11 134.71
  C 62.22 134.64 62.37 134.57 62.55 134.50
  Z"
/>
<path fill="#fbfaf6" d="
  M 209.21 181.22
  C 205.36 181.83 201.84 182.00 198.67 181.71
  C 196.46 181.51 196.37 181.87 198.39 182.78
  L 223.54 194.17
  L 236.66 200.03
  L 240.99 201.96
  L 244.49 204.25
  C 246.04 205.54 249.50 208.24 254.87 212.37
  C 259.66 216.05 265.24 221.00 271.62 227.21
  C 271.71 227.30 271.81 227.32 271.93 227.29
  C 271.97 227.28 272.00 227.25 272.01 227.21
  C 272.08 227.06 272.06 226.91 271.97 226.76
  C 262.60 212.09 253.24 197.42 243.89 182.75
  C 243.70 182.41 243.38 182.13 242.95 181.90
  L 230.99 181.65
  L 217.08 181.17
  L 242.77 181.11
  C 243.90 181.11 244.75 181.60 245.31 182.59
  C 249.81 190.58 254.93 198.12 259.74 205.74
  C 268.97 220.37 278.31 235.25 287.77 250.39
  C 288.04 250.82 287.92 251.07 287.42 251.13
  L 282.47 251.73
  C 282.50 250.70 281.66 250.14 279.96 250.04
  C 280.27 249.14 280.03 248.59 279.24 248.40
  C 272.95 246.85 268.35 245.62 265.44 244.70
  C 262.17 243.66 259.94 243.07 258.75 242.94
  C 256.96 242.73 253.32 242.54 247.84 242.36
  C 247.42 242.35 247.01 242.47 246.67 242.72
  C 245.99 243.23 245.19 243.45 244.27 243.40
  C 243.88 243.38 243.50 243.42 243.13 243.53
  L 238.86 244.73
  C 238.56 244.81 238.34 245.00 238.21 245.29
  C 237.50 246.91 235.96 246.70 234.51 247.01
  C 234.02 247.11 233.54 247.28 233.07 247.53
  C 231.35 248.43 229.58 248.28 227.70 248.62
  C 223.80 249.31 219.96 249.22 216.19 248.33
  C 215.99 248.28 215.98 248.00 216.17 247.94
  C 216.41 247.87 216.68 247.84 216.97 247.86
  C 217.08 247.87 217.13 247.87 217.13 247.87
  C 216.98 247.89 216.85 247.83 216.74 247.70
  C 216.65 247.60 216.53 247.55 216.40 247.55
  C 212.35 247.64 210.59 245.57 211.11 241.34
  C 211.15 241.01 211.11 240.70 211.00 240.39
  C 210.03 237.64 209.47 234.76 209.30 231.73
  C 209.28 231.41 209.13 231.17 208.86 231.00
  C 208.09 230.53 207.80 229.85 207.99 228.96
  C 208.06 228.65 208.02 228.34 207.88 228.05
  C 207.51 227.27 207.67 226.61 208.38 226.08
  L 217.25 230.47
  C 217.40 230.54 217.51 230.50 217.58 230.35
  L 217.81 229.86
  C 217.88 229.71 217.85 229.60 217.70 229.53
  L 211.02 226.03
  C 212.29 225.74 213.77 226.06 215.46 227.00
  C 215.64 227.10 215.82 227.10 216.00 227.00
  C 216.17 226.90 216.26 226.75 216.29 226.55
  C 216.32 226.35 216.25 226.18 216.10 226.04
  L 211.71 222.00
  C 211.62 221.92 211.58 221.82 211.59 221.69
  C 211.60 221.58 211.60 221.48 211.60 221.39
  C 211.61 221.24 211.68 221.16 211.83 221.13
  C 211.94 221.10 212.04 221.04 212.13 220.93
  C 214.97 223.21 217.74 225.58 220.45 228.05
  C 223.54 230.86 225.72 232.42 226.99 232.73
  C 236.88 235.11 246.70 237.72 256.44 240.57
  L 267.15 243.63
  L 284.87 249.07
  C 285.32 249.20 285.43 249.07 285.18 248.67
  L 274.73 231.85
  C 270.04 227.09 266.25 223.43 263.36 220.88
  C 256.30 214.63 248.32 208.49 239.43 202.46
  L 221.00 194.44
  L 213.25 190.87
  L 202.60 186.25
  C 198.51 183.84 194.64 182.34 190.99 181.73
  C 188.28 181.94 186.01 181.78 184.19 181.23
  L 209.21 181.22
  Z"
/>
<path fill="#b8d5ff" d="
  M 184.19 181.23
  C 186.01 181.78 188.28 181.94 190.99 181.73
  C 184.20 181.93 177.62 181.90 171.26 181.64
  C 171.02 181.63 170.86 181.67 170.78 181.78
  C 170.67 181.93 170.73 182.15 170.97 182.42
  C 170.63 182.43 170.38 182.54 170.22 182.74
  C 169.99 183.03 170.04 183.27 170.37 183.44
  L 187.43 192.41
  C 187.06 192.85 187.04 193.34 187.38 193.89
  C 187.54 194.14 187.62 194.44 187.62 194.74
  L 187.62 201.28
  C 187.62 201.77 187.86 202.22 188.27 202.48
  C 190.67 204.03 192.99 205.68 195.24 207.45
  C 195.31 207.51 195.36 207.59 195.38 207.68
  C 195.40 207.77 195.41 207.86 195.40 207.95
  C 195.39 208.06 195.33 208.12 195.22 208.11
  C 194.97 208.10 194.73 208.14 194.50 208.23
  L 153.10 181.27
  L 184.19 181.23
  Z"
/>
<path fill="#ca92ff" d="
  M 209.21 181.22
  L 217.08 181.17
  L 230.99 181.65
  L 222.70 182.06
  C 221.93 182.10 221.91 182.23 222.65 182.45
  C 223.37 182.66 224.12 182.79 224.91 182.86
  C 225.32 182.89 225.51 183.11 225.49 183.52
  C 225.42 184.95 225.63 186.20 226.14 187.28
  C 226.28 187.59 226.30 187.90 226.21 188.22
  C 225.90 189.20 225.75 190.32 225.74 191.57
  C 225.73 192.65 225.24 193.16 224.25 193.11
  C 223.95 193.10 223.71 193.21 223.54 193.44
  C 223.38 193.66 223.38 193.90 223.54 194.17
  L 198.39 182.78
  C 196.37 181.87 196.46 181.51 198.67 181.71
  C 201.84 182.00 205.36 181.83 209.21 181.22
  Z"
/>
<path fill="#591dff" d="
  M 134.40 181.44
  C 142.11 186.92 150.18 192.06 158.61 196.87
  L 155.23 198.95
  C 154.89 199.16 154.75 199.46 154.82 199.85
  L 155.10 201.70
  C 155.15 202.02 155.29 202.30 155.52 202.53
  C 155.89 202.92 156.14 203.39 156.25 203.92
  C 156.31 204.22 156.46 204.47 156.70 204.66
  L 172.58 217.60
  L 187.42 229.64
  L 192.21 233.27
  C 192.50 233.50 192.50 233.72 192.21 233.95
  L 191.92 234.18
  C 172.11 218.72 152.31 203.24 132.50 187.75
  C 131.13 186.68 129.31 185.05 127.06 182.87
  C 126.77 182.88 126.58 182.63 126.49 182.14
  C 126.43 181.83 126.68 181.54 127.00 181.53
  L 134.40 181.44
  Z"
/>
<path fill="#fbfaf6" d="
  M 134.40 181.44
  L 137.54 181.31
  C 138.12 182.50 138.95 183.07 140.02 183.03
  C 141.40 182.98 142.32 183.12 142.78 183.45
  C 156.23 193.22 169.91 202.65 183.82 211.75
  C 183.99 212.29 183.63 212.48 182.74 212.33
  L 172.40 205.68
  L 158.61 196.87
  C 150.18 192.06 142.11 186.92 134.40 181.44
  Z"
/>
<path fill="#1879ff" d="
  M 137.54 181.31
  L 153.10 181.27
  L 194.50 208.23
  L 196.87 209.72
  C 196.64 210.38 196.35 210.68 195.98 210.63
  L 192.49 208.96
  C 192.15 208.80 191.85 208.85 191.58 209.12
  C 191.07 209.63 190.50 209.74 189.85 209.47
  C 189.64 209.38 189.44 209.41 189.26 209.55
  C 188.35 210.26 187.18 210.45 185.75 210.11
  C 185.41 210.02 185.09 210.06 184.80 210.21
  C 184.46 210.39 184.45 210.58 184.78 210.79
  L 195.37 217.57
  L 211.02 226.03
  L 217.70 229.53
  C 217.85 229.60 217.88 229.71 217.81 229.86
  L 217.58 230.35
  C 217.51 230.50 217.40 230.54 217.25 230.47
  L 208.38 226.08
  L 201.28 222.40
  L 183.82 211.75
  C 169.91 202.65 156.23 193.22 142.78 183.45
  C 142.32 183.12 141.40 182.98 140.02 183.03
  C 138.95 183.07 138.12 182.50 137.54 181.31
  Z"
/>
<path fill="#1446ff" d="
  M 190.99 181.73
  C 194.64 182.34 198.51 183.84 202.60 186.25
  C 202.39 187.28 201.08 187.19 198.69 186.00
  C 198.20 185.75 197.61 186.11 197.61 186.66
  C 197.60 188.83 197.08 190.93 196.05 192.96
  C 195.90 193.25 195.98 193.48 196.27 193.63
  L 206.19 198.74
  L 209.46 200.46
  C 209.76 200.61 209.85 200.85 209.72 201.16
  L 209.54 201.63
  L 170.97 182.42
  C 170.73 182.15 170.67 181.93 170.78 181.78
  C 170.86 181.67 171.02 181.63 171.26 181.64
  C 177.62 181.90 184.20 181.93 190.99 181.73
  Z"
/>
<path fill="#9d4dff" d="
  M 230.99 181.65
  L 242.95 181.90
  L 239.49 181.96
  C 239.09 181.97 238.84 182.17 238.75 182.56
  C 238.72 182.71 238.63 182.82 238.49 182.89
  C 238.09 183.08 238.05 183.33 238.37 183.64
  C 239.27 184.50 239.56 185.47 239.23 186.54
  C 238.96 187.43 239.07 188.27 239.56 189.05
  C 239.74 189.33 239.83 189.64 239.83 189.97
  C 239.82 191.42 239.46 192.67 238.74 193.70
  C 238.55 193.97 238.44 194.28 238.42 194.62
  L 238.22 198.20
  C 238.20 198.51 238.04 198.70 237.74 198.77
  C 236.85 198.97 236.49 199.39 236.66 200.03
  L 223.54 194.17
  C 223.38 193.90 223.38 193.66 223.54 193.44
  C 223.71 193.21 223.95 193.10 224.25 193.11
  C 225.24 193.16 225.73 192.65 225.74 191.57
  C 225.75 190.32 225.90 189.20 226.21 188.22
  C 226.30 187.90 226.28 187.59 226.14 187.28
  C 225.63 186.20 225.42 184.95 225.49 183.52
  C 225.51 183.11 225.32 182.89 224.91 182.86
  C 224.12 182.79 223.37 182.66 222.65 182.45
  C 221.91 182.23 221.93 182.10 222.70 182.06
  L 230.99 181.65
  Z"
/>
<path fill="#7733ff" d="
  M 242.95 181.90
  C 243.38 182.13 243.70 182.41 243.89 182.75
  L 243.52 182.66
  C 243.14 182.56 242.99 182.70 243.07 183.09
  C 243.15 183.47 243.30 183.82 243.53 184.15
  C 243.67 185.17 243.64 186.12 243.44 187.01
  C 243.26 187.80 243.36 188.28 243.93 188.85
  C 244.17 189.09 244.30 189.42 244.29 189.76
  C 244.24 192.61 244.03 195.44 243.68 198.26
  C 243.55 199.27 243.59 200.26 243.79 201.24
  C 243.86 201.56 243.52 201.80 243.23 201.65
  L 241.55 200.74
  C 241.38 200.65 241.18 200.68 241.05 200.81
  C 240.82 201.03 240.80 201.41 240.99 201.96
  L 236.66 200.03
  C 236.49 199.39 236.85 198.97 237.74 198.77
  C 238.04 198.70 238.20 198.51 238.22 198.20
  L 238.42 194.62
  C 238.44 194.28 238.55 193.97 238.74 193.70
  C 239.46 192.67 239.82 191.42 239.83 189.97
  C 239.83 189.64 239.74 189.33 239.56 189.05
  C 239.07 188.27 238.96 187.43 239.23 186.54
  C 239.56 185.47 239.27 184.50 238.37 183.64
  C 238.05 183.33 238.09 183.08 238.49 182.89
  C 238.63 182.82 238.72 182.71 238.75 182.56
  C 238.84 182.17 239.09 181.97 239.49 181.96
  L 242.95 181.90
  Z"
/>
<path fill="#e0effd" d="
  M 170.97 182.42
  L 209.54 201.63
  L 218.91 205.75
  C 225.04 208.40 231.02 211.88 236.83 216.19
  C 230.84 213.31 225.11 210.44 219.64 207.59
  C 217.29 206.36 214.80 205.22 212.19 204.15
  C 209.76 203.16 207.24 202.10 204.61 200.96
  L 194.81 196.22
  L 187.43 192.41
  L 170.37 183.44
  C 170.04 183.27 169.99 183.03 170.22 182.74
  C 170.38 182.54 170.63 182.43 170.97 182.42
  Z"
/>
<path fill="#290eff" d="
  M 243.89 182.75
  C 253.24 197.42 262.60 212.09 271.97 226.76
  C 272.06 226.91 272.08 227.06 272.01 227.21
  C 272.00 227.25 271.97 227.28 271.93 227.29
  C 271.81 227.32 271.71 227.30 271.62 227.21
  C 265.24 221.00 259.66 216.05 254.87 212.37
  C 249.50 208.24 246.04 205.54 244.49 204.25
  C 244.47 203.74 244.77 203.51 245.38 203.57
  C 245.73 203.60 246.04 203.73 246.31 203.95
  C 247.03 204.55 247.73 205.16 248.41 205.78
  C 248.77 206.10 249.34 205.86 249.36 205.38
  C 249.44 203.86 250.05 202.45 249.70 200.94
  C 249.48 199.99 249.32 198.99 249.23 197.96
  C 249.20 197.63 249.29 197.34 249.48 197.08
  C 250.03 196.34 250.11 195.57 249.72 194.76
  C 248.37 191.95 246.31 188.41 243.53 184.15
  C 243.30 183.82 243.15 183.47 243.07 183.09
  C 242.99 182.70 243.14 182.56 243.52 182.66
  L 243.89 182.75
  Z"
/>
<path fill="#fbfaf6" d="
  M 127.06 182.87
  C 129.31 185.05 131.13 186.68 132.50 187.75
  C 152.31 203.24 172.11 218.72 191.92 234.18
  L 194.76 236.78
  C 194.73 237.05 194.53 237.21 194.16 237.27
  L 157.46 208.97
  L 127.99 185.50
  C 127.73 185.29 127.44 185.21 127.11 185.24
  C 126.62 185.29 126.33 185.20 126.22 184.96
  C 126.77 184.39 127.05 183.70 127.06 182.87
  Z"
/>
<path fill="#5122ff" d="
  M 243.53 184.15
  C 246.31 188.41 248.37 191.95 249.72 194.76
  C 250.11 195.57 250.03 196.34 249.48 197.08
  C 249.29 197.34 249.20 197.63 249.23 197.96
  C 249.32 198.99 249.48 199.99 249.70 200.94
  C 250.05 202.45 249.44 203.86 249.36 205.38
  C 249.34 205.86 248.77 206.10 248.41 205.78
  C 247.73 205.16 247.03 204.55 246.31 203.95
  C 246.04 203.73 245.73 203.60 245.38 203.57
  C 244.77 203.51 244.47 203.74 244.49 204.25
  L 240.99 201.96
  C 240.80 201.41 240.82 201.03 241.05 200.81
  C 241.18 200.68 241.38 200.65 241.55 200.74
  L 243.23 201.65
  C 243.52 201.80 243.86 201.56 243.79 201.24
  C 243.59 200.26 243.55 199.27 243.68 198.26
  C 244.03 195.44 244.24 192.61 244.29 189.76
  C 244.30 189.42 244.17 189.09 243.93 188.85
  C 243.36 188.28 243.26 187.80 243.44 187.01
  C 243.64 186.12 243.67 185.17 243.53 184.15
  Z"
/>
<path fill="#2b61ff" d="
  M 202.60 186.25
  L 213.25 190.87
  C 212.66 191.85 211.10 191.59 208.58 190.09
  C 207.98 189.74 207.24 190.21 207.30 190.90
  C 207.55 193.70 207.18 196.31 206.19 198.74
  L 196.27 193.63
  C 195.98 193.48 195.90 193.25 196.05 192.96
  C 197.08 190.93 197.60 188.83 197.61 186.66
  C 197.61 186.11 198.20 185.75 198.69 186.00
  C 201.08 187.19 202.39 187.28 202.60 186.25
  Z"
/>
<path fill="#5282ff" d="
  M 213.25 190.87
  L 221.00 194.44
  C 219.33 194.96 217.45 194.55 215.36 193.20
  C 214.98 192.96 214.49 193.24 214.51 193.69
  L 214.76 200.98
  C 214.77 201.25 214.69 201.48 214.52 201.68
  C 214.39 201.83 214.34 202.01 214.38 202.21
  C 214.46 202.54 214.67 202.73 215.00 202.78
  C 217.24 203.09 218.54 204.08 218.91 205.75
  L 209.54 201.63
  L 209.72 201.16
  C 209.85 200.85 209.76 200.61 209.46 200.46
  L 206.19 198.74
  C 207.18 196.31 207.55 193.70 207.30 190.90
  C 207.24 190.21 207.98 189.74 208.58 190.09
  C 211.10 191.59 212.66 191.85 213.25 190.87
  Z"
/>
<path fill="#81bcff" d="
  M 187.43 192.41
  L 194.81 196.22
  C 194.90 197.19 195.77 197.90 197.42 198.34
  C 197.68 198.41 197.69 198.49 197.44 198.60
  C 197.29 198.66 197.31 198.77 197.50 198.93
  C 197.61 199.02 197.72 199.10 197.84 199.16
  C 197.95 199.22 198.06 199.28 198.15 199.35
  C 198.40 199.52 198.42 199.70 198.20 199.91
  C 197.51 200.53 197.39 201.31 197.82 202.26
  C 197.99 202.63 198.08 203.01 198.10 203.42
  L 198.28 208.60
  C 198.29 208.89 198.42 209.11 198.66 209.28
  C 199.11 209.59 199.60 209.88 200.12 210.14
  C 200.39 210.27 200.51 210.48 200.50 210.76
  C 200.49 211.04 200.27 211.29 199.84 211.51
  L 196.87 209.72
  L 194.50 208.23
  C 194.73 208.14 194.97 208.10 195.22 208.11
  C 195.33 208.12 195.39 208.06 195.40 207.95
  C 195.41 207.86 195.40 207.77 195.38 207.68
  C 195.36 207.59 195.31 207.51 195.24 207.45
  C 192.99 205.68 190.67 204.03 188.27 202.48
  C 187.86 202.22 187.62 201.77 187.62 201.28
  L 187.62 194.74
  C 187.62 194.44 187.54 194.14 187.38 193.89
  C 187.04 193.34 187.06 192.85 187.43 192.41
  Z"
/>
<path fill="#849eff" d="
  M 221.00 194.44
  L 239.43 202.46
  C 239.02 203.26 239.65 204.13 241.32 205.07
  C 242.21 205.57 242.82 206.08 243.15 206.59
  C 243.55 207.21 243.74 207.99 243.72 208.94
  C 243.69 210.02 243.56 211.02 243.31 211.95
  C 243.12 212.66 242.96 213.41 242.85 214.19
  C 242.75 214.88 242.68 215.58 242.65 216.27
  C 242.63 216.60 242.51 216.89 242.28 217.13
  C 241.67 217.78 241.69 218.28 242.36 218.61
  C 243.99 219.42 244.33 220.00 243.36 220.35
  C 240.32 218.92 238.14 217.54 236.83 216.19
  C 231.02 211.88 225.04 208.40 218.91 205.75
  C 218.54 204.08 217.24 203.09 215.00 202.78
  C 214.67 202.73 214.46 202.54 214.38 202.21
  C 214.34 202.01 214.39 201.83 214.52 201.68
  C 214.69 201.48 214.77 201.25 214.76 200.98
  L 214.51 193.69
  C 214.49 193.24 214.98 192.96 215.36 193.20
  C 217.45 194.55 219.33 194.96 221.00 194.44
  Z"
/>
<path fill="#48a1ff" d="
  M 194.81 196.22
  L 204.61 200.96
  C 205.95 202.55 207.42 203.56 209.01 203.98
  C 210.03 204.25 210.64 205.30 210.36 206.32
  C 210.11 207.25 210.04 208.17 210.14 209.07
  C 210.17 209.37 210.07 209.67 209.85 209.89
  C 208.72 211.01 209.13 213.43 209.09 214.93
  C 209.08 215.34 209.34 215.70 209.73 215.81
  C 210.13 215.92 210.32 216.18 210.31 216.57
  C 210.30 217.12 210.05 217.26 209.57 216.99
  L 199.84 211.51
  C 200.27 211.29 200.49 211.04 200.50 210.76
  C 200.51 210.48 200.39 210.27 200.12 210.14
  C 199.60 209.88 199.11 209.59 198.66 209.28
  C 198.42 209.11 198.29 208.89 198.28 208.60
  L 198.10 203.42
  C 198.08 203.01 197.99 202.63 197.82 202.26
  C 197.39 201.31 197.51 200.53 198.20 199.91
  C 198.42 199.70 198.40 199.52 198.15 199.35
  C 198.06 199.28 197.95 199.22 197.84 199.16
  C 197.72 199.10 197.61 199.02 197.50 198.93
  C 197.31 198.77 197.29 198.66 197.44 198.60
  C 197.69 198.49 197.68 198.41 197.42 198.34
  C 195.77 197.90 194.90 197.19 194.81 196.22
  Z"
/>
<path fill="#7733ff" d="
  M 158.61 196.87
  L 172.40 205.68
  C 172.42 206.18 172.30 206.53 172.04 206.72
  C 171.77 206.92 171.52 206.91 171.27 206.68
  C 171.01 206.43 170.72 206.34 170.39 206.40
  C 170.11 206.44 169.92 206.72 169.99 207.00
  L 172.58 217.60
  L 156.70 204.66
  C 156.46 204.47 156.31 204.22 156.25 203.92
  C 156.14 203.39 155.89 202.92 155.52 202.53
  C 155.29 202.30 155.15 202.02 155.10 201.70
  L 154.82 199.85
  C 154.75 199.46 154.89 199.16 155.23 198.95
  L 158.61 196.87
  Z"
/>
<path fill="#217dff" d="
  M 204.61 200.96
  C 207.24 202.10 209.76 203.16 212.19 204.15
  C 214.80 205.22 217.29 206.36 219.64 207.59
  C 225.11 210.44 230.84 213.31 236.83 216.19
  C 238.14 217.54 240.32 218.92 243.36 220.35
  L 250.54 225.35
  C 250.23 225.33 249.98 225.38 249.77 225.50
  C 249.56 225.63 249.44 225.80 249.42 226.02
  C 249.38 226.41 249.53 226.73 249.88 226.98
  C 250.07 227.11 250.17 227.29 250.18 227.52
  C 250.21 228.08 250.38 228.60 250.69 229.08
  C 251.76 230.72 251.82 233.24 251.41 235.06
  C 251.12 236.32 251.83 237.59 253.04 238.02
  L 256.77 239.33
  C 257.23 239.49 257.28 240.12 256.85 240.35
  L 256.44 240.57
  C 246.70 237.72 236.88 235.11 226.99 232.73
  C 225.72 232.42 223.54 230.86 220.45 228.05
  C 217.74 225.58 214.97 223.21 212.13 220.93
  L 204.63 215.65
  L 195.98 210.63
  C 196.35 210.68 196.64 210.38 196.87 209.72
  L 199.84 211.51
  L 209.57 216.99
  C 210.05 217.26 210.30 217.12 210.31 216.57
  C 210.32 216.18 210.13 215.92 209.73 215.81
  C 209.34 215.70 209.08 215.34 209.09 214.93
  C 209.13 213.43 208.72 211.01 209.85 209.89
  C 210.07 209.67 210.17 209.37 210.14 209.07
  C 210.04 208.17 210.11 207.25 210.36 206.32
  C 210.64 205.30 210.03 204.25 209.01 203.98
  C 207.42 203.56 205.95 202.55 204.61 200.96
  Z"
/>
<path fill="#5282ff" d="
  M 239.43 202.46
  C 248.32 208.49 256.30 214.63 263.36 220.88
  C 266.25 223.43 270.04 227.09 274.73 231.85
  C 272.98 231.21 271.35 230.08 269.82 228.47
  C 269.53 228.16 269.38 228.22 269.35 228.63
  L 268.84 235.47
  C 268.81 235.88 268.92 236.30 269.15 236.64
  C 269.27 236.81 269.37 237.00 269.45 237.19
  C 269.78 238.04 269.57 238.21 268.81 237.72
  L 256.67 229.93
  L 250.54 225.35
  L 243.36 220.35
  C 244.33 220.00 243.99 219.42 242.36 218.61
  C 241.69 218.28 241.67 217.78 242.28 217.13
  C 242.51 216.89 242.63 216.60 242.65 216.27
  C 242.68 215.58 242.75 214.88 242.85 214.19
  C 242.96 213.41 243.12 212.66 243.31 211.95
  C 243.56 211.02 243.69 210.02 243.72 208.94
  C 243.74 207.99 243.55 207.21 243.15 206.59
  C 242.82 206.08 242.21 205.57 241.32 205.07
  C 239.65 204.13 239.02 203.26 239.43 202.46
  Z"
/>
<path fill="#a75fff" d="
  M 172.40 205.68
  L 182.74 212.33
  L 190.24 217.09
  L 189.19 218.43
  C 188.99 218.68 188.96 218.95 189.09 219.24
  C 189.48 220.10 189.52 220.98 189.22 221.87
  C 189.07 222.30 189.05 222.73 189.14 223.18
  C 189.45 224.55 189.48 225.92 189.21 227.29
  C 189.13 227.69 189.17 228.08 189.32 228.46
  L 189.63 229.25
  C 189.88 229.87 189.77 229.95 189.30 229.50
  C 188.77 228.97 188.14 229.02 187.42 229.64
  L 172.58 217.60
  L 169.99 207.00
  C 169.92 206.72 170.11 206.44 170.39 206.40
  C 170.72 206.34 171.01 206.43 171.27 206.68
  C 171.52 206.91 171.77 206.92 172.04 206.72
  C 172.30 206.53 172.42 206.18 172.40 205.68
  Z"
/>
<path fill="#48a1ff" d="
  M 195.98 210.63
  L 204.63 215.65
  C 204.26 215.87 204.09 216.12 204.13 216.41
  C 204.16 216.64 204.27 216.82 204.48 216.95
  C 205.01 217.29 205.48 217.70 205.89 218.19
  C 206.23 218.59 206.14 218.82 205.62 218.88
  C 204.59 218.99 203.60 219.29 202.65 219.76
  C 202.11 220.03 201.47 219.99 200.97 219.64
  C 199.15 218.39 197.28 217.70 195.37 217.57
  L 184.78 210.79
  C 184.45 210.58 184.46 210.39 184.80 210.21
  C 185.09 210.06 185.41 210.02 185.75 210.11
  C 187.18 210.45 188.35 210.26 189.26 209.55
  C 189.44 209.41 189.64 209.38 189.85 209.47
  C 190.50 209.74 191.07 209.63 191.58 209.12
  C 191.85 208.85 192.15 208.80 192.49 208.96
  L 195.98 210.63
  Z"
/>
<path fill="#e7bdff" d="
  M 183.82 211.75
  L 201.28 222.40
  C 200.63 222.84 200.74 223.39 201.59 224.05
  C 201.82 224.23 201.98 224.46 202.09 224.73
  C 202.17 224.94 202.11 225.09 201.92 225.19
  C 201.57 225.37 201.48 225.64 201.63 226.00
  L 202.49 228.06
  C 202.57 228.26 202.56 228.45 202.45 228.64
  C 201.74 229.85 201.59 231.20 202.02 232.68
  C 202.56 234.56 202.76 236.46 202.62 238.38
  C 202.57 239.16 202.79 239.71 202.92 240.45
  C 202.99 240.83 203.12 241.19 203.31 241.52
  L 204.82 244.14
  C 204.97 244.41 205.18 244.64 205.44 244.81
  C 207.45 246.14 208.78 247.83 209.44 249.88
  L 194.16 237.27
  C 194.53 237.21 194.73 237.05 194.76 236.78
  L 198.18 239.41
  C 198.31 239.52 198.43 239.51 198.54 239.38
  L 198.75 239.12
  C 198.86 238.99 198.85 238.87 198.73 238.76
  L 196.24 236.56
  C 196.02 236.36 195.90 236.07 195.93 235.78
  C 196.03 234.75 196.21 233.80 196.05 232.76
  C 195.43 228.90 195.21 225.02 195.40 221.11
  C 195.41 220.75 195.27 220.47 194.97 220.26
  L 190.24 217.09
  L 182.74 212.33
  C 183.63 212.48 183.99 212.29 183.82 211.75
  Z"
/>
<path fill="#98ceff" d="
  M 204.63 215.65
  L 212.13 220.93
  C 212.04 221.04 211.94 221.10 211.83 221.13
  C 211.68 221.16 211.61 221.24 211.60 221.39
  C 211.60 221.48 211.60 221.58 211.59 221.69
  C 211.58 221.82 211.62 221.92 211.71 222.00
  L 216.10 226.04
  C 216.25 226.18 216.32 226.35 216.29 226.55
  C 216.26 226.75 216.17 226.90 216.00 227.00
  C 215.82 227.10 215.64 227.10 215.46 227.00
  C 213.77 226.06 212.29 225.74 211.02 226.03
  L 195.37 217.57
  C 197.28 217.70 199.15 218.39 200.97 219.64
  C 201.47 219.99 202.11 220.03 202.65 219.76
  C 203.60 219.29 204.59 218.99 205.62 218.88
  C 206.14 218.82 206.23 218.59 205.89 218.19
  C 205.48 217.70 205.01 217.29 204.48 216.95
  C 204.27 216.82 204.16 216.64 204.13 216.41
  C 204.09 216.12 204.26 215.87 204.63 215.65
  Z"
/>
<path fill="#ca92ff" d="
  M 190.24 217.09
  L 194.97 220.26
  C 195.27 220.47 195.41 220.75 195.40 221.11
  C 195.21 225.02 195.43 228.90 196.05 232.76
  C 196.21 233.80 196.03 234.75 195.93 235.78
  C 195.90 236.07 196.02 236.36 196.24 236.56
  L 198.73 238.76
  C 198.85 238.87 198.86 238.99 198.75 239.12
  L 198.54 239.38
  C 198.43 239.51 198.31 239.52 198.18 239.41
  L 194.76 236.78
  L 191.92 234.18
  L 192.21 233.95
  C 192.50 233.72 192.50 233.50 192.21 233.27
  L 187.42 229.64
  C 188.14 229.02 188.77 228.97 189.30 229.50
  C 189.77 229.95 189.88 229.87 189.63 229.25
  L 189.32 228.46
  C 189.17 228.08 189.13 227.69 189.21 227.29
  C 189.48 225.92 189.45 224.55 189.14 223.18
  C 189.05 222.73 189.07 222.30 189.22 221.87
  C 189.52 220.98 189.48 220.10 189.09 219.24
  C 188.96 218.95 188.99 218.68 189.19 218.43
  L 190.24 217.09
  Z"
/>
<path fill="#fde2f8" d="
  M 201.28 222.40
  L 208.38 226.08
  C 207.67 226.61 207.51 227.27 207.88 228.05
  C 208.02 228.34 208.06 228.65 207.99 228.96
  C 207.80 229.85 208.09 230.53 208.86 231.00
  C 209.13 231.17 209.28 231.41 209.30 231.73
  C 209.47 234.76 210.03 237.64 211.00 240.39
  C 211.11 240.70 211.15 241.01 211.11 241.34
  C 210.59 245.57 212.35 247.64 216.40 247.55
  C 216.53 247.55 216.65 247.60 216.74 247.70
  C 216.85 247.83 216.98 247.89 217.13 247.87
  C 217.13 247.87 217.08 247.87 216.97 247.86
  C 216.68 247.84 216.41 247.87 216.17 247.94
  C 215.98 248.00 215.99 248.28 216.19 248.33
  C 219.96 249.22 223.80 249.31 227.70 248.62
  C 229.58 248.28 231.35 248.43 233.07 247.53
  C 233.54 247.28 234.02 247.11 234.51 247.01
  C 235.96 246.70 237.50 246.91 238.21 245.29
  C 238.34 245.00 238.56 244.81 238.86 244.73
  L 243.13 243.53
  C 243.50 243.42 243.88 243.38 244.27 243.40
  C 245.19 243.45 245.99 243.23 246.67 242.72
  C 247.01 242.47 247.42 242.35 247.84 242.36
  C 253.32 242.54 256.96 242.73 258.75 242.94
  C 259.94 243.07 262.17 243.66 265.44 244.70
  C 268.35 245.62 272.95 246.85 279.24 248.40
  C 280.03 248.59 280.27 249.14 279.96 250.04
  C 277.94 250.21 274.20 250.38 268.75 250.53
  C 262.02 250.73 250.74 251.57 234.91 253.05
  L 221.30 254.40
  C 217.52 254.88 214.30 253.99 211.63 251.73
  C 210.54 251.12 209.81 250.50 209.44 249.88
  C 208.78 247.83 207.45 246.14 205.44 244.81
  C 205.18 244.64 204.97 244.41 204.82 244.14
  L 203.31 241.52
  C 203.12 241.19 202.99 240.83 202.92 240.45
  C 202.79 239.71 202.57 239.16 202.62 238.38
  C 202.76 236.46 202.56 234.56 202.02 232.68
  C 201.59 231.20 201.74 229.85 202.45 228.64
  C 202.56 228.45 202.57 228.26 202.49 228.06
  L 201.63 226.00
  C 201.48 225.64 201.57 225.37 201.92 225.19
  C 202.11 225.09 202.17 224.94 202.09 224.73
  C 201.98 224.46 201.82 224.23 201.59 224.05
  C 200.74 223.39 200.63 222.84 201.28 222.40
  Z"
/>
<path fill="#3c9bff" d="
  M 250.54 225.35
  L 256.67 229.93
  C 258.12 232.69 258.79 235.15 258.68 237.31
  C 258.63 238.34 259.11 239.32 259.96 239.91
  C 260.69 240.41 261.54 240.66 262.51 240.67
  C 263.13 240.68 263.73 240.90 264.20 241.30
  C 265.05 242.00 266.02 242.38 267.11 242.45
  C 267.39 242.47 267.62 242.70 267.63 242.99
  L 267.63 243.25
  C 267.63 243.36 267.57 243.42 267.45 243.41
  C 267.25 243.40 267.15 243.48 267.15 243.63
  L 256.44 240.57
  L 256.85 240.35
  C 257.28 240.12 257.23 239.49 256.77 239.33
  L 253.04 238.02
  C 251.83 237.59 251.12 236.32 251.41 235.06
  C 251.82 233.24 251.76 230.72 250.69 229.08
  C 250.38 228.60 250.21 228.08 250.18 227.52
  C 250.17 227.29 250.07 227.11 249.88 226.98
  C 249.53 226.73 249.38 226.41 249.42 226.02
  C 249.44 225.80 249.56 225.63 249.77 225.50
  C 249.98 225.38 250.23 225.33 250.54 225.35
  Z"
/>
<path fill="#64b3ff" d="
  M 274.73 231.85
  L 285.18 248.67
  C 285.43 249.07 285.32 249.20 284.87 249.07
  L 267.15 243.63
  C 267.15 243.48 267.25 243.40 267.45 243.41
  C 267.57 243.42 267.63 243.36 267.63 243.25
  L 267.63 242.99
  C 267.62 242.70 267.39 242.47 267.11 242.45
  C 266.02 242.38 265.05 242.00 264.20 241.30
  C 263.73 240.90 263.13 240.68 262.51 240.67
  C 261.54 240.66 260.69 240.41 259.96 239.91
  C 259.11 239.32 258.63 238.34 258.68 237.31
  C 258.79 235.15 258.12 232.69 256.67 229.93
  L 268.81 237.72
  C 269.57 238.21 269.78 238.04 269.45 237.19
  C 269.37 237.00 269.27 236.81 269.15 236.64
  C 268.92 236.30 268.81 235.88 268.84 235.47
  L 269.35 228.63
  C 269.38 228.22 269.53 228.16 269.82 228.47
  C 271.35 230.08 272.98 231.21 274.73 231.85
  Z"
/>
<path fill="#2ac4ff" d="
  M 279.96 250.04
  C 281.66 250.14 282.50 250.70 282.47 251.73
  C 280.80 252.36 279.24 252.53 277.79 252.24
  C 263.26 253.67 248.78 255.84 234.33 258.75
  C 233.47 256.15 233.66 254.25 234.91 253.05
  C 250.74 251.57 262.02 250.73 268.75 250.53
  C 274.20 250.38 277.94 250.21 279.96 250.04
  Z"
/>
<path fill="#c8ebf7" d="
  M 211.63 251.73
  C 214.30 253.99 217.52 254.88 221.30 254.40
  L 217.64 254.96
  C 217.22 255.02 217.15 255.21 217.43 255.54
  C 218.01 256.22 218.66 256.79 219.38 257.24
  C 220.13 257.71 220.83 258.21 221.48 258.74
  C 222.94 259.95 224.55 260.32 226.30 259.85
  C 227.55 259.52 228.75 259.31 229.90 259.24
  C 231.48 259.14 232.96 258.98 234.33 258.75
  C 248.78 255.84 263.26 253.67 277.79 252.24
  L 222.98 261.65
  C 222.67 261.71 222.35 261.61 222.12 261.40
  L 211.63 251.73
  Z"
/>
<path fill="#79c6ff" d="
  M 234.91 253.05
  C 233.66 254.25 233.47 256.15 234.33 258.75
  C 232.96 258.98 231.48 259.14 229.90 259.24
  C 228.75 259.31 227.55 259.52 226.30 259.85
  C 224.55 260.32 222.94 259.95 221.48 258.74
  C 220.83 258.21 220.13 257.71 219.38 257.24
  C 218.66 256.79 218.01 256.22 217.43 255.54
  C 217.15 255.21 217.22 255.02 217.64 254.96
  L 221.30 254.40
  L 234.91 253.05
  Z"
/>
</svg>
