<svg width="97" height="113" viewBox="0 0 97 113" fill="none" xmlns="http://www.w3.org/2000/svg">
<path d="M14.6499 43.47L41.1499 89.47L2.1499 81.47L14.6499 43.47Z" fill="black" stroke="#2F36E9" stroke-width="2"/>
<path d="M9 87.53L45 111V95L9 87.53Z" stroke="#2F36E9" stroke-width="2"/>
<path d="M87 87.53L51 111V95L87 87.53Z" fill="black" stroke="#2F36E9" stroke-width="2"/>
<path d="M78.0399 35.47H18.1699L47.1499 2L78.0399 35.47Z" fill="black" stroke="#2F36E9" stroke-width="2"/>
<path d="M1 32.97V72.97L11.5 38.97L1 32.97Z" fill="black" stroke="#2F36E9" stroke-width="2"/>
<path d="M2.59009 27.63L37.0901 6.13L12.5901 35.13L2.59009 27.63Z" fill="black" stroke="#2F36E9" stroke-width="2"/>
<path d="M93.9038 81.5L54.9038 89.5L81.4038 43.5L93.9038 81.5Z" fill="black" stroke="#2F36E9" stroke-width="2"/>
<path d="M84.71 38.97L95.21 72.97V32.97L84.71 38.97Z" fill="black" stroke="#2F36E9" stroke-width="2"/>
<path d="M84 35.13L57.3799 6L94 27.63L84 35.13Z" fill="black" stroke="#2F36E9" stroke-width="2"/>
<path d="M77.71 39.47L48 91.5L18.5 39.47H77.71Z" fill="black" stroke="#2F36E9" stroke-width="2"/>
</svg>
