<svg width="392" height="480" viewBox="0 0 392 480" fill="none" xmlns="http://www.w3.org/2000/svg">
<path d="M75 15V0H68.7868L64.3934 4.3934L75 15ZM15 75L4.3934 64.3934L0 68.7868V75H15ZM15 320H0V325.244L3.26726 329.346L15 320ZM317 15L327.607 4.3934L323.213 0H317V15ZM377 75H392V68.7868L387.607 64.3934L377 75ZM377 320L389.129 328.825L392 324.879V320H377ZM130.5 465L118.767 474.346L123.271 480H130.5V465ZM271.5 465V480H279.136L283.629 473.825L271.5 465ZM201 372.5V357.5C192.716 357.5 186 364.216 186 372.5H201ZM241.5 387.5C249.784 387.5 256.5 380.784 256.5 372.5C256.5 364.216 249.784 357.5 241.5 357.5V387.5ZM173.5 300L183.645 311.049C187.455 307.551 189.194 302.336 188.246 297.251C187.298 292.165 183.796 287.928 178.981 286.037L173.5 300ZM118.481 262.287C110.77 259.26 102.065 263.057 99.0373 270.769C96.0101 278.48 99.8074 287.185 107.519 290.213L118.481 262.287ZM145 182L132.884 190.844C135.32 194.18 139.023 196.365 143.121 196.882C147.219 197.399 151.35 196.204 154.538 193.577L145 182ZM251.038 114.077C257.432 108.81 258.345 99.3562 253.077 92.9623C247.81 86.5684 238.356 85.6552 231.962 90.9228L251.038 114.077ZM258.5 197.5V182.5C250.216 182.5 243.5 189.216 243.5 197.5H258.5ZM243.5 276.25C243.5 284.534 250.216 291.25 258.5 291.25C266.784 291.25 273.5 284.534 273.5 276.25H243.5ZM0 75V320H30V75H0ZM75 30H317V0H75V30ZM306.393 25.6066L366.393 85.6066L387.607 64.3934L327.607 4.3934L306.393 25.6066ZM283.629 473.825L389.129 328.825L364.871 311.175L259.371 456.175L283.629 473.825ZM130.5 480H201V450H130.5V480ZM201 480H271.5V450H201V480ZM216 465V372.5H186V465H216ZM201 387.5H241.5V357.5H201V387.5ZM3.26726 329.346L61.0173 401.846L84.4827 383.154L26.7327 310.654L3.26726 329.346ZM61.0173 401.846L118.767 474.346L142.233 455.654L84.4827 383.154L61.0173 401.846ZM82.8946 403.549L183.645 311.049L163.355 288.951L62.6054 381.451L82.8946 403.549ZM178.981 286.037L118.481 262.287L107.519 290.213L168.019 313.963L178.981 286.037ZM64.3934 4.3934L34.3934 34.3934L55.6066 55.6066L85.6066 25.6066L64.3934 4.3934ZM34.3934 34.3934L4.3934 64.3934L25.6066 85.6066L55.6066 55.6066L34.3934 34.3934ZM32.8843 53.8436L132.884 190.844L157.116 173.156L57.1157 36.1564L32.8843 53.8436ZM154.538 193.577L251.038 114.077L231.962 90.9228L135.462 170.423L154.538 193.577ZM362 75V197.5H392V75H362ZM362 197.5V320H392V197.5H362ZM377 182.5H258.5V212.5H377V182.5ZM243.5 197.5V276.25H273.5V197.5H243.5Z" fill="url(#paint0_linear_75_2)"/>
<defs>
<linearGradient id="paint0_linear_75_2" x1="196" y1="15" x2="196" y2="465" gradientUnits="userSpaceOnUse">
<stop stop-color="#0F65E7"/>
<stop offset="0.85" stop-color="#959595"/>
<stop offset="1" stop-color="#06152B"/>
</linearGradient>
</defs>
</svg>
