<?xml version="1.0" encoding="UTF-8" standalone="no"?>
<!DOCTYPE svg PUBLIC "-//W3C//DTD SVG 1.1//EN" "http://www.w3.org/Graphics/SVG/1.1/DTD/svg11.dtd">
<svg xmlns="http://www.w3.org/2000/svg" version="1.1" viewBox="0.00 0.00 300.00 300.00" width="300.00" height="300.00">
<path fill="#ed2323" d="
  M 43.61 109.44
  C 43.32 109.62 43.14 109.83 43.05 110.07
  C 43.00 110.20 42.90 110.24 42.77 110.19
  C 42.63 110.14 42.58 110.08 42.61 110.00
  C 42.74 109.68 42.64 109.60 42.33 109.75
  C 42.09 109.88 41.93 110.06 41.85 110.29
  C 41.78 110.50 41.86 110.62 42.08 110.65
  C 42.22 110.67 42.29 110.75 42.28 110.90
  C 42.27 110.97 42.23 111.03 42.16 111.08
  C 42.13 111.09 42.10 111.10 42.07 111.10
  C 41.83 111.05 41.82 111.07 42.05 111.16
  C 42.50 111.33 42.88 111.31 43.21 111.11
  C 43.52 110.92 43.63 111.00 43.56 111.35
  C 43.47 111.76 43.30 112.08 43.07 112.31
  C 43.03 112.35 42.98 112.38 42.92 112.39
  C 42.81 112.42 42.72 112.39 42.66 112.32
  C 42.42 112.04 42.30 112.08 42.31 112.45
  C 42.31 112.78 42.45 113.03 42.72 113.20
  C 43.04 113.40 43.08 113.65 42.84 113.94
  C 42.21 114.72 41.33 115.00 40.22 114.78
  C 39.47 114.63 38.90 114.86 38.51 115.45
  C 38.18 115.95 37.49 116.06 37.03 115.67
  L 33.94 113.06
  C 28.60 102.89 25.09 94.62 23.42 88.25
  C 21.22 79.88 20.08 71.71 20.00 63.72
  C 19.95 58.79 20.69 53.35 22.22 47.38
  C 23.17 43.69 24.67 40.26 26.74 37.11
  C 29.43 33.02 32.03 29.94 34.56 27.89
  C 37.61 25.42 41.18 23.46 44.48 21.16
  C 45.81 20.23 47.20 19.43 48.66 18.74
  C 55.17 15.69 62.36 13.23 70.24 11.36
  C 75.25 10.18 80.40 9.87 85.55 9.12
  C 90.38 8.41 94.89 9.76 99.66 10.00
  C 103.83 10.21 108.04 11.40 111.50 13.61
  C 112.38 14.18 112.32 14.32 111.31 14.05
  C 104.54 12.22 97.52 11.24 90.27 11.12
  C 87.52 11.08 84.85 11.26 82.24 11.65
  C 78.55 12.20 74.85 12.47 71.26 13.28
  C 65.51 14.59 59.86 16.68 54.29 19.57
  C 49.18 22.22 44.98 24.92 41.69 27.65
  C 38.44 30.36 35.52 33.63 32.91 37.46
  C 26.54 46.86 26.18 62.03 28.48 72.26
  C 31.36 85.05 36.40 97.45 43.61 109.44
  Z"
/>
<path fill="#cb2223" d="
  M 43.61 109.44
  C 47.91 117.51 52.35 123.97 56.93 128.81
  C 73.30 146.13 90.73 161.46 109.23 174.81
  C 113.42 177.84 118.80 181.25 125.36 185.06
  C 125.51 185.15 125.67 185.16 125.84 185.11
  C 126.05 185.06 126.24 184.91 126.40 184.68
  L 146.96 200.48
  L 157.14 209.10
  C 155.78 209.32 154.56 209.20 153.49 208.73
  C 147.15 205.96 140.82 203.27 134.51 200.64
  C 130.34 198.91 126.31 196.90 122.40 194.61
  C 105.41 184.68 90.25 174.33 76.93 163.56
  C 70.16 158.10 63.29 151.56 56.31 143.95
  C 48.28 135.20 40.83 124.90 33.94 113.06
  L 37.03 115.67
  C 37.49 116.06 38.18 115.95 38.51 115.45
  C 38.90 114.86 39.47 114.63 40.22 114.78
  C 41.33 115.00 42.21 114.72 42.84 113.94
  C 43.08 113.65 43.04 113.40 42.72 113.20
  C 42.45 113.03 42.31 112.78 42.31 112.45
  C 42.30 112.08 42.42 112.04 42.66 112.32
  C 42.72 112.39 42.81 112.42 42.92 112.39
  C 42.98 112.38 43.03 112.35 43.07 112.31
  C 43.30 112.08 43.47 111.76 43.56 111.35
  C 43.63 111.00 43.52 110.92 43.21 111.11
  C 42.88 111.31 42.50 111.33 42.05 111.16
  C 41.82 111.07 41.83 111.05 42.07 111.10
  C 42.10 111.10 42.13 111.09 42.16 111.08
  C 42.23 111.03 42.27 110.97 42.28 110.90
  C 42.29 110.75 42.22 110.67 42.08 110.65
  C 41.86 110.62 41.78 110.50 41.85 110.29
  C 41.93 110.06 42.09 109.88 42.33 109.75
  C 42.64 109.60 42.74 109.68 42.61 110.00
  C 42.58 110.08 42.63 110.14 42.77 110.19
  C 42.90 110.24 43.00 110.20 43.05 110.07
  C 43.14 109.83 43.32 109.62 43.61 109.44
  Z"
/>
<path fill="#45b4f8" d="
  M 206.45 181.00
  C 205.18 183.90 203.91 186.78 202.62 189.63
  C 202.23 190.51 201.67 191.11 200.96 191.44
  L 198.41 188.71
  L 190.63 181.02
  L 206.45 181.00
  Z"
/>
<path fill="#0a8fd9" d="
  M 223.78 181.05
  L 221.11 185.74
  C 220.94 186.04 220.69 186.16 220.36 186.10
  C 219.76 185.99 219.22 185.72 218.74 185.28
  C 218.74 184.46 218.17 183.98 218.16 183.21
  C 218.15 182.54 218.34 181.77 218.73 180.90
  L 223.78 181.05
  Z"
/>
<path fill="#0a8fd9" d="
  M 155.42 181.19
  C 154.48 183.38 152.60 185.51 149.78 187.58
  L 148.73 188.23
  C 148.06 187.72 147.32 187.35 146.50 187.12
  C 142.59 186.05 138.69 184.93 134.80 183.77
  C 134.54 183.69 134.33 183.53 134.18 183.30
  C 134.12 183.21 134.05 183.12 133.97 183.03
  C 133.76 182.79 133.49 182.66 133.17 182.64
  C 132.49 182.60 132.03 182.16 131.78 181.31
  L 155.42 181.19
  Z"
/>
<path fill="#73e3fc" d="
  M 155.42 181.19
  L 163.30 181.13
  L 167.06 184.21
  L 165.13 183.77
  C 164.82 183.70 164.57 183.53 164.39 183.27
  C 163.54 182.06 162.32 181.62 160.75 181.97
  C 160.54 182.02 160.48 182.29 160.65 182.42
  L 164.06 185.04
  C 164.31 185.24 164.47 185.50 164.53 185.82
  L 165.65 192.09
  C 166.05 194.29 165.42 194.64 163.76 193.14
  C 162.79 192.26 161.52 191.64 159.95 191.29
  C 158.06 190.87 156.27 190.37 154.58 189.79
  C 154.43 189.74 154.31 189.64 154.23 189.50
  L 154.10 189.26
  C 153.95 188.99 153.71 188.87 153.40 188.92
  C 151.78 189.16 150.57 188.71 149.78 187.58
  C 152.60 185.51 154.48 183.38 155.42 181.19
  Z"
/>
<path fill="#ecfefd" d="
  M 163.30 181.13
  L 166.56 181.09
  C 168.37 183.00 170.03 184.09 171.52 184.38
  C 172.55 184.58 173.25 184.22 173.61 183.29
  C 173.76 183.31 173.95 183.34 174.18 183.38
  C 174.75 183.48 174.81 183.70 174.38 184.05
  C 174.27 184.14 174.21 184.27 174.20 184.44
  C 174.18 184.73 174.26 185.00 174.43 185.23
  C 175.34 186.42 176.69 186.86 178.48 186.55
  L 183.45 187.74
  C 183.46 188.04 183.71 188.17 184.18 188.14
  C 184.43 188.12 184.49 188.21 184.34 188.42
  C 184.27 188.51 184.16 188.56 183.99 188.57
  C 182.82 188.66 181.22 188.59 179.21 188.36
  C 179.08 188.08 178.74 188.03 178.21 188.21
  L 174.83 187.50
  C 173.58 186.75 172.24 186.29 170.81 186.13
  C 170.40 186.08 170.19 186.27 170.18 186.69
  C 170.18 187.50 170.23 188.12 170.03 188.92
  C 169.27 191.94 168.60 195.03 168.02 198.19
  C 167.59 200.52 167.48 203.60 167.67 207.42
  C 167.83 210.60 167.91 213.79 167.91 216.98
  L 165.69 215.31
  C 165.72 212.30 165.76 209.34 165.83 206.41
  C 165.97 200.27 167.22 195.38 168.54 189.01
  C 168.95 187.04 168.45 185.44 167.06 184.21
  L 163.30 181.13
  Z"
/>
<path fill="#0a8fd9" d="
  M 166.56 181.09
  L 171.08 181.08
  L 173.61 183.29
  C 173.25 184.22 172.55 184.58 171.52 184.38
  C 170.03 184.09 168.37 183.00 166.56 181.09
  Z"
/>
<path fill="#48c9fe" d="
  M 171.08 181.08
  L 184.71 181.09
  C 184.10 181.62 183.84 182.42 183.93 183.48
  C 181.70 182.93 179.55 183.58 177.49 182.96
  C 176.47 182.65 175.88 182.82 175.73 183.46
  C 175.55 184.25 176.06 185.03 176.85 185.17
  C 178.00 185.37 178.54 185.83 178.48 186.55
  C 176.69 186.86 175.34 186.42 174.43 185.23
  C 174.26 185.00 174.18 184.73 174.20 184.44
  C 174.21 184.27 174.27 184.14 174.38 184.05
  C 174.81 183.70 174.75 183.48 174.18 183.38
  C 173.95 183.34 173.76 183.31 173.61 183.29
  L 171.08 181.08
  Z"
/>
<path fill="#013c91" d="
  M 184.71 181.09
  L 187.97 181.02
  C 188.14 181.81 188.32 182.06 188.53 181.77
  L 187.06 188.15
  L 184.98 187.11
  L 183.83 186.57
  C 183.54 186.43 183.43 186.20 183.48 185.89
  L 183.93 183.48
  C 183.84 182.42 184.10 181.62 184.71 181.09
  Z"
/>
<path fill="#0652a6" d="
  M 187.97 181.02
  L 190.63 181.02
  L 198.41 188.71
  L 186.75 193.86
  C 187.20 191.93 187.66 189.94 188.14 187.90
  C 188.62 185.87 188.75 183.82 188.53 181.77
  C 188.32 182.06 188.14 181.81 187.97 181.02
  Z"
/>
<path fill="#28a5dd" d="
  M 206.45 181.00
  C 207.04 180.91 207.57 180.92 208.05 181.04
  L 208.16 182.02
  C 208.19 182.32 208.38 182.58 208.65 182.71
  L 211.39 184.03
  C 209.03 187.69 207.23 191.66 206.00 195.94
  L 204.17 199.11
  C 204.14 199.16 204.13 199.21 204.14 199.26
  C 204.15 199.37 204.19 199.46 204.26 199.52
  C 204.40 199.64 204.54 199.64 204.67 199.51
  L 211.67 192.81
  C 212.10 192.40 212.80 192.52 213.06 193.05
  L 213.79 194.50
  L 214.97 197.14
  C 215.11 197.46 215.34 197.57 215.67 197.47
  C 217.60 196.88 219.47 197.40 221.26 199.04
  C 222.11 199.81 223.35 200.02 224.98 199.66
  L 225.17 203.82
  L 219.38 206.08
  C 218.98 206.24 218.98 206.80 219.38 206.96
  L 221.06 207.60
  C 221.37 208.37 221.30 208.89 220.85 209.18
  C 220.65 209.31 220.40 209.34 220.18 209.25
  L 214.77 207.15
  C 211.89 206.28 209.36 205.05 207.18 203.46
  L 207.73 203.18
  C 208.13 202.98 208.13 202.79 207.72 202.61
  L 200.31 199.36
  L 196.85 198.23
  C 196.38 198.08 196.09 198.10 195.96 198.29
  L 194.21 197.66
  L 198.54 197.73
  C 198.89 197.74 199.08 197.56 199.10 197.21
  C 199.21 195.66 199.78 194.23 200.81 192.92
  C 201.02 192.65 201.10 192.35 201.05 192.01
  L 200.96 191.44
  C 201.67 191.11 202.23 190.51 202.62 189.63
  C 203.91 186.78 205.18 183.90 206.45 181.00
  Z
  M 203.6620 192.8101
  C 203.81 192.93 204.53 192.28 205.2732 191.3588
  C 206.01 190.44 206.49 189.59 206.3380 189.4699
  C 206.19 189.35 205.47 190.00 204.7268 190.9212
  C 203.99 191.84 203.51 192.69 203.6620 192.8101
  Z"
/>
<path fill="#ecfefd" d="
  M 208.05 181.04
  L 209.40 181.07
  C 209.62 181.77 209.99 182.24 210.50 182.49
  C 211.23 182.84 213.00 183.47 215.82 184.39
  C 216.42 184.88 217.39 185.17 218.74 185.28
  C 219.22 185.72 219.76 185.99 220.36 186.10
  C 220.69 186.16 220.94 186.04 221.11 185.74
  L 223.78 181.05
  L 225.51 181.00
  L 223.13 187.52
  C 223.02 187.84 223.02 188.16 223.14 188.48
  L 225.59 194.92
  C 226.50 197.29 227.16 199.67 227.59 202.04
  C 227.78 203.13 228.44 204.02 229.56 204.72
  C 232.09 206.30 236.80 204.72 239.26 203.55
  L 243.05 202.36
  C 244.03 202.57 243.93 203.08 242.75 203.89
  C 242.48 204.08 242.28 204.33 242.17 204.65
  C 241.87 205.50 241.80 206.34 241.97 207.18
  C 241.95 207.65 241.86 207.99 241.69 208.19
  C 241.48 208.43 241.39 208.39 241.40 208.07
  C 241.43 207.52 241.36 206.99 241.21 206.48
  C 241.25 205.81 241.04 205.38 240.59 205.17
  C 240.29 205.04 239.89 205.08 239.40 205.30
  C 236.39 206.61 233.25 207.48 229.99 207.90
  C 229.66 207.95 229.37 208.09 229.14 208.33
  C 228.74 208.74 228.40 209.20 228.13 209.70
  C 224.93 215.43 221.20 222.64 221.31 229.12
  C 221.32 229.48 221.47 229.83 221.73 230.07
  C 224.61 232.79 227.73 235.36 231.09 237.78
  C 234.15 239.98 237.31 242.20 240.57 244.45
  C 240.81 244.61 241.07 244.69 241.35 244.69
  L 246.78 244.67
  L 252.05 243.69
  C 252.40 243.62 252.64 243.43 252.77 243.10
  C 252.98 242.61 253.02 241.95 252.91 241.13
  L 253.59 240.33
  C 253.95 241.04 254.06 241.92 253.92 242.96
  C 253.87 243.35 254.03 243.51 254.42 243.45
  C 256.62 243.12 258.81 243.22 261.00 243.77
  C 261.75 243.96 262.58 244.03 263.49 243.98
  C 264.40 243.94 265.25 244.04 266.05 244.27
  C 266.02 244.54 265.75 244.68 265.26 244.71
  C 264.81 244.70 264.36 244.79 263.93 244.96
  C 260.27 244.58 256.63 244.84 253.02 245.73
  C 250.23 245.50 247.61 245.79 245.14 246.60
  C 243.93 246.20 242.97 246.43 242.26 247.29
  C 242.16 247.41 242.10 247.55 242.09 247.70
  C 242.08 247.83 242.06 247.96 242.04 248.10
  C 242.01 248.30 242.09 248.37 242.28 248.32
  C 242.55 248.25 242.81 248.32 243.06 248.55
  C 241.81 249.86 241.04 251.08 240.75 252.20
  C 239.36 254.16 238.76 256.43 238.93 259.02
  L 236.63 259.54
  C 237.68 255.87 238.74 252.19 239.80 248.48
  C 239.97 247.87 239.99 247.39 239.84 247.03
  C 239.08 245.19 236.34 243.52 234.90 242.99
  L 227.69 237.75
  C 225.38 235.68 223.09 233.84 220.80 232.22
  C 219.51 231.30 218.19 230.86 216.82 230.90
  C 215.39 230.95 213.90 231.16 212.36 231.55
  L 208.30 231.70
  C 207.42 231.55 206.53 231.77 205.62 232.37
  C 205.39 232.53 204.95 232.41 204.31 232.02
  C 202.37 231.31 200.46 230.55 198.58 229.72
  C 197.19 229.11 195.93 228.81 194.78 228.83
  C 193.43 228.85 192.09 228.72 190.75 228.45
  C 190.32 228.36 189.89 228.64 189.81 229.08
  C 189.73 229.52 189.80 229.89 190.01 230.19
  C 190.22 230.46 190.49 230.57 190.83 230.52
  C 193.66 230.03 194.39 230.33 193.04 231.44
  C 192.85 231.81 192.63 232.12 192.37 232.35
  C 192.09 232.58 191.82 232.58 191.56 232.33
  C 191.23 232.02 190.92 231.68 190.61 231.31
  C 190.32 230.96 190.12 231.01 190.02 231.45
  C 189.99 231.59 189.92 231.72 189.81 231.83
  C 189.54 232.12 189.37 232.06 189.30 231.67
  L 188.85 229.05
  C 188.80 228.72 188.61 228.54 188.28 228.49
  L 186.93 228.29
  C 184.91 227.26 182.81 226.84 180.63 227.05
  L 177.32 224.29
  L 178.87 224.40
  C 180.42 224.96 182.20 225.21 184.22 225.15
  C 184.57 225.14 184.81 224.98 184.94 224.65
  C 184.99 224.51 185.01 224.36 184.99 224.19
  C 184.92 223.64 184.69 223.56 184.30 223.95
  L 183.91 224.34
  C 183.75 224.51 183.65 224.47 183.62 224.24
  C 183.60 224.13 183.64 224.05 183.73 223.98
  C 184.40 223.50 184.97 222.98 185.43 222.43
  C 185.80 222.72 186.01 222.94 186.04 223.09
  C 185.93 224.84 186.33 225.94 187.24 226.37
  C 187.88 226.76 188.54 226.78 189.22 226.41
  C 192.07 227.27 194.85 227.40 197.54 226.81
  C 197.89 226.89 198.21 226.91 198.52 226.86
  L 199.47 226.94
  C 199.56 227.11 199.65 227.26 199.75 227.40
  C 199.84 227.52 199.98 227.62 200.16 227.69
  C 202.15 228.49 203.98 229.18 205.67 229.76
  C 211.70 231.11 216.27 230.23 219.37 227.13
  L 221.68 217.52
  L 224.98 209.34
  C 226.13 207.59 226.19 205.75 225.17 203.82
  L 224.98 199.66
  C 224.47 195.21 223.46 191.82 221.95 189.49
  C 220.80 187.70 219.52 186.59 218.11 186.15
  C 215.79 185.44 213.55 184.73 211.39 184.03
  L 208.65 182.71
  C 208.38 182.58 208.19 182.32 208.16 182.02
  L 208.05 181.04
  Z"
/>
<path fill="#0a8fd9" d="
  M 209.40 181.07
  L 212.03 181.03
  C 211.92 181.61 212.21 181.97 212.88 182.12
  C 214.36 182.45 215.34 183.21 215.82 184.39
  C 213.00 183.47 211.23 182.84 210.50 182.49
  C 209.99 182.24 209.62 181.77 209.40 181.07
  Z"
/>
<path fill="#45b4f8" d="
  M 212.03 181.03
  L 218.73 180.90
  C 218.34 181.77 218.15 182.54 218.16 183.21
  C 218.17 183.98 218.74 184.46 218.74 185.28
  C 217.39 185.17 216.42 184.88 215.82 184.39
  C 215.34 183.21 214.36 182.45 212.88 182.12
  C 212.21 181.97 211.92 181.61 212.03 181.03
  Z"
/>
<path fill="#45b4f8" d="
  M 225.51 181.00
  L 239.38 181.04
  L 234.45 198.82
  L 232.37 199.28
  C 232.04 199.35 231.72 199.30 231.43 199.13
  C 230.42 198.53 229.44 198.40 228.47 198.74
  C 227.78 195.40 226.82 194.13 225.59 194.92
  L 223.14 188.48
  C 223.02 188.16 223.02 187.84 223.13 187.52
  L 225.51 181.00
  Z"
/>
<path fill="#48c9fe" d="
  M 239.38 181.04
  L 243.61 181.10
  C 243.97 181.10 244.24 181.25 244.43 181.56
  L 251.46 192.84
  L 243.95 195.83
  C 241.00 196.06 237.83 197.06 234.45 198.82
  L 239.38 181.04
  Z"
/>
<path fill="#0652a6" d="
  M 131.78 181.31
  C 132.03 182.16 132.49 182.60 133.17 182.64
  C 133.49 182.66 133.76 182.79 133.97 183.03
  C 134.05 183.12 134.12 183.21 134.18 183.30
  C 134.33 183.53 134.54 183.69 134.80 183.77
  C 138.69 184.93 142.59 186.05 146.50 187.12
  C 147.32 187.35 148.06 187.72 148.73 188.23
  C 148.72 188.32 148.72 188.40 148.71 188.49
  C 148.70 188.54 148.68 188.58 148.65 188.61
  L 143.42 194.19
  C 143.23 194.39 143.30 194.72 143.56 194.83
  C 144.09 195.06 144.51 195.31 144.80 195.58
  L 144.35 196.22
  C 144.17 196.47 144.44 196.80 144.72 196.67
  C 145.42 196.34 146.08 196.14 146.71 196.08
  L 155.89 200.51
  C 153.52 200.95 151.23 201.10 149.00 200.97
  C 148.62 200.95 148.04 200.71 147.25 200.25
  C 141.45 195.64 135.68 191.00 129.93 186.33
  C 128.76 185.38 128.08 184.26 127.05 183.16
  C 126.70 182.84 126.52 182.52 126.51 182.20
  C 126.50 181.82 126.68 181.62 127.05 181.60
  L 131.78 181.31
  Z"
/>
<path fill="#1fb7e1" d="
  M 167.06 184.21
  C 168.45 185.44 168.95 187.04 168.54 189.01
  C 167.22 195.38 165.97 200.27 165.83 206.41
  C 165.76 209.34 165.72 212.30 165.69 215.31
  L 160.70 211.34
  C 161.05 210.34 160.26 209.55 158.31 208.96
  C 157.83 208.81 157.74 208.18 158.15 207.90
  L 162.16 205.14
  C 163.08 204.50 163.12 203.15 162.23 202.47
  C 159.55 200.42 157.44 199.76 155.89 200.51
  L 146.71 196.08
  L 148.94 193.55
  C 148.99 193.50 148.99 193.45 148.94 193.41
  L 148.74 193.23
  C 148.62 193.12 148.51 193.12 148.40 193.25
  C 147.45 194.42 146.25 195.20 144.80 195.58
  C 144.51 195.31 144.09 195.06 143.56 194.83
  C 143.30 194.72 143.23 194.39 143.42 194.19
  L 148.65 188.61
  C 148.68 188.58 148.70 188.54 148.71 188.49
  C 148.72 188.40 148.72 188.32 148.73 188.23
  L 149.78 187.58
  C 150.57 188.71 151.78 189.16 153.40 188.92
  C 153.71 188.87 153.95 188.99 154.10 189.26
  L 154.23 189.50
  C 154.31 189.64 154.43 189.74 154.58 189.79
  C 156.27 190.37 158.06 190.87 159.95 191.29
  C 161.52 191.64 162.79 192.26 163.76 193.14
  C 165.42 194.64 166.05 194.29 165.65 192.09
  L 164.53 185.82
  C 164.47 185.50 164.31 185.24 164.06 185.04
  L 160.65 182.42
  C 160.48 182.29 160.54 182.02 160.75 181.97
  C 162.32 181.62 163.54 182.06 164.39 183.27
  C 164.57 183.53 164.82 183.70 165.13 183.77
  L 167.06 184.21
  Z"
/>
<path fill="#73e3fc" d="
  M 188.53 181.77
  C 188.75 183.82 188.62 185.87 188.14 187.90
  C 187.66 189.94 187.20 191.93 186.75 193.86
  L 186.06 198.72
  C 186.27 199.02 186.36 199.38 186.34 199.80
  C 186.24 200.04 186.08 200.24 185.87 200.40
  L 183.19 205.79
  C 182.92 205.96 182.75 205.87 182.68 205.54
  C 182.91 205.19 183.04 204.86 183.07 204.55
  C 183.10 204.16 182.93 204.03 182.56 204.16
  C 181.89 204.39 181.19 204.81 180.46 205.41
  C 179.93 204.50 179.85 203.51 180.22 202.42
  C 180.36 202.01 180.27 201.68 179.95 201.45
  C 179.73 201.29 179.41 201.33 179.24 201.54
  L 171.80 210.73
  C 171.63 210.94 171.37 211.07 171.10 211.09
  L 170.07 211.16
  L 170.21 208.10
  C 171.00 206.07 171.34 204.04 171.24 202.01
  C 171.16 200.31 171.28 198.92 171.59 197.84
  C 172.10 196.12 172.37 194.41 172.41 192.71
  C 172.45 191.07 173.55 189.61 175.03 188.96
  C 175.32 188.83 175.63 188.81 175.94 188.90
  C 177.13 189.27 177.91 190.09 178.30 191.35
  C 178.50 192.01 178.91 192.43 179.54 192.62
  C 180.13 192.79 180.28 192.61 179.97 192.08
  L 178.21 188.98
  C 178.12 188.83 178.10 188.67 178.13 188.50
  C 178.16 188.39 178.18 188.30 178.21 188.21
  C 178.74 188.03 179.08 188.08 179.21 188.36
  L 181.26 191.13
  C 182.15 192.77 181.71 194.03 182.32 195.65
  C 182.69 196.66 183.49 197.14 183.82 198.21
  C 184.05 198.92 184.16 199.32 184.15 199.39
  C 184.01 201.74 184.31 201.79 185.06 199.56
  C 185.76 197.49 185.97 195.26 185.70 192.85
  L 187.06 188.15
  L 188.53 181.77
  Z"
/>
<path fill="#0a619d" d="
  M 183.93 183.48
  L 183.48 185.89
  C 183.43 186.20 183.54 186.43 183.83 186.57
  L 184.98 187.11
  L 183.45 187.74
  L 178.48 186.55
  C 178.54 185.83 178.00 185.37 176.85 185.17
  C 176.06 185.03 175.55 184.25 175.73 183.46
  C 175.88 182.82 176.47 182.65 177.49 182.96
  C 179.55 183.58 181.70 182.93 183.93 183.48
  Z"
/>
<path fill="#ecfefd" d="
  M 127.05 183.16
  C 128.08 184.26 128.76 185.38 129.93 186.33
  C 135.68 191.00 141.45 195.64 147.25 200.25
  C 147.10 200.31 147.01 200.39 146.96 200.48
  L 126.40 184.68
  C 126.82 184.27 127.04 183.77 127.05 183.16
  Z"
/>
<path fill="#45b4f8" d="
  M 211.39 184.03
  C 213.55 184.73 215.79 185.44 218.11 186.15
  C 219.52 186.59 220.80 187.70 221.95 189.49
  C 223.46 191.82 224.47 195.21 224.98 199.66
  C 223.35 200.02 222.11 199.81 221.26 199.04
  C 219.47 197.40 217.60 196.88 215.67 197.47
  C 215.34 197.57 215.11 197.46 214.97 197.14
  L 213.79 194.50
  C 215.09 192.11 216.59 190.05 218.28 188.34
  C 219.13 187.47 218.95 186.99 217.73 186.91
  L 216.38 186.82
  C 216.21 186.81 216.06 186.87 215.94 187.00
  C 215.87 187.08 215.82 187.18 215.80 187.29
  C 215.74 187.64 215.54 187.86 215.21 187.96
  C 213.42 188.49 212.09 189.44 211.22 190.82
  C 210.37 192.19 209.54 193.12 208.75 193.61
  C 207.46 194.42 206.54 195.19 206.00 195.94
  C 207.23 191.66 209.03 187.69 211.39 184.03
  Z"
/>
<path fill="#00dfde" d="
  M 174.83 187.50
  C 173.97 188.19 173.25 188.95 172.68 189.77
  C 172.26 190.38 171.96 191.34 171.79 192.66
  C 171.59 194.19 171.11 196.09 170.34 198.37
  C 169.49 200.90 169.45 204.14 170.21 208.10
  L 170.07 211.16
  L 169.59 212.14
  C 168.27 214.45 168.56 215.52 170.46 215.35
  C 170.24 216.06 169.50 216.67 168.23 217.20
  C 168.12 217.19 168.02 217.12 167.91 216.98
  C 167.91 213.79 167.83 210.60 167.67 207.42
  C 167.48 203.60 167.59 200.52 168.02 198.19
  C 168.60 195.03 169.27 191.94 170.03 188.92
  C 170.23 188.12 170.18 187.50 170.18 186.69
  C 170.19 186.27 170.40 186.08 170.81 186.13
  C 172.24 186.29 173.58 186.75 174.83 187.50
  Z"
/>
<path fill="#73e3fc" d="
  M 213.79 194.50
  L 213.06 193.05
  C 212.80 192.52 212.10 192.40 211.67 192.81
  L 204.67 199.51
  C 204.54 199.64 204.40 199.64 204.26 199.52
  C 204.19 199.46 204.15 199.37 204.14 199.26
  C 204.13 199.21 204.14 199.16 204.17 199.11
  L 206.00 195.94
  C 206.54 195.19 207.46 194.42 208.75 193.61
  C 209.54 193.12 210.37 192.19 211.22 190.82
  C 212.09 189.44 213.42 188.49 215.21 187.96
  C 215.54 187.86 215.74 187.64 215.80 187.29
  C 215.82 187.18 215.87 187.08 215.94 187.00
  C 216.06 186.87 216.21 186.81 216.38 186.82
  L 217.73 186.91
  C 218.95 186.99 219.13 187.47 218.28 188.34
  C 216.59 190.05 215.09 192.11 213.79 194.50
  Z"
/>
<path fill="#0a8fd9" d="
  M 184.98 187.11
  L 187.06 188.15
  L 185.70 192.85
  C 185.18 193.63 184.63 194.09 184.05 194.23
  C 183.71 194.31 183.50 194.18 183.41 193.85
  C 182.96 192.20 182.25 191.29 181.26 191.13
  L 179.21 188.36
  C 181.22 188.59 182.82 188.66 183.99 188.57
  C 184.16 188.56 184.27 188.51 184.34 188.42
  C 184.49 188.21 184.43 188.12 184.18 188.14
  C 183.71 188.17 183.46 188.04 183.45 187.74
  L 184.98 187.11
  Z"
/>
<path fill="#0a8fd9" d="
  M 174.83 187.50
  L 178.21 188.21
  C 178.18 188.30 178.16 188.39 178.13 188.50
  C 178.10 188.67 178.12 188.83 178.21 188.98
  L 179.97 192.08
  C 180.28 192.61 180.13 192.79 179.54 192.62
  C 178.91 192.43 178.50 192.01 178.30 191.35
  C 177.91 190.09 177.13 189.27 175.94 188.90
  C 175.63 188.81 175.32 188.83 175.03 188.96
  C 173.55 189.61 172.45 191.07 172.41 192.71
  C 172.37 194.41 172.10 196.12 171.59 197.84
  C 171.28 198.92 171.16 200.31 171.24 202.01
  C 171.34 204.04 171.00 206.07 170.21 208.10
  C 169.45 204.14 169.49 200.90 170.34 198.37
  C 171.11 196.09 171.59 194.19 171.79 192.66
  C 171.96 191.34 172.26 190.38 172.68 189.77
  C 173.25 188.95 173.97 188.19 174.83 187.50
  Z"
/>
<path fill="#0a8fd9" d="
  M 198.41 188.71
  L 200.96 191.44
  L 201.05 192.01
  C 201.10 192.35 201.02 192.65 200.81 192.92
  C 199.78 194.23 199.21 195.66 199.10 197.21
  C 199.08 197.56 198.89 197.74 198.54 197.73
  L 194.21 197.66
  C 193.47 198.01 192.75 198.15 192.05 198.06
  C 192.04 197.97 192.02 197.89 192.01 197.80
  C 192.00 197.77 191.98 197.75 191.95 197.74
  C 189.86 197.31 187.89 197.64 186.06 198.72
  L 186.75 193.86
  L 198.41 188.71
  Z"
/>
<ellipse fill="#45b4f8" cx="0.00" cy="0.00" transform="translate(205.00,191.14) rotate(128.7)" rx="2.14" ry="0.35"/>
<path fill="#0104aa" d="
  M 185.70 192.85
  C 185.97 195.26 185.76 197.49 185.06 199.56
  C 184.31 201.79 184.01 201.74 184.15 199.39
  C 184.16 199.32 184.05 198.92 183.82 198.21
  C 183.49 197.14 182.69 196.66 182.32 195.65
  C 181.71 194.03 182.15 192.77 181.26 191.13
  C 182.25 191.29 182.96 192.20 183.41 193.85
  C 183.50 194.18 183.71 194.31 184.05 194.23
  C 184.63 194.09 185.18 193.63 185.70 192.85
  Z"
/>
<path fill="#73e3fc" d="
  M 146.71 196.08
  C 146.08 196.14 145.42 196.34 144.72 196.67
  C 144.44 196.80 144.17 196.47 144.35 196.22
  L 144.80 195.58
  C 146.25 195.20 147.45 194.42 148.40 193.25
  C 148.51 193.12 148.62 193.12 148.74 193.23
  L 148.94 193.41
  C 148.99 193.45 148.99 193.50 148.94 193.55
  L 146.71 196.08
  Z"
/>
<path fill="#0104aa" d="
  M 251.46 192.84
  L 256.46 200.46
  C 252.66 201.42 250.18 201.89 249.01 201.88
  C 246.99 201.86 245.00 202.02 243.05 202.36
  L 239.26 203.55
  C 238.30 202.93 237.30 202.66 236.26 202.75
  C 234.89 202.86 233.53 202.79 232.17 202.52
  C 231.85 202.45 231.60 202.29 231.42 202.02
  L 230.99 201.36
  L 243.95 195.83
  L 251.46 192.84
  Z"
/>
<path fill="#0a8fd9" d="
  M 228.47 198.74
  C 229.05 201.29 229.89 202.16 230.99 201.36
  L 231.42 202.02
  C 231.60 202.29 231.85 202.45 232.17 202.52
  C 233.53 202.79 234.89 202.86 236.26 202.75
  C 237.30 202.66 238.30 202.93 239.26 203.55
  C 236.80 204.72 232.09 206.30 229.56 204.72
  C 228.44 204.02 227.78 203.13 227.59 202.04
  C 227.16 199.67 226.50 197.29 225.59 194.92
  C 226.82 194.13 227.78 195.40 228.47 198.74
  Z"
/>
<path fill="#73e3fc" d="
  M 243.95 195.83
  L 230.99 201.36
  C 229.89 202.16 229.05 201.29 228.47 198.74
  C 229.44 198.40 230.42 198.53 231.43 199.13
  C 231.72 199.30 232.04 199.35 232.37 199.28
  L 234.45 198.82
  C 237.83 197.06 241.00 196.06 243.95 195.83
  Z"
/>
<path fill="#28a5dd" d="
  M 192.05 198.06
  C 190.17 198.11 187.50 197.99 186.34 199.80
  C 186.36 199.38 186.27 199.02 186.06 198.72
  C 187.89 197.64 189.86 197.31 191.95 197.74
  C 191.98 197.75 192.00 197.77 192.01 197.80
  C 192.02 197.89 192.04 197.97 192.05 198.06
  Z"
/>
<path fill="#013c91" d="
  M 194.21 197.66
  L 195.96 198.29
  L 194.93 210.68
  C 194.90 210.94 194.94 211.19 195.03 211.44
  C 195.13 211.69 195.15 211.96 195.09 212.25
  C 195.03 212.54 194.85 212.67 194.55 212.63
  C 193.97 212.32 193.55 211.85 193.28 211.24
  C 192.61 209.71 191.85 208.25 191.01 206.87
  L 187.44 200.37
  C 187.39 200.29 187.32 200.22 187.23 200.18
  C 186.90 200.03 186.78 200.13 186.87 200.48
  C 186.46 200.62 186.12 200.59 185.87 200.40
  C 186.08 200.24 186.24 200.04 186.34 199.80
  C 187.50 197.99 190.17 198.11 192.05 198.06
  C 192.75 198.15 193.47 198.01 194.21 197.66
  Z"
/>
<path fill="#73e3fc" d="
  M 195.96 198.29
  C 196.09 198.10 196.38 198.08 196.85 198.23
  L 195.43 213.90
  C 195.19 213.61 194.98 213.48 194.79 213.53
  L 194.55 212.63
  C 194.85 212.67 195.03 212.54 195.09 212.25
  C 195.15 211.96 195.13 211.69 195.03 211.44
  C 194.94 211.19 194.90 210.94 194.93 210.68
  L 195.96 198.29
  Z"
/>
<path fill="#013c91" d="
  M 196.85 198.23
  L 200.31 199.36
  C 200.86 200.39 201.50 201.18 202.24 201.75
  L 204.30 205.78
  C 204.45 206.07 204.39 206.31 204.11 206.50
  C 201.44 208.27 199.50 209.78 198.27 211.01
  C 197.72 211.56 197.22 212.58 196.76 214.05
  C 196.31 214.20 195.87 214.15 195.43 213.90
  L 196.85 198.23
  Z"
/>
<path fill="#73e3fc" d="
  M 207.18 203.46
  C 205.54 202.57 203.89 202.00 202.24 201.75
  C 201.50 201.18 200.86 200.39 200.31 199.36
  L 207.72 202.61
  C 208.13 202.79 208.13 202.98 207.73 203.18
  L 207.18 203.46
  Z"
/>
<path fill="#73e3fc" d="
  M 160.70 211.34
  L 157.14 209.10
  L 146.96 200.48
  C 147.01 200.39 147.10 200.31 147.25 200.25
  C 148.04 200.71 148.62 200.95 149.00 200.97
  C 151.23 201.10 153.52 200.95 155.89 200.51
  C 157.44 199.76 159.55 200.42 162.23 202.47
  C 163.12 203.15 163.08 204.50 162.16 205.14
  L 158.15 207.90
  C 157.74 208.18 157.83 208.81 158.31 208.96
  C 160.26 209.55 161.05 210.34 160.70 211.34
  Z"
/>
<path fill="#73e3fc" d="
  M 191.01 206.87
  C 191.13 206.96 191.01 207.03 190.64 207.08
  L 186.87 200.48
  C 186.78 200.13 186.90 200.03 187.23 200.18
  C 187.32 200.22 187.39 200.29 187.44 200.37
  L 191.01 206.87
  Z"
/>
<path fill="#28a5dd" d="
  M 256.46 200.46
  L 257.34 201.96
  L 256.64 202.11
  C 256.27 202.18 256.15 202.40 256.28 202.75
  L 256.74 203.98
  C 255.72 203.81 255.00 204.05 254.57 204.70
  C 254.33 205.06 254.03 205.13 253.66 204.90
  C 252.57 204.23 251.25 204.25 249.70 204.95
  C 249.36 205.10 248.99 205.16 248.62 205.13
  C 247.99 205.06 247.45 205.27 246.99 205.75
  C 246.87 205.88 246.74 205.89 246.61 205.78
  C 245.18 204.62 242.80 206.14 241.97 207.18
  C 241.80 206.34 241.87 205.50 242.17 204.65
  C 242.28 204.33 242.48 204.08 242.75 203.89
  C 243.93 203.08 244.03 202.57 243.05 202.36
  C 245.00 202.02 246.99 201.86 249.01 201.88
  C 250.18 201.89 252.66 201.42 256.46 200.46
  Z"
/>
<path fill="#0104aa" d="
  M 185.87 200.40
  C 186.12 200.59 186.46 200.62 186.87 200.48
  L 190.64 207.08
  C 190.97 207.51 191.10 207.88 191.03 208.19
  C 190.94 208.57 190.73 208.68 190.38 208.51
  C 189.24 207.95 188.05 207.71 186.82 207.80
  C 185.61 207.89 184.56 207.23 183.38 207.08
  C 183.02 207.03 182.86 206.83 182.91 206.46
  C 182.94 206.26 183.04 206.04 183.19 205.79
  L 185.87 200.40
  Z"
/>
<path fill="#1fb7e1" d="
  M 180.46 205.41
  L 179.66 206.27
  C 178.51 207.98 178.05 209.89 178.29 212.00
  C 178.32 212.31 178.26 212.63 178.12 212.91
  C 177.72 213.70 177.83 214.32 178.44 214.77
  C 178.70 214.95 178.85 215.25 178.85 215.56
  L 178.87 224.40
  L 177.32 224.29
  L 170.42 218.94
  C 172.10 219.68 173.33 219.62 174.10 218.75
  C 174.49 218.32 174.42 217.98 173.91 217.72
  L 172.64 217.09
  C 172.14 216.84 172.13 216.56 172.60 216.26
  C 173.77 215.53 174.99 215.00 176.28 214.68
  C 176.78 214.56 176.98 214.25 176.89 213.74
  L 176.85 213.49
  C 176.80 213.22 176.64 213.10 176.37 213.11
  C 175.30 213.16 174.41 213.57 173.68 214.34
  C 171.55 214.61 170.19 213.87 169.59 212.14
  L 170.07 211.16
  L 171.10 211.09
  C 171.37 211.07 171.63 210.94 171.80 210.73
  L 179.24 201.54
  C 179.41 201.33 179.73 201.29 179.95 201.45
  C 180.27 201.68 180.36 202.01 180.22 202.42
  C 179.85 203.51 179.93 204.50 180.46 205.41
  Z"
/>
<path fill="#0a8fd9" d="
  M 202.24 201.75
  C 203.89 202.00 205.54 202.57 207.18 203.46
  C 209.36 205.05 211.89 206.28 214.77 207.15
  C 214.56 207.36 214.38 207.37 214.25 207.18
  C 214.02 207.23 213.88 207.35 213.85 207.53
  C 213.83 207.65 213.88 207.80 214.01 207.97
  C 215.12 209.48 216.51 210.70 218.16 211.62
  C 218.47 211.79 218.78 211.82 219.10 211.71
  L 220.83 211.12
  C 221.16 211.01 221.46 211.05 221.73 211.26
  C 221.87 211.36 221.98 211.49 222.07 211.65
  C 222.32 212.08 222.06 212.63 221.56 212.72
  L 214.13 214.00
  L 208.21 209.39
  C 207.95 209.18 207.65 209.10 207.32 209.15
  C 206.42 209.27 205.84 209.77 205.59 210.64
  C 205.52 210.87 205.39 211.05 205.18 211.18
  C 204.45 211.63 203.91 212.24 203.56 213.00
  C 203.43 213.30 203.20 213.50 202.89 213.60
  C 200.94 214.21 198.89 214.36 196.76 214.05
  C 197.22 212.58 197.72 211.56 198.27 211.01
  C 199.50 209.78 201.44 208.27 204.11 206.50
  C 204.39 206.31 204.45 206.07 204.30 205.78
  L 202.24 201.75
  Z"
/>
<path fill="#0a8fd9" d="
  M 257.34 201.96
  L 259.37 205.10
  C 258.42 205.03 257.55 204.65 256.74 203.98
  L 256.28 202.75
  C 256.15 202.40 256.27 202.18 256.64 202.11
  L 257.34 201.96
  Z"
/>
<path fill="#0104aa" d="
  M 225.17 203.82
  C 226.19 205.75 226.13 207.59 224.98 209.34
  L 221.06 207.60
  L 219.38 206.96
  C 218.98 206.80 218.98 206.24 219.38 206.08
  L 225.17 203.82
  Z"
/>
<path fill="#013c91" d="
  M 182.68 205.54
  C 182.35 205.71 182.09 205.98 181.90 206.37
  C 181.75 206.66 181.52 206.82 181.19 206.84
  C 180.63 206.87 180.12 206.68 179.66 206.27
  L 180.46 205.41
  C 181.19 204.81 181.89 204.39 182.56 204.16
  C 182.93 204.03 183.10 204.16 183.07 204.55
  C 183.04 204.86 182.91 205.19 182.68 205.54
  Z"
/>
<path fill="#013c91" d="
  M 256.74 203.98
  C 257.55 204.65 258.42 205.03 259.37 205.10
  L 260.91 207.57
  L 260.58 208.43
  C 260.45 208.76 260.22 208.96 259.88 209.04
  L 253.95 210.44
  L 229.96 210.58
  L 241.21 206.48
  C 241.36 206.99 241.43 207.52 241.40 208.07
  C 241.39 208.39 241.48 208.43 241.69 208.19
  C 241.86 207.99 241.95 207.65 241.97 207.18
  C 242.80 206.14 245.18 204.62 246.61 205.78
  C 246.74 205.89 246.87 205.88 246.99 205.75
  C 247.45 205.27 247.99 205.06 248.62 205.13
  C 248.99 205.16 249.36 205.10 249.70 204.95
  C 251.25 204.25 252.57 204.23 253.66 204.90
  C 254.03 205.13 254.33 205.06 254.57 204.70
  C 255.00 204.05 255.72 203.81 256.74 203.98
  Z"
/>
<path fill="#48c9fe" d="
  M 241.21 206.48
  L 229.96 210.58
  C 229.40 211.05 228.82 211.92 228.22 213.19
  C 227.58 213.86 227.03 214.69 226.57 215.70
  L 224.80 219.17
  C 224.59 219.58 224.72 219.80 225.18 219.83
  C 225.44 219.85 225.64 219.97 225.79 220.18
  C 226.08 220.57 225.98 220.82 225.50 220.91
  L 224.66 221.07
  C 224.30 221.14 224.06 221.34 223.93 221.68
  C 223.34 223.31 223.17 225.03 223.44 226.84
  C 223.18 226.88 223.01 226.90 222.94 226.89
  C 222.57 226.87 222.34 227.28 222.56 227.58
  C 223.66 229.11 224.61 230.66 225.40 232.24
  C 225.59 232.61 225.82 232.63 226.09 232.32
  C 226.28 232.10 226.41 231.82 226.49 231.48
  L 229.43 234.52
  C 232.40 237.09 235.60 238.62 239.01 239.12
  C 240.51 239.34 242.51 239.93 245.00 240.90
  C 247.40 241.83 248.97 240.64 249.70 237.32
  C 249.80 237.53 249.90 237.73 249.99 237.94
  L 248.73 241.46
  C 248.55 242.49 247.99 243.11 247.06 243.31
  C 246.73 243.38 246.58 243.59 246.60 243.92
  C 246.61 244.19 246.67 244.44 246.78 244.67
  L 241.35 244.69
  C 241.07 244.69 240.81 244.61 240.57 244.45
  C 237.31 242.20 234.15 239.98 231.09 237.78
  C 227.73 235.36 224.61 232.79 221.73 230.07
  C 221.47 229.83 221.32 229.48 221.31 229.12
  C 221.20 222.64 224.93 215.43 228.13 209.70
  C 228.40 209.20 228.74 208.74 229.14 208.33
  C 229.37 208.09 229.66 207.95 229.99 207.90
  C 233.25 207.48 236.39 206.61 239.40 205.30
  C 239.89 205.08 240.29 205.04 240.59 205.17
  C 241.04 205.38 241.25 205.81 241.21 206.48
  Z
  M 242.01 241.29
  L 237.40 239.47
  C 237.34 239.45 237.27 239.48 237.24 239.54
  L 237.23 239.58
  C 236.97 240.24 237.79 241.19 239.07 241.70
  L 239.27 241.78
  C 240.55 242.28 241.80 242.15 242.07 241.48
  L 242.08 241.45
  C 242.11 241.38 242.08 241.31 242.01 241.29
  Z"
/>
<path fill="#28a5dd" d="
  M 182.68 205.54
  C 182.75 205.87 182.92 205.96 183.19 205.79
  C 183.04 206.04 182.94 206.26 182.91 206.46
  C 182.86 206.83 183.02 207.03 183.38 207.08
  C 184.56 207.23 185.61 207.89 186.82 207.80
  C 188.05 207.71 189.24 207.95 190.38 208.51
  C 190.73 208.68 190.94 208.57 191.03 208.19
  C 191.10 207.88 190.97 207.51 190.64 207.08
  C 191.01 207.03 191.13 206.96 191.01 206.87
  C 191.85 208.25 192.61 209.71 193.28 211.24
  C 193.55 211.85 193.97 212.32 194.55 212.63
  L 194.79 213.53
  C 193.99 213.26 193.84 213.79 194.35 215.13
  L 193.28 216.10
  C 193.05 215.95 192.78 215.98 192.47 216.21
  C 189.60 218.35 187.26 220.42 185.43 222.43
  C 184.97 222.98 184.40 223.50 183.73 223.98
  C 183.64 224.05 183.60 224.13 183.62 224.24
  C 183.65 224.47 183.75 224.51 183.91 224.34
  L 184.30 223.95
  C 184.69 223.56 184.92 223.64 184.99 224.19
  C 185.01 224.36 184.99 224.51 184.94 224.65
  C 184.81 224.98 184.57 225.14 184.22 225.15
  C 182.20 225.21 180.42 224.96 178.87 224.40
  L 178.85 215.56
  C 178.85 215.25 178.70 214.95 178.44 214.77
  C 177.83 214.32 177.72 213.70 178.12 212.91
  C 178.26 212.63 178.32 212.31 178.29 212.00
  C 178.05 209.89 178.51 207.98 179.66 206.27
  C 180.12 206.68 180.63 206.87 181.19 206.84
  C 181.52 206.82 181.75 206.66 181.90 206.37
  C 182.09 205.98 182.35 205.71 182.68 205.54
  Z
  M 181.2514 224.0006
  C 181.50 224.15 181.96 223.83 182.2767 223.2963
  C 182.60 222.76 182.66 222.21 182.4086 222.0594
  C 182.16 221.91 181.70 222.23 181.3833 222.7637
  C 181.06 223.30 181.00 223.85 181.2514 224.0006
  Z"
/>
<path fill="#0652a6" d="
  M 214.77 207.15
  L 220.18 209.25
  C 220.40 209.34 220.65 209.31 220.85 209.18
  C 221.30 208.89 221.37 208.37 221.06 207.60
  L 224.98 209.34
  L 221.68 217.52
  L 217.42 220.83
  C 217.17 221.02 216.92 221.03 216.66 220.85
  L 214.18 219.11
  L 212.23 216.41
  L 214.13 214.00
  L 221.56 212.72
  C 222.06 212.63 222.32 212.08 222.07 211.65
  C 221.98 211.49 221.87 211.36 221.73 211.26
  C 221.46 211.05 221.16 211.01 220.83 211.12
  L 219.10 211.71
  C 218.78 211.82 218.47 211.79 218.16 211.62
  C 216.51 210.70 215.12 209.48 214.01 207.97
  C 213.88 207.80 213.83 207.65 213.85 207.53
  C 213.88 207.35 214.02 207.23 214.25 207.18
  C 214.38 207.37 214.56 207.36 214.77 207.15
  Z"
/>
<path fill="#0652a6" d="
  M 260.91 207.57
  L 264.51 213.30
  L 253.95 210.44
  L 259.88 209.04
  C 260.22 208.96 260.45 208.76 260.58 208.43
  L 260.91 207.57
  Z"
/>
<path fill="#00dfde" d="
  M 214.13 214.00
  L 212.23 216.41
  L 204.49 225.60
  C 204.24 225.90 204.29 226.13 204.65 226.29
  C 205.75 226.78 206.93 227.17 208.19 227.46
  C 208.23 227.47 208.25 227.49 208.24 227.53
  L 208.21 227.79
  C 208.18 228.03 208.04 228.15 207.79 228.14
  C 205.88 228.05 203.82 227.35 201.61 226.04
  C 200.80 225.55 200.08 225.85 199.47 226.94
  L 198.52 226.86
  C 199.49 224.91 199.45 223.13 198.42 221.52
  L 197.06 218.98
  C 196.90 218.67 196.67 218.61 196.36 218.78
  C 195.93 219.03 195.48 219.20 194.99 219.29
  C 195.27 217.64 195.06 216.25 194.35 215.13
  C 193.84 213.79 193.99 213.26 194.79 213.53
  C 194.98 213.48 195.19 213.61 195.43 213.90
  C 195.87 214.15 196.31 214.20 196.76 214.05
  C 198.89 214.36 200.94 214.21 202.89 213.60
  C 203.20 213.50 203.43 213.30 203.56 213.00
  C 203.91 212.24 204.45 211.63 205.18 211.18
  C 205.39 211.05 205.52 210.87 205.59 210.64
  C 205.84 209.77 206.42 209.27 207.32 209.15
  C 207.65 209.10 207.95 209.18 208.21 209.39
  L 214.13 214.00
  Z"
/>
<path fill="#32a0c5" d="
  M 229.96 210.58
  L 253.95 210.44
  L 264.51 213.30
  L 269.79 221.56
  L 261.76 232.72
  C 261.56 232.99 261.31 233.06 261.01 232.91
  C 256.06 230.56 247.06 226.14 234.00 219.64
  C 233.76 218.87 233.34 218.33 232.75 218.00
  C 230.38 216.70 228.87 215.10 228.22 213.19
  C 228.82 211.92 229.40 211.05 229.96 210.58
  Z"
/>
<path fill="#73e3fc" d="
  M 169.59 212.14
  C 170.19 213.87 171.55 214.61 173.68 214.34
  C 172.73 214.90 171.65 215.24 170.46 215.35
  C 168.56 215.52 168.27 214.45 169.59 212.14
  Z"
/>
<path fill="#0652a6" d="
  M 170.42 218.94
  C 169.74 218.63 169.01 218.05 168.23 217.20
  C 169.50 216.67 170.24 216.06 170.46 215.35
  C 171.65 215.24 172.73 214.90 173.68 214.34
  C 174.41 213.57 175.30 213.16 176.37 213.11
  C 176.64 213.10 176.80 213.22 176.85 213.49
  L 176.89 213.74
  C 176.98 214.25 176.78 214.56 176.28 214.68
  C 174.99 215.00 173.77 215.53 172.60 216.26
  C 172.13 216.56 172.14 216.84 172.64 217.09
  L 173.91 217.72
  C 174.42 217.98 174.49 218.32 174.10 218.75
  C 173.33 219.62 172.10 219.68 170.42 218.94
  Z"
/>
<path fill="#0a8fd9" d="
  M 228.22 213.19
  C 228.87 215.10 230.38 216.70 232.75 218.00
  C 233.34 218.33 233.76 218.87 234.00 219.64
  C 231.19 218.76 228.71 217.45 226.57 215.70
  C 227.03 214.69 227.58 213.86 228.22 213.19
  Z"
/>
<path fill="#0652a6" d="
  M 194.35 215.13
  C 195.06 216.25 195.27 217.64 194.99 219.29
  L 195.73 225.44
  C 195.78 225.85 195.60 226.00 195.21 225.87
  C 195.02 225.82 194.82 225.67 194.61 225.42
  L 190.44 223.83
  C 190.27 223.77 190.14 223.63 190.08 223.46
  C 190.04 223.35 189.99 223.26 189.92 223.19
  C 189.60 222.86 189.40 222.92 189.31 223.37
  C 189.00 224.94 188.31 225.94 187.24 226.37
  C 186.33 225.94 185.93 224.84 186.04 223.09
  L 193.28 216.10
  L 194.35 215.13
  Z"
/>
<path fill="#0a619d" d="
  M 226.57 215.70
  C 228.71 217.45 231.19 218.76 234.00 219.64
  C 247.06 226.14 256.06 230.56 261.01 232.91
  C 261.31 233.06 261.56 232.99 261.76 232.72
  L 262.72 233.05
  C 262.62 233.12 262.56 233.20 262.53 233.29
  C 262.48 233.44 262.52 233.56 262.67 233.63
  L 273.45 238.77
  C 273.86 238.97 273.99 239.49 273.71 239.86
  C 272.61 241.29 271.11 240.70 269.58 240.91
  C 268.12 241.10 266.64 241.17 265.15 241.11
  C 265.09 241.11 265.06 241.14 265.06 241.20
  L 265.06 241.45
  C 265.07 241.60 265.14 241.67 265.28 241.67
  C 267.43 241.68 269.59 241.81 271.76 242.04
  C 272.70 242.14 273.49 241.87 274.12 241.24
  C 274.86 240.49 275.08 239.53 274.78 238.36
  C 274.15 235.95 274.40 233.47 275.52 230.90
  L 276.40 232.13
  C 275.63 232.97 275.34 233.92 275.55 234.99
  C 275.57 235.09 275.63 235.14 275.72 235.15
  C 275.84 235.16 275.94 235.13 276.02 235.04
  C 276.14 234.90 276.34 234.86 276.51 234.93
  C 276.87 235.08 277.06 235.36 277.09 235.77
  C 277.14 236.84 276.21 238.12 276.11 239.29
  C 276.07 239.76 276.26 240.09 276.68 240.30
  L 280.85 242.39
  C 281.67 242.80 281.63 243.08 280.72 243.22
  C 279.52 243.41 278.40 243.82 277.37 244.47
  C 276.96 244.73 276.99 244.86 277.48 244.87
  C 278.18 244.88 278.79 244.59 279.32 244.01
  C 279.57 243.74 279.88 243.65 280.24 243.76
  L 281.80 244.22
  C 282.39 244.84 282.69 245.45 282.70 246.04
  C 282.71 246.38 282.58 246.65 282.30 246.85
  C 281.31 247.56 280.55 248.30 280.04 249.05
  L 275.44 246.30
  C 274.95 246.01 274.99 245.84 275.55 245.77
  L 275.92 245.73
  C 276.08 245.71 276.17 245.53 276.09 245.39
  C 276.00 245.22 275.82 245.16 275.55 245.23
  L 266.05 244.27
  C 265.25 244.04 264.40 243.94 263.49 243.98
  C 262.58 244.03 261.75 243.96 261.00 243.77
  C 258.81 243.22 256.62 243.12 254.42 243.45
  C 254.03 243.51 253.87 243.35 253.92 242.96
  C 254.06 241.92 253.95 241.04 253.59 240.33
  L 256.49 238.80
  C 256.77 238.66 256.74 238.25 256.44 238.15
  C 254.32 237.43 252.17 237.36 249.99 237.94
  C 249.90 237.73 249.80 237.53 249.70 237.32
  L 229.43 234.52
  L 226.49 231.48
  L 223.44 226.84
  C 223.17 225.03 223.34 223.31 223.93 221.68
  C 224.06 221.34 224.30 221.14 224.66 221.07
  L 225.50 220.91
  C 225.98 220.82 226.08 220.57 225.79 220.18
  C 225.64 219.97 225.44 219.85 225.18 219.83
  C 224.72 219.80 224.59 219.58 224.80 219.17
  L 226.57 215.70
  Z"
/>
<path fill="#73e3fc" d="
  M 193.28 216.10
  L 186.04 223.09
  C 186.01 222.94 185.80 222.72 185.43 222.43
  C 187.26 220.42 189.60 218.35 192.47 216.21
  C 192.78 215.98 193.05 215.95 193.28 216.10
  Z"
/>
<path fill="#013c91" d="
  M 212.23 216.41
  L 214.18 219.11
  C 214.65 219.98 215.16 220.61 215.72 221.00
  C 216.28 221.39 216.30 221.81 215.77 222.24
  L 211.06 226.12
  C 210.35 226.71 210.42 226.83 211.27 226.49
  L 217.95 223.82
  C 217.99 224.54 217.66 225.25 216.95 225.94
  C 215.35 227.61 213.45 228.51 211.26 228.65
  C 209.17 228.78 207.31 229.15 205.67 229.76
  C 203.98 229.18 202.15 228.49 200.16 227.69
  C 199.98 227.62 199.84 227.52 199.75 227.40
  C 199.65 227.26 199.56 227.11 199.47 226.94
  C 200.08 225.85 200.80 225.55 201.61 226.04
  C 203.82 227.35 205.88 228.05 207.79 228.14
  C 208.04 228.15 208.18 228.03 208.21 227.79
  L 208.24 227.53
  C 208.25 227.49 208.23 227.47 208.19 227.46
  C 206.93 227.17 205.75 226.78 204.65 226.29
  C 204.29 226.13 204.24 225.90 204.49 225.60
  L 212.23 216.41
  Z"
/>
<path fill="#00dfde" d="
  M 221.68 217.52
  L 219.37 227.13
  C 219.30 226.04 218.92 225.66 218.23 225.99
  L 219.07 224.98
  C 219.29 224.71 219.35 224.41 219.25 224.08
  C 218.92 223.05 218.49 222.97 217.95 223.82
  L 211.27 226.49
  C 210.42 226.83 210.35 226.71 211.06 226.12
  L 215.77 222.24
  C 216.30 221.81 216.28 221.39 215.72 221.00
  C 215.16 220.61 214.65 219.98 214.18 219.11
  L 216.66 220.85
  C 216.92 221.03 217.17 221.02 217.42 220.83
  L 221.68 217.52
  Z"
/>
<path fill="#1fb7e1" d="
  M 198.42 221.52
  C 196.80 222.21 196.51 223.97 197.54 226.81
  C 194.85 227.40 192.07 227.27 189.22 226.41
  C 189.89 225.34 191.15 225.08 192.99 225.63
  C 193.51 225.78 194.05 225.71 194.61 225.42
  C 194.82 225.67 195.02 225.82 195.21 225.87
  C 195.60 226.00 195.78 225.85 195.73 225.44
  L 194.99 219.29
  C 195.48 219.20 195.93 219.03 196.36 218.78
  C 196.67 218.61 196.90 218.67 197.06 218.98
  L 198.42 221.52
  Z"
/>
<path fill="#0652a6" d="
  M 198.42 221.52
  C 199.45 223.13 199.49 224.91 198.52 226.86
  C 198.21 226.91 197.89 226.89 197.54 226.81
  C 196.51 223.97 196.80 222.21 198.42 221.52
  Z"
/>
<ellipse fill="#45b4f8" cx="0.00" cy="0.00" transform="translate(181.83,223.03) rotate(120.8)" rx="1.13" ry="0.52"/>
<path fill="#0652a6" d="
  M 269.79 221.56
  L 273.92 228.34
  L 262.72 233.05
  L 261.76 232.72
  L 269.79 221.56
  Z"
/>
<path fill="#73e3fc" d="
  M 194.61 225.42
  C 194.05 225.71 193.51 225.78 192.99 225.63
  C 191.15 225.08 189.89 225.34 189.22 226.41
  C 188.54 226.78 187.88 226.76 187.24 226.37
  C 188.31 225.94 189.00 224.94 189.31 223.37
  C 189.40 222.92 189.60 222.86 189.92 223.19
  C 189.99 223.26 190.04 223.35 190.08 223.46
  C 190.14 223.63 190.27 223.77 190.44 223.83
  L 194.61 225.42
  Z"
/>
<path fill="#73e3fc" d="
  M 218.23 225.99
  L 217.43 226.53
  C 217.16 226.70 216.99 226.64 216.92 226.33
  C 216.90 226.22 216.91 226.09 216.95 225.94
  C 217.66 225.25 217.99 224.54 217.95 223.82
  C 218.49 222.97 218.92 223.05 219.25 224.08
  C 219.35 224.41 219.29 224.71 219.07 224.98
  L 218.23 225.99
  Z"
/>
<path fill="#0a8fd9" d="
  M 216.95 225.94
  C 216.91 226.09 216.90 226.22 216.92 226.33
  C 216.99 226.64 217.16 226.70 217.43 226.53
  L 218.23 225.99
  C 218.92 225.66 219.30 226.04 219.37 227.13
  C 216.27 230.23 211.70 231.11 205.67 229.76
  C 207.31 229.15 209.17 228.78 211.26 228.65
  C 213.45 228.51 215.35 227.61 216.95 225.94
  Z"
/>
<path fill="#48c9fe" d="
  M 186.93 228.29
  C 186.50 229.66 187.02 230.98 188.47 232.25
  C 188.64 232.40 188.81 232.42 188.99 232.33
  C 189.20 232.22 189.39 232.26 189.56 232.43
  C 190.03 232.91 190.18 233.45 190.01 234.05
  L 180.63 227.05
  C 182.81 226.84 184.91 227.26 186.93 228.29
  Z"
/>
<path fill="#73e3fc" d="
  M 223.44 226.84
  L 226.49 231.48
  C 226.41 231.82 226.28 232.10 226.09 232.32
  C 225.82 232.63 225.59 232.61 225.40 232.24
  C 224.61 230.66 223.66 229.11 222.56 227.58
  C 222.34 227.28 222.57 226.87 222.94 226.89
  C 223.01 226.90 223.18 226.88 223.44 226.84
  Z"
/>
<path fill="#013c91" d="
  M 186.93 228.29
  L 188.28 228.49
  C 188.61 228.54 188.80 228.72 188.85 229.05
  L 189.30 231.67
  C 189.37 232.06 189.54 232.12 189.81 231.83
  C 189.92 231.72 189.99 231.59 190.02 231.45
  C 190.12 231.01 190.32 230.96 190.61 231.31
  C 190.92 231.68 191.23 232.02 191.56 232.33
  C 191.82 232.58 192.09 232.58 192.37 232.35
  C 192.63 232.12 192.85 231.81 193.04 231.44
  C 193.79 232.40 195.05 232.95 196.81 233.10
  C 196.79 233.41 196.82 233.68 196.89 233.91
  C 197.00 234.28 197.21 234.34 197.52 234.11
  C 198.09 233.67 198.58 233.12 198.98 232.46
  C 200.88 231.85 202.48 232.10 203.79 233.19
  C 200.26 235.15 196.64 236.20 192.92 236.35
  L 190.01 234.05
  C 190.18 233.45 190.03 232.91 189.56 232.43
  C 189.39 232.26 189.20 232.22 188.99 232.33
  C 188.81 232.42 188.64 232.40 188.47 232.25
  C 187.02 230.98 186.50 229.66 186.93 228.29
  Z"
/>
<path fill="#48c9fe" d="
  M 273.92 228.34
  C 274.59 229.09 275.12 229.94 275.52 230.90
  C 274.40 233.47 274.15 235.95 274.78 238.36
  C 275.08 239.53 274.86 240.49 274.12 241.24
  C 273.49 241.87 272.70 242.14 271.76 242.04
  C 269.59 241.81 267.43 241.68 265.28 241.67
  C 265.14 241.67 265.07 241.60 265.06 241.45
  L 265.06 241.20
  C 265.06 241.14 265.09 241.11 265.15 241.11
  C 266.64 241.17 268.12 241.10 269.58 240.91
  C 271.11 240.70 272.61 241.29 273.71 239.86
  C 273.99 239.49 273.86 238.97 273.45 238.77
  L 262.67 233.63
  C 262.52 233.56 262.48 233.44 262.53 233.29
  C 262.56 233.20 262.62 233.12 262.72 233.05
  L 273.92 228.34
  Z"
/>
<path fill="#0a8fd9" d="
  M 204.31 232.02
  C 204.42 232.47 204.25 232.86 203.79 233.19
  C 202.48 232.10 200.88 231.85 198.98 232.46
  C 198.59 231.81 198.02 231.51 197.27 231.56
  C 196.91 231.58 196.70 231.77 196.64 232.12
  C 196.58 232.46 196.64 232.79 196.81 233.10
  C 195.05 232.95 193.79 232.40 193.04 231.44
  C 194.39 230.33 193.66 230.03 190.83 230.52
  C 190.49 230.57 190.22 230.46 190.01 230.19
  C 189.80 229.89 189.73 229.52 189.81 229.08
  C 189.89 228.64 190.32 228.36 190.75 228.45
  C 192.09 228.72 193.43 228.85 194.78 228.83
  C 195.93 228.81 197.19 229.11 198.58 229.72
  C 200.46 230.55 202.37 231.31 204.31 232.02
  Z"
/>
<path fill="#48c9fe" d="
  M 227.69 237.75
  L 218.75 233.84
  L 212.36 231.55
  C 213.90 231.16 215.39 230.95 216.82 230.90
  C 218.19 230.86 219.51 231.30 220.80 232.22
  C 223.09 233.84 225.38 235.68 227.69 237.75
  Z"
/>
<path fill="#48c9fe" d="
  M 198.98 232.46
  C 198.58 233.12 198.09 233.67 197.52 234.11
  C 197.21 234.34 197.00 234.28 196.89 233.91
  C 196.82 233.68 196.79 233.41 196.81 233.10
  C 196.64 232.79 196.58 232.46 196.64 232.12
  C 196.70 231.77 196.91 231.58 197.27 231.56
  C 198.02 231.51 198.59 231.81 198.98 232.46
  Z"
/>
<path fill="#0a8fd9" d="
  M 212.36 231.55
  L 218.75 233.84
  C 218.72 233.98 218.62 234.05 218.45 234.06
  C 218.29 234.07 218.16 234.18 218.11 234.33
  C 218.05 234.53 218.12 234.65 218.32 234.68
  C 216.28 234.33 214.34 234.02 212.49 233.77
  C 211.44 233.62 210.31 234.34 209.08 235.91
  C 208.87 236.18 208.75 236.48 208.72 236.82
  L 208.64 237.89
  C 208.59 238.44 208.49 238.45 208.34 237.92
  C 208.01 236.80 208.03 235.75 208.39 234.77
  C 209.18 234.52 209.92 234.13 210.60 233.58
  C 210.86 233.37 210.83 233.24 210.50 233.18
  L 208.26 232.74
  C 208.10 232.51 208.11 232.17 208.30 231.70
  L 212.36 231.55
  Z"
/>
<path fill="#00dfde" d="
  M 208.30 231.70
  C 208.11 232.17 208.10 232.51 208.26 232.74
  C 207.13 232.39 207.18 233.06 208.39 234.77
  C 208.03 235.75 208.01 236.80 208.34 237.92
  C 208.49 238.45 208.59 238.44 208.64 237.89
  L 208.72 236.82
  C 208.75 236.48 208.87 236.18 209.08 235.91
  C 210.31 234.34 211.44 233.62 212.49 233.77
  C 214.34 234.02 216.28 234.33 218.32 234.68
  L 221.98 251.61
  L 210.26 246.16
  C 209.96 246.03 209.65 246.00 209.34 246.08
  L 208.57 246.27
  C 208.32 245.73 208.09 245.56 207.89 245.76
  C 207.35 245.15 207.19 244.58 207.40 244.03
  C 207.51 243.74 207.42 243.63 207.12 243.72
  C 206.57 243.87 206.17 244.18 205.93 244.66
  C 205.24 244.71 204.86 244.41 204.79 243.76
  C 204.53 241.19 204.53 238.10 204.80 234.50
  C 204.81 234.41 204.77 234.37 204.69 234.37
  L 204.38 234.37
  C 204.24 234.37 204.15 234.44 204.12 234.58
  C 203.57 236.96 203.31 239.36 203.36 241.78
  C 203.39 242.91 202.52 243.25 200.76 242.81
  L 192.92 236.35
  C 196.64 236.20 200.26 235.15 203.79 233.19
  C 204.25 232.86 204.42 232.47 204.31 232.02
  C 204.95 232.41 205.39 232.53 205.62 232.37
  C 206.53 231.77 207.42 231.55 208.30 231.70
  Z
  M 210.6140 243.6275
  C 210.72 243.26 210.40 242.85 209.8990 242.7064
  C 209.40 242.56 208.91 242.75 208.8060 243.1125
  C 208.70 243.48 209.02 243.89 209.5210 244.0336
  C 210.02 244.18 210.51 243.99 210.6140 243.6275
  Z"
/>
<path fill="#48c9fe" d="
  M 276.40 232.13
  L 283.36 243.23
  C 283.07 243.55 282.55 243.88 281.80 244.22
  L 280.24 243.76
  C 279.88 243.65 279.57 243.74 279.32 244.01
  C 278.79 244.59 278.18 244.88 277.48 244.87
  C 276.99 244.86 276.96 244.73 277.37 244.47
  C 278.40 243.82 279.52 243.41 280.72 243.22
  C 281.63 243.08 281.67 242.80 280.85 242.39
  L 276.68 240.30
  C 276.26 240.09 276.07 239.76 276.11 239.29
  C 276.21 238.12 277.14 236.84 277.09 235.77
  C 277.06 235.36 276.87 235.08 276.51 234.93
  C 276.34 234.86 276.14 234.90 276.02 235.04
  C 275.94 235.13 275.84 235.16 275.72 235.15
  C 275.63 235.14 275.57 235.09 275.55 234.99
  C 275.34 233.92 275.63 232.97 276.40 232.13
  Z"
/>
<path fill="#ecfefd" d="
  M 208.26 232.74
  L 210.50 233.18
  C 210.83 233.24 210.86 233.37 210.60 233.58
  C 209.92 234.13 209.18 234.52 208.39 234.77
  C 207.18 233.06 207.13 232.39 208.26 232.74
  Z"
/>
<path fill="#013c91" d="
  M 218.75 233.84
  L 227.69 237.75
  L 234.90 242.99
  L 237.65 246.69
  C 237.85 246.96 237.94 247.26 237.93 247.59
  C 237.90 248.13 237.69 248.57 237.30 248.92
  C 234.47 250.08 231.78 251.37 229.23 252.78
  C 228.71 253.07 228.14 253.17 227.51 253.09
  L 221.98 251.61
  L 218.32 234.68
  C 218.12 234.65 218.05 234.53 218.11 234.33
  C 218.16 234.18 218.29 234.07 218.45 234.06
  C 218.62 234.05 218.72 233.98 218.75 233.84
  Z"
/>
<path fill="#28a5dd" d="
  M 205.93 244.66
  C 206.78 245.96 207.43 246.33 207.89 245.76
  C 208.09 245.56 208.32 245.73 208.57 246.27
  L 214.35 252.69
  C 214.56 252.93 214.83 253.07 215.16 253.11
  C 215.69 253.16 215.96 253.36 215.99 253.70
  C 215.90 253.65 215.81 253.62 215.73 253.63
  C 215.58 253.65 215.51 253.73 215.52 253.88
  C 215.57 254.56 216.21 255.10 217.43 255.51
  C 216.64 255.80 216.30 256.05 216.41 256.26
  L 200.76 242.81
  C 202.52 243.25 203.39 242.91 203.36 241.78
  C 203.31 239.36 203.57 236.96 204.12 234.58
  C 204.15 234.44 204.24 234.37 204.38 234.37
  L 204.69 234.37
  C 204.77 234.37 204.81 234.41 204.80 234.50
  C 204.53 238.10 204.53 241.19 204.79 243.76
  C 204.86 244.41 205.24 244.71 205.93 244.66
  Z"
/>
<path fill="#013c91" d="
  M 249.70 237.32
  C 248.97 240.64 247.40 241.83 245.00 240.90
  C 242.51 239.93 240.51 239.34 239.01 239.12
  C 235.60 238.62 232.40 237.09 229.43 234.52
  L 249.70 237.32
  Z"
/>
<path fill="#013c91" d="
  M 253.59 240.33
  L 252.91 241.13
  C 251.91 241.36 250.91 241.79 249.90 242.40
  C 249.51 242.65 249.23 242.69 249.07 242.53
  C 248.89 242.36 248.78 242.00 248.73 241.46
  L 249.99 237.94
  C 252.17 237.36 254.32 237.43 256.44 238.15
  C 256.74 238.25 256.77 238.66 256.49 238.80
  L 253.59 240.33
  Z"
/>
<path fill="#73e3fc" d="
  M 242.01 241.29
  C 242.08 241.31 242.11 241.38 242.08 241.45
  L 242.07 241.48
  C 241.80 242.15 240.55 242.28 239.27 241.78
  L 239.07 241.70
  C 237.79 241.19 236.97 240.24 237.23 239.58
  L 237.24 239.54
  C 237.27 239.48 237.34 239.45 237.40 239.47
  L 242.01 241.29
  Z"
/>
<path fill="#0a8fd9" d="
  M 252.91 241.13
  C 253.02 241.95 252.98 242.61 252.77 243.10
  C 252.64 243.43 252.40 243.62 252.05 243.69
  L 246.78 244.67
  C 246.67 244.44 246.61 244.19 246.60 243.92
  C 246.58 243.59 246.73 243.38 247.06 243.31
  C 247.99 243.11 248.55 242.49 248.73 241.46
  C 248.78 242.00 248.89 242.36 249.07 242.53
  C 249.23 242.69 249.51 242.65 249.90 242.40
  C 250.91 241.79 251.91 241.36 252.91 241.13
  Z"
/>
<ellipse fill="#0652a6" cx="0.00" cy="0.00" transform="translate(209.71,243.37) rotate(15.9)" rx="0.94" ry="0.69"/>
<path fill="#00dfde" d="
  M 234.90 242.99
  C 236.34 243.52 239.08 245.19 239.84 247.03
  C 239.99 247.39 239.97 247.87 239.80 248.48
  C 238.74 252.19 237.68 255.87 236.63 259.54
  L 223.15 261.79
  C 222.82 261.84 222.53 261.77 222.28 261.56
  L 221.71 261.11
  C 223.43 261.22 224.34 260.60 224.43 259.26
  C 224.46 258.90 224.34 258.60 224.07 258.35
  C 223.93 258.21 223.82 258.05 223.75 257.86
  C 223.50 257.21 223.62 257.14 224.10 257.65
  C 224.59 258.16 224.77 258.75 224.64 259.41
  C 224.48 260.19 225.14 260.88 225.93 260.77
  C 227.82 260.50 229.76 260.20 231.75 259.86
  C 233.95 259.49 235.31 258.30 235.83 256.28
  L 237.30 248.92
  C 237.69 248.57 237.90 248.13 237.93 247.59
  C 237.94 247.26 237.85 246.96 237.65 246.69
  L 234.90 242.99
  Z"
/>
<path fill="#0652a6" d="
  M 283.36 243.23
  L 287.95 250.49
  C 288.12 250.75 287.96 251.10 287.65 251.15
  L 266.57 254.42
  C 270.84 252.97 275.07 251.71 279.26 250.64
  C 279.72 250.52 279.98 249.99 280.04 249.05
  C 280.55 248.30 281.31 247.56 282.30 246.85
  C 282.58 246.65 282.71 246.38 282.70 246.04
  C 282.69 245.45 282.39 244.84 281.80 244.22
  C 282.55 243.88 283.07 243.55 283.36 243.23
  Z"
/>
<path fill="#0652a6" d="
  M 207.89 245.76
  C 207.43 246.33 206.78 245.96 205.93 244.66
  C 206.17 244.18 206.57 243.87 207.12 243.72
  C 207.42 243.63 207.51 243.74 207.40 244.03
  C 207.19 244.58 207.35 245.15 207.89 245.76
  Z"
/>
<path fill="#73e3fc" d="
  M 266.05 244.27
  L 275.55 245.23
  C 272.05 246.25 268.62 246.08 265.26 244.71
  C 265.75 244.68 266.02 244.54 266.05 244.27
  Z"
/>
<path fill="#0652a6" d="
  M 263.93 244.96
  C 264.10 245.08 264.29 245.14 264.49 245.14
  C 264.57 245.13 264.61 245.17 264.61 245.25
  C 264.61 245.36 264.65 245.45 264.74 245.53
  C 264.84 245.63 264.77 245.80 264.63 245.81
  C 263.30 245.86 262.02 245.90 260.77 245.94
  C 259.56 245.98 258.40 246.35 257.28 247.06
  C 256.94 247.27 256.57 247.35 256.18 247.29
  C 255.31 247.16 254.53 247.31 253.82 247.74
  C 253.44 247.97 253.34 248.29 253.51 248.70
  C 253.98 249.81 254.13 251.03 253.94 252.35
  C 253.87 252.78 253.93 253.20 254.10 253.61
  L 254.61 254.83
  C 254.70 255.04 254.63 255.14 254.40 255.13
  L 254.06 255.13
  C 253.95 255.12 253.88 255.07 253.84 254.97
  C 252.77 251.78 250.91 249.53 248.26 248.24
  C 247.85 248.04 247.86 247.87 248.29 247.72
  C 248.53 247.64 248.84 247.66 249.23 247.78
  L 251.60 249.01
  L 253.02 245.73
  C 256.63 244.84 260.27 244.58 263.93 244.96
  Z"
/>
<path fill="#32a0c5" d="
  M 265.26 244.71
  C 268.62 246.08 272.05 246.25 275.55 245.23
  C 275.82 245.16 276.00 245.22 276.09 245.39
  C 276.17 245.53 276.08 245.71 275.92 245.73
  L 275.55 245.77
  C 274.99 245.84 274.95 246.01 275.44 246.30
  L 280.04 249.05
  C 279.98 249.99 279.72 250.52 279.26 250.64
  C 275.07 251.71 270.84 252.97 266.57 254.42
  L 240.92 258.80
  C 241.98 255.97 241.92 253.77 240.75 252.20
  C 241.04 251.08 241.81 249.86 243.06 248.55
  C 245.77 247.18 246.47 246.53 245.14 246.60
  C 247.61 245.79 250.23 245.50 253.02 245.73
  L 251.60 249.01
  C 251.47 247.47 250.70 246.85 249.27 247.14
  C 248.94 247.21 248.92 247.43 249.23 247.78
  C 248.84 247.66 248.53 247.64 248.29 247.72
  C 247.86 247.87 247.85 248.04 248.26 248.24
  C 250.91 249.53 252.77 251.78 253.84 254.97
  C 253.88 255.07 253.95 255.12 254.06 255.13
  L 254.40 255.13
  C 254.63 255.14 254.70 255.04 254.61 254.83
  L 254.10 253.61
  C 253.93 253.20 253.87 252.78 253.94 252.35
  C 254.13 251.03 253.98 249.81 253.51 248.70
  C 253.34 248.29 253.44 247.97 253.82 247.74
  C 254.53 247.31 255.31 247.16 256.18 247.29
  C 256.57 247.35 256.94 247.27 257.28 247.06
  C 258.40 246.35 259.56 245.98 260.77 245.94
  C 262.02 245.90 263.30 245.86 264.63 245.81
  C 264.77 245.80 264.84 245.63 264.74 245.53
  C 264.65 245.45 264.61 245.36 264.61 245.25
  C 264.61 245.17 264.57 245.13 264.49 245.14
  C 264.29 245.14 264.10 245.08 263.93 244.96
  C 264.36 244.79 264.81 244.70 265.26 244.71
  Z"
/>
<path fill="#48c9fe" d="
  M 221.98 251.61
  L 227.51 253.09
  C 227.72 253.15 227.81 253.36 227.78 253.71
  L 219.19 258.90
  L 216.41 256.26
  C 216.30 256.05 216.64 255.80 217.43 255.51
  L 218.94 254.96
  C 219.28 254.84 219.37 254.39 219.11 254.14
  L 218.85 253.89
  C 218.54 253.59 218.19 253.54 217.81 253.74
  C 217.34 253.99 216.73 253.97 215.99 253.70
  C 215.96 253.36 215.69 253.16 215.16 253.11
  C 214.83 253.07 214.56 252.93 214.35 252.69
  L 208.57 246.27
  L 209.34 246.08
  C 209.65 246.00 209.96 246.03 210.26 246.16
  L 221.98 251.61
  Z"
/>
<path fill="#00dfde" d="
  M 245.14 246.60
  C 246.47 246.53 245.77 247.18 243.06 248.55
  C 242.81 248.32 242.55 248.25 242.28 248.32
  C 242.09 248.37 242.01 248.30 242.04 248.10
  C 242.06 247.96 242.08 247.83 242.09 247.70
  C 242.10 247.55 242.16 247.41 242.26 247.29
  C 242.97 246.43 243.93 246.20 245.14 246.60
  Z"
/>
<path fill="#73e3fc" d="
  M 251.60 249.01
  L 249.23 247.78
  C 248.92 247.43 248.94 247.21 249.27 247.14
  C 250.70 246.85 251.47 247.47 251.60 249.01
  Z"
/>
<path fill="#32a0c5" d="
  M 237.30 248.92
  L 235.83 256.28
  L 227.78 253.71
  C 227.81 253.36 227.72 253.15 227.51 253.09
  C 228.14 253.17 228.71 253.07 229.23 252.78
  C 231.78 251.37 234.47 250.08 237.30 248.92
  Z"
/>
<path fill="#48c9fe" d="
  M 240.75 252.20
  C 241.92 253.77 241.98 255.97 240.92 258.80
  C 240.57 258.95 239.91 259.03 238.93 259.02
  C 238.76 256.43 239.36 254.16 240.75 252.20
  Z"
/>
<path fill="#0652a6" d="
  M 215.99 253.70
  C 216.73 253.97 217.34 253.99 217.81 253.74
  C 218.19 253.54 218.54 253.59 218.85 253.89
  L 219.11 254.14
  C 219.37 254.39 219.28 254.84 218.94 254.96
  L 217.43 255.51
  C 216.21 255.10 215.57 254.56 215.52 253.88
  C 215.51 253.73 215.58 253.65 215.73 253.63
  C 215.81 253.62 215.90 253.65 215.99 253.70
  Z"
/>
<path fill="#013c91" d="
  M 227.78 253.71
  L 235.83 256.28
  C 235.31 258.30 233.95 259.49 231.75 259.86
  C 229.76 260.20 227.82 260.50 225.93 260.77
  C 225.14 260.88 224.48 260.19 224.64 259.41
  C 224.77 258.75 224.59 258.16 224.10 257.65
  C 223.62 257.14 223.50 257.21 223.75 257.86
  C 223.82 258.05 223.93 258.21 224.07 258.35
  C 224.34 258.60 224.46 258.90 224.43 259.26
  C 224.34 260.60 223.43 261.22 221.71 261.11
  L 219.19 258.90
  L 227.78 253.71
  Z"
/>
</svg>
