<?xml version="1.0" encoding="UTF-8"?>
<!DOCTYPE svg PUBLIC "-//W3C//DTD SVG 1.1//EN" "http://www.w3.org/Graphics/SVG/1.1/DTD/svg11.dtd">
<!-- Creator: CorelDRAW -->
<svg xmlns="http://www.w3.org/2000/svg" xml:space="preserve" width="189.646mm" height="177.598mm" version="1.1" style="shape-rendering:geometricPrecision; text-rendering:geometricPrecision; image-rendering:optimizeQuality; fill-rule:evenodd; clip-rule:evenodd"
viewBox="0 0 18964.64 17759.8"
 xmlns:xlink="http://www.w3.org/1999/xlink"
 xmlns:xodm="http://www.corel.com/coreldraw/odm/2003">
 <defs>
  <style type="text/css">
   <![CDATA[
    .fil0 {fill:black}
    .fil3 {fill:#030003}
    .fil2 {fill:#260424}
    .fil4 {fill:#8C8989}
    .fil1 {fill:#FD0300}
   ]]>
  </style>
 </defs>
 <g id="Слой_x0020_1">
  <metadata id="CorelCorpID_0Corel-Layer"/>
  <path class="fil0" d="M17400.34 15441.18l-273.16 -367.29c-775.08,-1031.33 -1545.28,-2090.85 -2319.65,-3123.52 -643.28,-928.04 -321.85,-835.91 -1934.58,-701.1 -560.3,29.82 -1125.09,74.35 -1686.93,108.85 -629.61,35.16 -1256.9,83 -1888.26,116.97l-1765.77 111.4c-45.13,9.08 -50.72,28.2 -79.91,48.17 -88.34,-24.97 -775.23,-439.4 -855.72,-490.8 -605.93,-386.94 -1013.64,-683.53 -1555.86,-1136.26 -1063.57,-888.03 -2085.73,-2046.28 -2743.71,-3310.39 -229.54,-441.01 -445.3,-975.37 -557.47,-1464.72 -77.13,-336.42 -161.27,-835.75 -118.95,-1207.73 22.62,-198.86 33.13,-394.59 84.92,-583.87 142.84,-522.07 354.15,-919.64 743.47,-1280.61 621.59,-576.29 1534.6,-865.03 2471.5,-888.83 228.12,-5.79 445.3,5.89 669.15,4.74 227.74,-1.16 421.76,13.76 643.33,28.93 127.34,8.73 555.76,58.2 615.39,56.07 -41.99,-61.32 -790.65,-262.73 -931.54,-288.91 -354.41,-65.85 -781.96,-76.45 -1165.38,-70.2 -737.43,12.02 -1440.37,169.15 -2015.33,446.26 -565.36,272.49 -992.42,659.55 -1300.07,1164.55 -444.42,729.51 -532.7,1627.41 -361.22,2553.81 201.16,1086.78 718.89,2080.06 1334.73,2984.18 624.38,916.64 1523.92,1854.46 2372.85,2563.62 926.64,774.08 2184.7,1613.04 3393.45,2143.19 78.81,34.57 142.94,63.91 213.23,92.74 99.44,40.78 99.49,56.27 168.89,143.13l2576.15 3225.62c313.1,439.79 283.92,450.1 1015.3,393.58 415.93,-32.16 837.4,-69.64 1254.58,-97.11 369.67,-24.35 759.02,-65.37 1135.22,-89.13 752.34,-47.51 1534.43,-124.57 2294.2,-176.9 1331.42,-91.71 1233.26,-91.08 567.15,-908.44z"/>
  <path class="fil0" d="M8292.44 12771.06c-57.29,-8.93 -414.25,-188.48 -493.45,-223.43 -46.1,-20.35 -68.87,-38.75 -116.44,-59.88l-356.9 -185.78c-271.97,-145.85 -525.11,-302.5 -788.39,-463.11 -21.36,-13.03 -43.45,-20.93 -61.03,-33.76l-271.79 -176.94c-228.22,-150.11 -727.52,-500.02 -938.93,-677.93 -34.04,-28.65 -69.07,-50.5 -105.66,-80.94 -132.31,-110.11 -267.48,-214.48 -394.15,-324.94 -124.56,-108.62 -259.05,-230.27 -378.11,-333.64 -168.29,-146.11 -565.41,-542.17 -724.19,-714.73 -421.47,-458.02 -610.13,-671.3 -985.27,-1173.27 -74.54,-99.75 -233.16,-322.1 -294.25,-427.36 -18.06,-31.12 -48.35,-68.05 -71.56,-104.62 -90.76,-142.98 -267.04,-422.62 -335.29,-563.04 -14.67,-30.18 -44.43,-79.66 -63.86,-113.1 -97.38,-167.67 -208.57,-437.48 -294.03,-602.65 -19.1,-36.92 -33.53,-86.23 -50.28,-129.85 -101.22,-263.55 -152.3,-369.33 -237.07,-657.17 -28.05,-95.23 -58.73,-180.26 -77.15,-287.2 -41.95,-243.51 -70.54,-335.73 -107.38,-616.07 -72.21,-549.41 -30.47,-1074.92 134.24,-1603.69 124.93,-401.1 402.39,-812.4 694.93,-1098.05 447.5,-436.98 1035.19,-716.87 1655.09,-859.54 101.6,-23.38 203.84,-38.12 303.44,-60.56l310.92 -43.95c265.56,-30.6 716.11,-42.26 996.67,-23.13l44.36 12.4c-272.73,0.83 -1006.61,25.35 -1277.58,113.23 -88.73,28.77 -190.12,46.19 -275.19,70.64 -595.03,171 -1107.63,447.61 -1525.73,904.24 -99.37,108.52 -214.59,257.91 -297.95,396.2 -300.02,497.74 -422.54,1045.42 -417.55,1664.02 1.69,210.32 22.31,440.26 64.33,627.35 42.26,188.17 65.29,388.07 126.77,567.5 29.99,87.53 47.68,183.76 79.6,270.63 29.91,81.4 61.83,165.57 93.24,251.72 28.88,79.19 63.59,170.76 99.24,249.63 17.94,39.68 33.21,75.56 51.14,118.92l173.97 347.37c93.32,174.28 126.97,260.2 245.06,450.51l132.23 215.34c20.78,35.72 44.46,72.81 66.78,102.73l211.08 313.38c492.54,688.21 721.58,927.56 1270.86,1506.34 170.08,179.22 632.55,604.36 808.77,748.28 32.24,26.34 67.55,53.52 99.06,79.8 68.05,56.76 121.78,100.99 191.15,155.96 602.31,477.31 970.4,729.87 1637.61,1138.54 66.47,40.71 143.59,84.89 221.09,126.45 72.79,39.03 155.85,80.84 224.44,122.84 73.06,44.74 149.54,82.76 226.86,120.53 46.23,22.58 127.21,138.76 162.56,184.41 71.35,92.12 598.28,733.49 613.69,779.37z"/>
  <path class="fil0" d="M17528.78 16117.17l-4690.84 -2061.89 -878.63 1761.58c2.97,39.06 79.18,73.39 107.81,92.08 172.58,112.66 610.9,374.17 790.87,462.22l121.41 56.46c1124.9,-68.21 4511.4,-308.31 4549.38,-310.45z"/>
  <path class="fil0" d="M7907.76 11767.44l3623.61 1586.79c77.63,33.78 1202.05,534.69 1246.24,542.04l863.05 -1725.26c4.08,-43.72 -27.63,-54.18 -95.93,-110.31l-844.7 -620.01c-274.24,17.16 -2420.87,149.71 -4792.27,326.75z"/>
  <path class="fil1" d="M8292.44 12771.06c-15.41,-45.88 -542.34,-687.25 -613.69,-779.37 -35.35,-45.65 -116.33,-161.83 -162.56,-184.41 -77.32,-37.77 -153.8,-75.79 -226.86,-120.53 -68.59,-42 -151.65,-83.81 -224.44,-122.84 -77.5,-41.56 -154.62,-85.74 -221.09,-126.45 -667.21,-408.67 -1035.3,-661.23 -1637.61,-1138.54 -69.37,-54.97 -123.1,-99.2 -191.15,-155.96 -31.51,-26.28 -66.82,-53.46 -99.06,-79.8 -176.22,-143.92 -638.69,-569.06 -808.77,-748.28 -549.28,-578.78 -778.32,-818.13 -1270.86,-1506.34l-211.08 -313.38c-22.32,-29.92 -46,-67.01 -66.78,-102.73l-132.23 -215.34c-118.09,-190.31 -151.74,-276.23 -245.06,-450.51l-173.97 -347.37c-17.93,-43.36 -33.2,-79.24 -51.14,-118.92 -35.65,-78.87 -70.36,-170.44 -99.24,-249.63 -31.41,-86.15 -63.33,-170.32 -93.24,-251.72 -31.92,-86.87 -49.61,-183.1 -79.6,-270.63 -61.48,-179.43 -84.51,-379.33 -126.77,-567.5 -42.02,-187.09 -62.64,-417.03 -64.33,-627.35 -4.99,-618.6 117.53,-1166.28 417.55,-1664.02 83.36,-138.29 198.58,-287.68 297.95,-396.2 418.1,-456.63 930.7,-733.24 1525.73,-904.24 85.07,-24.45 186.46,-41.87 275.19,-70.64 270.97,-87.88 1004.85,-112.4 1277.58,-113.23l-44.36 -12.4c-280.56,-19.13 -731.11,-7.47 -996.67,23.13l-310.92 43.95c-99.6,22.44 -201.84,37.18 -303.44,60.56 -619.9,142.67 -1207.59,422.56 -1655.09,859.54 -292.54,285.65 -570,696.95 -694.93,1098.05 -164.71,528.77 -206.45,1054.28 -134.24,1603.69 36.84,280.34 65.43,372.56 107.38,616.07 18.42,106.94 49.1,191.97 77.15,287.2 84.77,287.84 135.85,393.62 237.07,657.17 16.75,43.62 31.18,92.93 50.28,129.85 85.46,165.17 196.65,434.98 294.03,602.65 19.43,33.44 49.19,82.92 63.86,113.1 68.25,140.42 244.53,420.06 335.29,563.04 23.21,36.57 53.5,73.5 71.56,104.62 61.09,105.26 219.71,327.61 294.25,427.36 375.14,501.97 563.8,715.25 985.27,1173.27 158.78,172.56 555.9,568.62 724.19,714.73 119.06,103.37 253.55,225.02 378.11,333.64 126.67,110.46 261.84,214.83 394.15,324.94 36.59,30.44 71.62,52.29 105.66,80.94 211.41,177.91 710.71,527.82 938.93,677.93l271.79 176.94c17.58,12.83 39.67,20.73 61.03,33.76 263.28,160.61 516.42,317.26 788.39,463.11l356.9 185.78c47.57,21.13 70.34,39.53 116.44,59.88 79.2,34.95 436.16,214.5 493.45,223.43z"/>
  <path class="fil2" d="M14049.36 11352.12c27.2,-1.47 88.3,-10.18 114.63,-0.54 9.26,7.91 6.8,5.95 14.62,16.25l95.62 132.67c38.17,50.12 72.46,96.78 108.23,145.71 72.56,99.25 144.12,192.82 216.8,291.25l865.28 1166.7c144.55,195.28 293.77,388.94 438.16,586.35 287.6,393.19 573.04,776.11 866.75,1165.2 145.45,192.7 286.98,390.61 433.41,582.61l436.38 593.4c15.79,12.41 7.03,44.93 14.85,72.35 -45.6,2.94 -3997.06,347.48 -4037.36,340.37l-1956.7 98.42c-52.71,4.33 -64.37,18.27 -83.9,-11.07l-66.13 -58.8 -43.39 -42.14c-90.87,-126.3 -308.45,-409.18 -409.08,-536.45 -150.3,-190.08 -301.76,-377.8 -458.88,-574.16l-2751.06 -3452.39c-25.28,-19.72 -74.23,-81.05 -80.02,-103.62 26.47,-2.75 387.16,-29.4 902.48,-66.27 1794.29,-128.38 3586.42,-221.88 5379.31,-345.84z"/>
  <path class="fil3" d="M13749.92 12209.84c-10.12,15.32 -4.2,8.49 -11.73,26.55 40.52,6.38 43.42,23.39 74.11,47.83l413.06 365.91c23.65,22.91 41.06,34.07 63.47,55.14l400.42 369.96c219.13,196.51 464.29,447.74 675.35,662.31 139.66,141.98 333.88,364.57 477.94,521.22 20.78,22.59 34.73,34.35 53.54,56.44 34.26,40.26 69.89,75.04 104.03,116.15 33.58,40.45 74.66,83.31 108.72,119.91 38.24,41.1 70.45,76.85 106.44,113.69l522.41 586.68c124.54,151.9 295.25,336.21 410.08,478.94 17.82,22.15 33.49,41.26 49.98,60.16 28.74,32.9 49.41,67.73 84.22,86.74l11.04 8.35c43.92,3.27 279.5,120.51 346.24,145.9l-436.38 -593.4c-146.43,-192 -287.96,-389.91 -433.41,-582.61 -293.71,-389.09 -579.15,-772.01 -866.75,-1165.2 -144.39,-197.41 -293.61,-391.07 -438.16,-586.35l-865.28 -1166.7c-72.68,-98.43 -144.24,-192 -216.8,-291.25 -35.77,-48.93 -70.06,-95.59 -108.23,-145.71l-59.63 -82.73 32.38 -65.65 -76.44 5.28c-1.33,-1.34 -3.14,-2.91 -6.55,-5.82 0.2,1.97 0.27,4.07 0.23,6.26l-1271.63 87.92c239.38,132.94 288.01,166.79 502.09,336.2l347.67 278.74c28.72,23.6 49.13,37.71 63.64,49.58 -26.51,51.74 -48.03,91.16 -56.07,99.56z"/>
  <path class="fil3" d="M13299.55 16474.11c-10.2,-10.89 -571.39,-147.45 -596.43,-162.88l-121.41 -56.46c-499.89,-244.56 -632.68,-420.86 -1013.02,-694 -153.16,-109.97 -666.89,-531.87 -793.25,-654.61 -166.47,-161.7 -336.18,-309.5 -496.03,-469.06 -282.58,-282.09 -674.62,-666.71 -942.18,-979.73 -39.11,-45.76 -71.71,-84.26 -115.38,-130.14 -38.55,-40.49 -72.22,-85.28 -110.06,-127.07l-334.87 -384.83c-125.89,-136.87 -462.04,-538.39 -567,-635.28 -47.24,-43.61 -71.15,-79.85 -114.27,-122.73 -20.99,-20.87 -90.44,-96.26 -107.16,-126.88 -39.99,-25.43 -92.53,-38.73 -140.9,-62.59l2751.06 3452.39c157.12,196.36 308.58,384.08 458.88,574.16 154.1,194.88 453.5,726.98 719.34,705.15 540.62,-39.69 928.37,-144.81 1522.68,-125.44z"/>
  <path class="fil4" d="M7847.59 11867.85c48.37,23.86 100.91,37.16 140.9,62.59l4142.74 1815.14c194.16,87.16 401.39,169.99 592.66,261.17l-877.37 1762.72c0,0.07 1.4,1.72 3.89,4.38 -31.26,40.13 -149.43,287.92 -173.66,338.84 -30.29,63.66 -58.94,116.77 -88.11,175.05 -22.25,44.45 -86.78,135 -73.98,189.39 45.67,55.47 64.34,67.2 93.7,73.54 19.87,4.29 17.24,-69.66 75.19,-186.32 29.54,-59.48 56.61,-113.72 87.36,-175.07 26.69,-53.23 178.73,-326.86 187.07,-371.06l1.33 -1.36 878.63 -1761.58c773.86,338.55 4176.4,1965.55 4700.1,2057.91 53.37,-1.36 216.54,5.93 101.2,-81.47 -483.8,-184.03 -1030.9,-451.37 -1493.27,-654.55 -363.23,-159.61 -717.18,-313.58 -1083.04,-474.72l-1895.25 -830.22c-66.48,-29.32 -233.95,-92.9 -275.09,-126.77 354.29,-716.07 722.43,-1432.9 1068.74,-2152.51 35.82,-74.42 70.01,-138.86 106.9,-214.72 23.46,-48.26 100.98,-175.75 95.76,-226.65 -26.33,-9.64 -87.43,-0.93 -114.63,0.54 -66.78,135.75 -133.03,268.26 -200.96,404.49 -34.37,68.94 -66.62,130.95 -99.16,197.47 -22.14,45.25 -81.69,154.36 -102.35,199.51l-869.28 1742.68c-44.19,-7.35 -1168.61,-508.26 -1246.24,-542.04l-3572.68 -1566.62c-79.58,-34.66 -92.4,-33.62 -191.12,-23.38 5.79,22.57 54.74,83.9 80.02,103.62z"/>
 </g>
</svg>
